<?xml version="1.0" encoding="utf-8"?>
<svg xmlns="http://www.w3.org/2000/svg" fill="none" height="50" viewBox="0 0 197 50" width="197">
<path d="M28.8936 28.7659C28.9505 28.5726 29.0611 28.2209 29.2081 27.7803H37.4644L45.7345 2.17374H42.1377L39.3205 10.7311H24.2556C20.2562 10.7311 18.5333 13.5005 17.8133 15.9046C17.7477 16.0979 17.638 16.4477 17.4911 16.8844H9.2357L0.961744 42.5045H4.56147L7.3805 33.9384H22.4425C26.44 33.9384 28.1698 31.1729 28.8917 28.7649M21.37 16.1703C21.5564 15.5467 21.9533 15.0045 22.4949 14.6339C23.0364 14.2632 23.6902 14.0863 24.3477 14.1325H38.2568L34.8961 24.3847H30.3511C30.9016 22.7421 31.4041 21.2752 31.4041 21.2752C32.1094 18.8016 30.5833 16.8883 28.4215 16.8883H21.1358C21.2475 16.5462 21.3317 16.2998 21.37 16.1703ZM19.9986 20.2867H28.0826C28.0826 20.2867 27.3969 22.3285 26.7044 24.3838H18.6205C18.6205 24.3838 19.3061 22.3469 19.9918 20.2867M8.44228 30.5371L11.8059 20.2848H16.3558C15.8005 21.9275 15.297 23.3934 15.297 23.3934C14.5966 25.8728 16.1158 27.7774 18.2825 27.7774H25.5633C25.4516 28.1233 25.3674 28.3707 25.3292 28.4973C25.1437 29.1222 24.7466 29.6656 24.2042 30.0368C23.6618 30.408 23.0069 30.5845 22.3485 30.5371H8.44228ZM5.69867 23.7054C3.56334 19.4963 4.15105 13.2116 6.7154 9.36291C12.0254 1.39298 21.56 1.27799 29.2443 4.6281C30.441 5.11905 31.5954 5.70494 32.6961 6.37999C31.3821 5.30173 29.9634 4.35405 28.4607 3.55069C21.0232 -0.894215 9.16421 -1.59864 2.97661 6.59351C-1.26764 12.2095 -0.8533 20.7515 4.42042 27.5542L5.69867 23.7054ZM29.5636 7.55306C30.3472 8.00138 31.7695 8.97059 32.4561 9.47593H35.1802C32.224 7.48925 27.3147 4.80493 22.4651 4.69864C24.9605 5.30197 27.3516 6.26371 29.5636 7.55306ZM42.2797 17.1193L40.9985 20.9709C43.1328 25.1771 42.5471 31.4647 39.9827 35.3115C34.6738 43.2804 25.1333 43.3974 17.4539 40.054C16.2593 39.5571 15.1061 38.9684 14.005 38.2935C15.3177 39.3738 16.7361 40.3226 18.2394 41.1256C25.675 45.5599 37.5359 46.2779 43.7274 38.078C47.9697 32.4735 47.5554 23.919 42.2816 17.1144M17.1345 37.1233C16.3509 36.6749 14.9258 35.6999 14.2401 35.1975H11.52C14.4683 37.1842 19.3815 39.8724 24.2311 39.9806C21.7394 39.3674 19.3496 38.4052 17.1345 37.1233Z" fill="white"/>
<path d="M61.2114 10.6869H67.1559C72.2639 10.6869 76.9337 12.1363 76.9337 17.6519C76.9337 23.0341 72.9312 24.9811 67.8936 24.9811H65.9129V33.7318H61.2114V10.6869ZM65.9129 21.3479H67.5574C69.9084 21.3479 72.0262 20.5913 72.0262 17.9176C72.0262 15.2439 69.9758 14.3192 67.5574 14.3192H65.9129V21.3479Z" fill="white"/>
<path d="M79.6495 16.728H83.65V20.5931H83.7148C83.9163 19.0094 85.7658 16.3328 88.4525 16.3328C88.9139 16.313 89.3757 16.3582 89.8238 16.4671V20.9216C89.1881 20.6535 88.4995 20.5297 87.8089 20.5593C84.1515 20.5593 84.1515 25.0487 84.1515 27.4924V33.7317H79.6455L79.6495 16.728Z" fill="white"/>
<path d="M106.286 32.7741C104.457 33.7251 102.409 34.1913 100.343 34.1269C94.6302 34.1269 91.3069 30.8898 91.3069 25.3124C91.3069 20.393 93.9574 16.3308 99.3332 16.3308C105.748 16.3308 107.561 20.6588 107.561 26.5985H95.603C95.806 29.3399 97.752 30.8898 100.545 30.8898C102.577 30.8211 104.555 30.2313 106.286 29.1785V32.7741ZM103.262 23.5654C103.128 21.4183 102.123 19.5688 99.6015 19.5688C97.0802 19.5688 95.806 21.2849 95.603 23.5654H103.262Z" fill="white"/>
<path d="M122.306 20.3932C121.351 19.9536 120.305 19.7389 119.251 19.7661C116.462 19.7661 114.683 21.9441 114.683 25.1454C114.683 28.2839 116.193 30.6929 119.351 30.6929C120.545 30.6444 121.719 30.3766 122.814 29.9034L123.009 33.5695C121.548 33.9821 120.03 34.1705 118.51 34.128C112.836 34.128 109.979 30.3324 109.979 25.1415C109.979 20.2222 112.935 16.3271 118.34 16.3271C119.816 16.2969 121.289 16.4868 122.707 16.8904L122.306 20.3932Z" fill="white"/>
<path d="M126.103 9.39771H130.609V13.6252H126.103V9.39771ZM126.103 16.728H130.609V33.7297H126.103V16.728Z" fill="white"/>
<path d="M145.615 20.2886C144.33 19.8019 142.963 19.5561 141.587 19.5639C140.377 19.5639 138.935 19.9919 138.935 21.4443C138.935 24.1499 146.759 22.4356 146.759 28.5773C146.759 32.5391 143.163 34.1229 139.505 34.1229C137.778 34.0968 136.062 33.8526 134.399 33.3962L134.668 29.7649C136.038 30.4739 137.556 30.8577 139.102 30.8858C140.245 30.8858 142.059 30.4568 142.059 28.8063C142.059 25.4737 134.231 27.7512 134.231 21.6104C134.231 17.9463 137.489 16.3268 141.017 16.3268C142.669 16.3432 144.313 16.5541 145.915 16.9549L145.615 20.2886Z" fill="white"/>
<path d="M150.352 9.39771H154.858V13.6252H150.352V9.39771ZM150.352 16.728H154.858V33.7297H150.352V16.728Z" fill="white"/>
<path d="M167.516 16.3268C172.657 16.3268 176.588 19.7291 176.588 25.3412C176.588 30.2278 173.262 34.1229 167.516 34.1229C161.81 34.1229 158.482 30.2278 158.482 25.3412C158.482 19.73 162.414 16.3268 167.516 16.3268ZM167.516 30.6887C170.975 30.6887 171.883 27.6526 171.883 24.8127C171.883 22.2037 170.471 19.7619 167.516 19.7619C164.596 19.7619 163.186 22.2743 163.186 24.8127C163.186 27.6198 164.089 30.6887 167.516 30.6887Z" fill="white"/>
<path d="M180.111 16.728H184.378V19.0413H184.446C185.079 18.15 185.933 17.4335 186.926 16.9599C187.92 16.4864 189.019 16.2715 190.121 16.3357C194.219 16.3357 195.998 19.1766 195.998 23.003V33.7288H191.492V24.6516C191.492 22.5721 191.456 19.765 188.57 19.765C185.312 19.765 184.608 23.2311 184.608 25.4111V33.7298H180.102L180.111 16.728Z" fill="white"/>
<path d="M61.1485 39.7245H63.8911C66.9678 39.7245 69.6861 40.7459 69.6861 44.6757C69.6861 48.6056 66.9688 49.6262 63.8911 49.6262H61.1485V39.7245ZM63.1614 48.0655H64.2832C65.1723 48.0324 66.0133 47.6607 66.6307 47.0285C67.2475 46.3964 67.5926 45.5529 67.5926 44.6753C67.5926 43.7977 67.2475 42.9542 66.6307 42.322C66.0133 41.6898 65.1723 41.3181 64.2832 41.285H63.1614V48.0655Z" fill="white"/>
<path d="M75.6683 39.7245H77.8401C79.995 39.7245 82.5718 39.654 82.5718 42.406C82.5822 42.9765 82.3743 43.53 81.9891 43.9559C81.6044 44.3819 81.0708 44.6489 80.495 44.7038V44.7318C81.0416 44.7743 81.3579 45.3116 81.5594 45.7532L83.1693 49.6263H80.9257L79.7178 46.5339C79.4312 45.7967 79.1713 45.5126 78.3243 45.5126H77.6767V49.6263H75.6634L75.6683 39.7245ZM77.6812 43.952H78.3436C79.3361 43.952 80.4713 43.809 80.4713 42.5761C80.4713 41.3846 79.3495 41.2861 78.3436 41.2861H77.6812V43.952Z" fill="white"/>
<path d="M90.7787 39.7245H88.7643V49.6262H90.7787V39.7245Z" fill="white"/>
<path d="M97.249 39.7245H99.2619V48.0655H103.159V49.6262H97.249V39.7245Z" fill="white"/>
<path d="M108.734 39.7245H110.747V48.0655H114.644V49.6262H108.734V39.7245Z" fill="white"/>
<path d="M122.077 39.7245H120.062V49.6262H122.077V39.7245Z" fill="white"/>
<path d="M128.43 39.7245H130.907L134.727 47.1301H134.757V39.7245H136.687V49.6262H134.228L130.389 42.2214H130.361V49.6262H128.434L128.43 39.7245Z" fill="white"/>
<path d="M151.056 41.6397C150.238 41.2936 149.357 41.115 148.468 41.115C147.982 41.083 147.494 41.1538 147.038 41.3228C146.582 41.4918 146.168 41.7551 145.823 42.095C145.479 42.4348 145.212 42.8435 145.041 43.2934C144.869 43.7434 144.798 44.2242 144.83 44.7038C144.791 45.1629 144.851 45.6249 145.006 46.0594C145.161 46.494 145.408 46.8911 145.73 47.2248C146.052 47.5584 146.443 47.821 146.875 47.9952C147.307 48.1694 147.772 48.2514 148.239 48.2356C148.684 48.2416 149.128 48.194 149.561 48.0936V45.5126H147.433V43.952H151.487V49.2859C150.431 49.595 149.339 49.7668 148.238 49.797C144.988 49.797 142.73 48.1941 142.73 44.8458C142.73 41.4561 144.829 39.5554 148.238 39.5554C149.236 39.5454 150.229 39.6839 151.185 39.9661L151.056 41.6397Z" fill="white"/>
</svg>