<?xml version="1.0" encoding="utf-8"?>
<svg xmlns="http://www.w3.org/2000/svg" viewBox="0 0 478 1186">
  <g fill="none" fill-rule="evenodd">
    <g fill="#204ECF" fill-rule="nonzero">
      <path d="M265.757 86.297l1.946.46-.23.973L77.555 890.32l-1.876 7.926 6.745-7.317.678-.735 1.47 1.355-.678.735-9.331 10.124-1.205 1.307-.492-1.709-3.805-13.232-.276-.96 1.922-.553.276.96 2.75 9.563 1.876-7.924L265.527 87.27l.23-.973z" fill-opacity=".441"/>
      <path d="M265.757 86.297l1.946.46-.23.973-133.917 565.59-1.877 7.925 6.746-7.315.678-.735 1.47 1.356-.677.735-9.334 10.122-1.205 1.307-.49-1.709-3.804-13.232-.277-.961 1.922-.553.277.961 2.748 9.563 1.877-7.924L265.527 87.27l.23-.973z" fill-opacity=".441"/>
      <path d="M265.757 86.297l1.946.46-.23.973-78.919 333.59-1.875 7.926 6.744-7.318.678-.735 1.47 1.356-.677.735-9.331 10.124-1.205 1.307-.492-1.709-3.806-13.231-.276-.961 1.922-.553.276.96 2.751 9.563 1.875-7.924 78.919-333.59.23-.973z" fill-opacity=".441"/>
      <path d="M265.758 86.296l1.946.462-.231.973-23.907 100.592-1.884 7.922 6.752-7.308.678-.734 1.47 1.357-.679.734-9.342 10.114-1.206 1.306-.49-1.709-3.792-13.235-.276-.962 1.923-.55.276.96 2.74 9.567 1.884-7.925L265.527 87.27l.231-.973z" fill-opacity=".441"/>
      <path d="M265.386 85.695l2.92.69-.346 1.46L12.404 1167.3l-2.356 9.948 8.563-9.287 1.017-1.103 2.205 2.034-1.017 1.103-12.444 13.496-1.807 1.96-.737-2.562-5.072-17.643-.414-1.442 2.883-.829.414 1.442 3.49 12.14 2.355-9.948L265.04 87.154l.346-1.46z"/>
    </g>
    <g transform="translate(189)">
      <ellipse cx="78.5" cy="78" fill="#FFF" fill-rule="nonzero" rx="42.5" ry="42" stroke="#204ECF" stroke-width="2"/>
      <path d="M56.267 90h-1.574a.694.694 0 01-.693-.683V63.683c0-.373.315-.683.693-.683h40.614c.378 0 .693.31.693.683v3.165M96 86v3.228c0 .421-.315.772-.693.772H80" opacity=".5" stroke="#204ECF"/>
      <path d="M80 94l-5.938-2.449-.742-3.579c1.051-1.695 1.36-3.705 1.36-3.705h.062s0 0 0 0c2.103-.125 2.227-5.148 1.176-5.148h-.31V73.342c0-3.516-2.845-6.342-6.309-6.342h-6.31s0 0 0 0c-.247 0-.494.063-.742.126h0c-.061 0-.123.062-.247.062h0c-.619.252-1.175.628-1.546 1.13h0l-.062.063h0c-.248.314-.433.691-.557 1.068-.371 1.256-.062 2.511.804 3.453-.124.503-.247 1.068-.247 1.57v4.646h-.31c-1.051 0-.927 5.024 1.176 5.15 0 0 0 0 0 0h.062s.309 2.009 1.36 3.704l-.742 3.58L56 94" stroke="#204ECF" stroke-linecap="round" stroke-linejoin="round"/>
      <path d="M95.537 69.19h-14.59a.432.432 0 00-.442.443V82.68l4.421-2.787h10.61c.253 0 .443-.19.443-.443v-9.817c0-.19-.253-.443-.442-.443z" fill="#FFF" fill-rule="nonzero"/>
      <path d="M95.537 69.19h-14.59a.432.432 0 00-.442.443V82.68l4.421-2.787h10.61c.253 0 .443-.19.443-.443v-9.817c0-.19-.253-.443-.442-.443zM83.726 74.32h8.969M83.726 72.863h8.969M83.726 76.093h4.548" stroke="#204ECF"/>
      <path d="M96.99 74.32h6.252c.253 0 .442.19.442.443V87.81l-4.42-2.787H88.652a.432.432 0 01-.442-.443v-3.61" opacity=".5" stroke="#204ECF"/>
      <ellipse cx="79" cy="78.5" opacity=".25" rx="78" ry="77.5" stroke="#204ECF"/>
    </g>
    <g fill="#204ECF" fill-rule="nonzero">
      <path d="M370.432 76v-2.664H358.66c6.696-5.292 11.664-9.756 11.664-14.652 0-4.788-4.068-7.056-8.064-7.056-3.384 0-6.516 1.332-8.352 3.78l1.836 1.908c1.404-1.8 3.636-3.024 6.516-3.024 2.484 0 5.04 1.296 5.04 4.392 0 4.14-4.716 8.136-13.356 14.904V76h16.488zm13.86.432c5.22 0 8.388-3.708 8.388-7.848 0-5.112-3.528-7.668-7.848-7.668-3.096 0-5.76 2.088-6.804 3.744v-.936c0-4.716 2.088-9.432 6.768-9.432 2.484 0 3.888 1.008 5.112 2.448l1.512-2.232c-1.476-1.728-3.564-2.88-6.624-2.88-6.768 0-9.792 5.904-9.792 12.384 0 6.552 2.556 12.42 9.288 12.42zm-.144-2.664c-4.176 0-5.76-3.708-6.012-6.696 1.296-2.088 3.6-3.564 6.012-3.564 3.06 0 5.508 1.656 5.508 5.184 0 2.268-1.8 5.076-5.508 5.076zm14.436 2.592c1.08 0 1.98-.9 1.98-1.98s-.9-1.98-1.98-1.98-1.98.9-1.98 1.98.9 1.98 1.98 1.98zm19.728-.36v-6.084h3.384v-2.628h-3.384v-15.3h-4.104l-10.296 15.444v2.484h11.412V76h2.988zm-2.988-8.712H406.9l8.424-12.528v12.528zm14.436-3.816c3.456 0 5.796-2.556 5.796-5.868 0-3.42-2.34-5.976-5.796-5.976-3.42 0-5.796 2.556-5.796 5.976 0 3.312 2.376 5.868 5.796 5.868zM429.436 76l15.372-24.012h-2.016L427.456 76h1.98zm.324-14.364c-2.124 0-3.636-1.764-3.636-4.032 0-2.376 1.512-4.14 3.636-4.14 2.16 0 3.636 1.764 3.636 4.14 0 2.268-1.476 4.032-3.636 4.032zm12.528 14.796c3.42 0 5.76-2.556 5.76-5.904s-2.34-5.94-5.76-5.94-5.796 2.592-5.796 5.94c0 3.348 2.376 5.904 5.796 5.904zm0-1.836c-2.196 0-3.672-1.764-3.672-4.068 0-2.34 1.476-4.104 3.672-4.104 2.16 0 3.636 1.764 3.636 4.104 0 2.304-1.476 4.068-3.636 4.068zM356.688 105.192c2.352 0 3.824-1.824 3.824-4.064s-1.472-4.048-3.824-4.048-3.824 1.808-3.824 4.048 1.472 4.064 3.824 4.064zm0-1.072c-1.648 0-2.56-1.408-2.56-2.992 0-1.568.912-2.976 2.56-2.976 1.648 0 2.56 1.408 2.56 2.976 0 1.584-.912 2.992-2.56 2.992zM364 105v-6.672h1.568v-1.056H364v-.592c0-.992.432-1.52 1.232-1.52.384 0 .688.144.944.368l.496-.768c-.48-.448-1.008-.592-1.632-.592-1.36 0-2.24.928-2.24 2.512v.592h-1.28v1.056h1.28V105h1.2zm9.424.192c1.04 0 1.936-.368 2.56-1.072v.88h1.2v-5.312c0-1.872-1.344-2.608-2.992-2.608-1.264 0-2.256.416-3.088 1.28l.56.832c.688-.752 1.44-1.072 2.368-1.072 1.12 0 1.952.592 1.952 1.616v1.392c-.624-.704-1.504-1.04-2.56-1.04-1.312 0-2.688.8-2.688 2.544 0 1.68 1.392 2.56 2.688 2.56zm.448-.864c-1.136 0-1.92-.704-1.92-1.696 0-.976.784-1.68 1.92-1.68.832 0 1.648.32 2.112.944v1.472c-.464.64-1.28.96-2.112.96zm6.928 3.616v-4.112c.64.848 1.552 1.36 2.608 1.36 2.032 0 3.44-1.568 3.44-4.064 0-2.512-1.408-4.048-3.44-4.048a3.23 3.23 0 00-2.608 1.344v-1.152h-1.2v10.672h1.2zm2.304-3.824c-.944 0-1.888-.576-2.304-1.248v-3.488c.416-.672 1.36-1.232 2.304-1.232 1.552 0 2.48 1.264 2.48 2.976s-.928 2.992-2.48 2.992zm6.848 3.824v-4.112c.64.848 1.552 1.36 2.608 1.36 2.032 0 3.44-1.568 3.44-4.064 0-2.512-1.408-4.048-3.44-4.048a3.23 3.23 0 00-2.608 1.344v-1.152h-1.2v10.672h1.2zm2.304-3.824c-.944 0-1.888-.576-2.304-1.248v-3.488c.416-.672 1.36-1.232 2.304-1.232 1.552 0 2.48 1.264 2.48 2.976s-.928 2.992-2.48 2.992zm6.848.88V94.328h-1.2V105h1.2zm3.008-8.832c.448 0 .8-.352.8-.8a.806.806 0 00-.8-.816.82.82 0 00-.816.816c0 .448.368.8.816.8zm.592 8.832v-7.728h-1.2V105h1.2zm5.808.192c1.408 0 2.24-.576 2.832-1.344l-.8-.736c-.512.688-1.168 1.008-1.968 1.008-1.632 0-2.672-1.28-2.672-2.992s1.04-2.976 2.672-2.976c.8 0 1.456.288 1.968.992l.8-.72c-.592-.768-1.424-1.344-2.832-1.344-2.304 0-3.856 1.76-3.856 4.048 0 2.288 1.552 4.064 3.856 4.064zm6.8 0c1.04 0 1.936-.368 2.56-1.072v.88h1.2v-5.312c0-1.872-1.344-2.608-2.992-2.608-1.264 0-2.256.416-3.088 1.28l.56.832c.688-.752 1.44-1.072 2.368-1.072 1.12 0 1.952.592 1.952 1.616v1.392c-.624-.704-1.504-1.04-2.56-1.04-1.312 0-2.688.8-2.688 2.544 0 1.68 1.392 2.56 2.688 2.56zm.448-.864c-1.136 0-1.92-.704-1.92-1.696 0-.976.784-1.68 1.92-1.68.832 0 1.648.32 2.112.944v1.472c-.464.64-1.28.96-2.112.96zm6.928.672v-5.648c.464-.624 1.344-1.2 2.288-1.2 1.04 0 1.744.416 1.744 1.792V105h1.184v-5.424c0-1.68-.848-2.496-2.448-2.496-1.168 0-2.224.656-2.768 1.312v-1.12h-1.2V105h1.2zm9.6.192c.688 0 1.12-.208 1.424-.496l-.352-.912c-.16.176-.464.336-.816.336-.512 0-.768-.416-.768-.992v-4.8h1.568v-1.056h-1.568V95.16h-1.216v2.112h-1.28v1.056h1.28v5.056c0 1.152.576 1.808 1.728 1.808zm5.2 0c1.984 0 3.024-1.04 3.024-2.336 0-3.008-4.784-1.904-4.784-3.584 0-.688.656-1.216 1.712-1.216 1.008 0 1.84.416 2.304.976l.56-.832c-.608-.624-1.536-1.12-2.864-1.12-1.84 0-2.864 1.008-2.864 2.224 0 2.864 4.784 1.712 4.784 3.584 0 .768-.656 1.328-1.84 1.328-1.056 0-2.032-.512-2.544-1.104l-.608.864c.784.816 1.84 1.216 3.12 1.216zm10.32 2.752v-4.112c.64.848 1.552 1.36 2.608 1.36 2.032 0 3.44-1.568 3.44-4.064 0-2.512-1.408-4.048-3.44-4.048a3.23 3.23 0 00-2.608 1.344v-1.152h-1.2v10.672h1.2zm2.304-3.824c-.944 0-1.888-.576-2.304-1.248v-3.488c.416-.672 1.36-1.232 2.304-1.232 1.552 0 2.48 1.264 2.48 2.976s-.928 2.992-2.48 2.992zm7.92 1.072c1.04 0 1.936-.368 2.56-1.072v.88h1.2v-5.312c0-1.872-1.344-2.608-2.992-2.608-1.264 0-2.256.416-3.088 1.28l.56.832c.688-.752 1.44-1.072 2.368-1.072 1.12 0 1.952.592 1.952 1.616v1.392c-.624-.704-1.504-1.04-2.56-1.04-1.312 0-2.688.8-2.688 2.544 0 1.68 1.392 2.56 2.688 2.56zm.448-.864c-1.136 0-1.92-.704-1.92-1.696 0-.976.784-1.68 1.92-1.68.832 0 1.648.32 2.112.944v1.472c-.464.64-1.28.96-2.112.96zm8.192.864c1.984 0 3.024-1.04 3.024-2.336 0-3.008-4.784-1.904-4.784-3.584 0-.688.656-1.216 1.712-1.216 1.008 0 1.84.416 2.304.976l.56-.832c-.608-.624-1.536-1.12-2.864-1.12-1.84 0-2.864 1.008-2.864 2.224 0 2.864 4.784 1.712 4.784 3.584 0 .768-.656 1.328-1.84 1.328-1.056 0-2.032-.512-2.544-1.104l-.608.864c.784.816 1.84 1.216 3.12 1.216zm7.44 0c1.984 0 3.024-1.04 3.024-2.336 0-3.008-4.784-1.904-4.784-3.584 0-.688.656-1.216 1.712-1.216 1.008 0 1.84.416 2.304.976l.56-.832c-.608-.624-1.536-1.12-2.864-1.12-1.84 0-2.864 1.008-2.864 2.224 0 2.864 4.784 1.712 4.784 3.584 0 .768-.656 1.328-1.84 1.328-1.056 0-2.032-.512-2.544-1.104l-.608.864c.784.816 1.84 1.216 3.12 1.216z"/>
    </g>
    <g transform="translate(151 248)">
      <circle cx="62.5" cy="62.5" fill="#FFF" fill-rule="nonzero" r="42.5" stroke="#204ECF" stroke-width="2"/>
      <circle cx="62" cy="62" opacity=".25" r="62" stroke="#204ECF"/>
      <path d="M74 43H52L41 62l11 19h22l11-19z" opacity=".5" stroke="#204ECF"/>
      <path d="M44 48h38v28H44z" fill="#FFF" fill-rule="nonzero"/>
      <path d="M79.251 74H45.75a.751.751 0 01-.749-.735v-22.53c0-.429.374-.735.749-.735H79.25c.437 0 .749.367.749.735v22.53c0 .368-.374.735-.749.735zM54 62.5h17M54 59.5h17M54 65.5h9" stroke="#204ECF"/>
      <circle cx="47.5" cy="52.5" fill="#204ECF" fill-rule="nonzero" opacity=".5" r="1" stroke="#204ECF"/>
      <circle cx="49.5" cy="52.5" opacity=".5" r="1" stroke="#204ECF"/>
      <circle cx="52.5" cy="52.5" opacity=".5" r="1" stroke="#204ECF"/>
      <circle cx="51.5" cy="43.5" fill="#FFF" fill-rule="nonzero" r="2.5"/>
      <circle cx="73.5" cy="43.5" fill="#FFF" fill-rule="nonzero" r="2.5"/>
      <circle cx="51.5" cy="81.5" fill="#FFF" fill-rule="nonzero" r="2.5"/>
      <circle cx="40.5" cy="61.5" fill="#FFF" fill-rule="nonzero" r="2.5"/>
      <circle cx="84.5" cy="61.5" fill="#FFF" fill-rule="nonzero" r="2.5"/>
      <circle cx="73.5" cy="81.5" fill="#FFF" fill-rule="nonzero" r="2.5"/>
      <circle cx="51.5" cy="43.5" r="2.5" stroke="#204ECF"/>
      <circle cx="73.5" cy="43.5" r="2.5" stroke="#204ECF"/>
      <circle cx="51.5" cy="81.5" r="2.5" stroke="#204ECF"/>
      <circle cx="40.5" cy="61.5" r="2.5" stroke="#204ECF"/>
      <circle cx="84.5" cy="61.5" r="2.5" stroke="#204ECF"/>
      <circle cx="73.5" cy="81.5" r="2.5" stroke="#204ECF"/>
    </g>
    <g fill="#204ECF" fill-rule="nonzero">
      <path d="M303.816 307l8.736-19.52v-1.824h-14.56v2.368h11.488L300.872 307h2.944zm10.24.32c.96 0 1.76-.8 1.76-1.76s-.8-1.76-1.76-1.76-1.76.8-1.76 1.76.8 1.76 1.76 1.76zm17.536-.32v-5.408h3.008v-2.336h-3.008v-13.6h-3.648l-9.152 13.728v2.208h10.144V307h2.656zm-2.656-7.744h-7.488l7.488-11.136v11.136zm12.832-3.392c3.072 0 5.152-2.272 5.152-5.216 0-3.04-2.08-5.312-5.152-5.312-3.04 0-5.152 2.272-5.152 5.312 0 2.944 2.112 5.216 5.152 5.216zM341.48 307l13.664-21.344h-1.792L339.72 307h1.76zm.288-12.768c-1.888 0-3.232-1.568-3.232-3.584 0-2.112 1.344-3.68 3.232-3.68 1.92 0 3.232 1.568 3.232 3.68 0 2.016-1.312 3.584-3.232 3.584zm11.136 13.152c3.04 0 5.12-2.272 5.12-5.248 0-2.976-2.08-5.28-5.12-5.28s-5.152 2.304-5.152 5.28c0 2.976 2.112 5.248 5.152 5.248zm0-1.632c-1.952 0-3.264-1.568-3.264-3.616 0-2.08 1.312-3.648 3.264-3.648 1.92 0 3.232 1.568 3.232 3.648 0 2.048-1.312 3.616-3.232 3.616zM301.688 335.192c2.352 0 3.824-1.824 3.824-4.064s-1.472-4.048-3.824-4.048-3.824 1.808-3.824 4.048 1.472 4.064 3.824 4.064zm0-1.072c-1.648 0-2.56-1.408-2.56-2.992 0-1.568.912-2.976 2.56-2.976 1.648 0 2.56 1.408 2.56 2.976 0 1.584-.912 2.992-2.56 2.992zM309 335v-6.672h1.568v-1.056H309v-.592c0-.992.432-1.52 1.232-1.52.384 0 .688.144.944.368l.496-.768c-.48-.448-1.008-.592-1.632-.592-1.36 0-2.24.928-2.24 2.512v.592h-1.28v1.056h1.28V335h1.2zm9.424.192c1.04 0 1.936-.368 2.56-1.072v.88h1.2v-5.312c0-1.872-1.344-2.608-2.992-2.608-1.264 0-2.256.416-3.088 1.28l.56.832c.688-.752 1.44-1.072 2.368-1.072 1.12 0 1.952.592 1.952 1.616v1.392c-.624-.704-1.504-1.04-2.56-1.04-1.312 0-2.688.8-2.688 2.544 0 1.68 1.392 2.56 2.688 2.56zm.448-.864c-1.136 0-1.92-.704-1.92-1.696 0-.976.784-1.68 1.92-1.68.832 0 1.648.32 2.112.944v1.472c-.464.64-1.28.96-2.112.96zm6.928 3.616v-4.112c.64.848 1.552 1.36 2.608 1.36 2.032 0 3.44-1.568 3.44-4.064 0-2.512-1.408-4.048-3.44-4.048a3.23 3.23 0 00-2.608 1.344v-1.152h-1.2v10.672h1.2zm2.304-3.824c-.944 0-1.888-.576-2.304-1.248v-3.488c.416-.672 1.36-1.232 2.304-1.232 1.552 0 2.48 1.264 2.48 2.976s-.928 2.992-2.48 2.992zm6.848 3.824v-4.112c.64.848 1.552 1.36 2.608 1.36 2.032 0 3.44-1.568 3.44-4.064 0-2.512-1.408-4.048-3.44-4.048a3.23 3.23 0 00-2.608 1.344v-1.152h-1.2v10.672h1.2zm2.304-3.824c-.944 0-1.888-.576-2.304-1.248v-3.488c.416-.672 1.36-1.232 2.304-1.232 1.552 0 2.48 1.264 2.48 2.976s-.928 2.992-2.48 2.992zm6.848.88v-10.672h-1.2V335h1.2zm3.008-8.832c.448 0 .8-.352.8-.8a.806.806 0 00-.8-.816.82.82 0 00-.816.816c0 .448.368.8.816.8zm.592 8.832v-7.728h-1.2V335h1.2zm5.808.192c1.408 0 2.24-.576 2.832-1.344l-.8-.736c-.512.688-1.168 1.008-1.968 1.008-1.632 0-2.672-1.28-2.672-2.992s1.04-2.976 2.672-2.976c.8 0 1.456.288 1.968.992l.8-.72c-.592-.768-1.424-1.344-2.832-1.344-2.304 0-3.856 1.76-3.856 4.048 0 2.288 1.552 4.064 3.856 4.064zm6.8 0c1.04 0 1.936-.368 2.56-1.072v.88h1.2v-5.312c0-1.872-1.344-2.608-2.992-2.608-1.264 0-2.256.416-3.088 1.28l.56.832c.688-.752 1.44-1.072 2.368-1.072 1.12 0 1.952.592 1.952 1.616v1.392c-.624-.704-1.504-1.04-2.56-1.04-1.312 0-2.688.8-2.688 2.544 0 1.68 1.392 2.56 2.688 2.56zm.448-.864c-1.136 0-1.92-.704-1.92-1.696 0-.976.784-1.68 1.92-1.68.832 0 1.648.32 2.112.944v1.472c-.464.64-1.28.96-2.112.96zm6.928.672v-5.648c.464-.624 1.344-1.2 2.288-1.2 1.04 0 1.744.416 1.744 1.792V335h1.184v-5.424c0-1.68-.848-2.496-2.448-2.496-1.168 0-2.224.656-2.768 1.312v-1.12h-1.2V335h1.2zm9.6.192c.688 0 1.12-.208 1.424-.496l-.352-.912c-.16.176-.464.336-.816.336-.512 0-.768-.416-.768-.992v-4.8h1.568v-1.056h-1.568v-2.112h-1.216v2.112h-1.28v1.056h1.28v5.056c0 1.152.576 1.808 1.728 1.808zm5.2 0c1.984 0 3.024-1.04 3.024-2.336 0-3.008-4.784-1.904-4.784-3.584 0-.688.656-1.216 1.712-1.216 1.008 0 1.84.416 2.304.976l.56-.832c-.608-.624-1.536-1.12-2.864-1.12-1.84 0-2.864 1.008-2.864 2.224 0 2.864 4.784 1.712 4.784 3.584 0 .768-.656 1.328-1.84 1.328-1.056 0-2.032-.512-2.544-1.104l-.608.864c.784.816 1.84 1.216 3.12 1.216zm10.32 2.752v-4.112c.64.848 1.552 1.36 2.608 1.36 2.032 0 3.44-1.568 3.44-4.064 0-2.512-1.408-4.048-3.44-4.048a3.23 3.23 0 00-2.608 1.344v-1.152h-1.2v10.672h1.2zm2.304-3.824c-.944 0-1.888-.576-2.304-1.248v-3.488c.416-.672 1.36-1.232 2.304-1.232 1.552 0 2.48 1.264 2.48 2.976s-.928 2.992-2.48 2.992zm7.92 1.072c1.04 0 1.936-.368 2.56-1.072v.88h1.2v-5.312c0-1.872-1.344-2.608-2.992-2.608-1.264 0-2.256.416-3.088 1.28l.56.832c.688-.752 1.44-1.072 2.368-1.072 1.12 0 1.952.592 1.952 1.616v1.392c-.624-.704-1.504-1.04-2.56-1.04-1.312 0-2.688.8-2.688 2.544 0 1.68 1.392 2.56 2.688 2.56zm.448-.864c-1.136 0-1.92-.704-1.92-1.696 0-.976.784-1.68 1.92-1.68.832 0 1.648.32 2.112.944v1.472c-.464.64-1.28.96-2.112.96zm8.192.864c1.984 0 3.024-1.04 3.024-2.336 0-3.008-4.784-1.904-4.784-3.584 0-.688.656-1.216 1.712-1.216 1.008 0 1.84.416 2.304.976l.56-.832c-.608-.624-1.536-1.12-2.864-1.12-1.84 0-2.864 1.008-2.864 2.224 0 2.864 4.784 1.712 4.784 3.584 0 .768-.656 1.328-1.84 1.328-1.056 0-2.032-.512-2.544-1.104l-.608.864c.784.816 1.84 1.216 3.12 1.216zm7.44 0c1.984 0 3.024-1.04 3.024-2.336 0-3.008-4.784-1.904-4.784-3.584 0-.688.656-1.216 1.712-1.216 1.008 0 1.84.416 2.304.976l.56-.832c-.608-.624-1.536-1.12-2.864-1.12-1.84 0-2.864 1.008-2.864 2.224 0 2.864 4.784 1.712 4.784 3.584 0 .768-.656 1.328-1.84 1.328-1.056 0-2.032-.512-2.544-1.104l-.608.864c.784.816 1.84 1.216 3.12 1.216z"/>
    </g>
    <g transform="translate(97 497)">
      <ellipse cx="55" cy="55.5" opacity=".25" rx="55" ry="55.5" stroke="#204ECF"/>
      <ellipse cx="55" cy="55.5" fill="#FFF" fill-rule="nonzero" rx="42" ry="42.5" stroke="#204ECF" stroke-width="2"/>
      <path d="M33 39h43v32H33z" fill="#FFF" fill-rule="nonzero"/>
      <path d="M52.47 69H35.863a.844.844 0 01-.864-.865v-26.27c0-.494.37-.865.864-.865h38.272c.494 0 .864.37.864.865v4.698M45 54.5h19M45 51.5h19M45 58.5h10" stroke="#204ECF"/>
      <circle cx="37.5" cy="43.5" fill="#204ECF" fill-rule="nonzero" opacity=".5" r="1" stroke="#204ECF"/>
      <circle cx="40.5" cy="43.5" opacity=".5" r="1" stroke="#204ECF"/>
      <circle cx="42.5" cy="43.5" opacity=".5" r="1" stroke="#204ECF"/>
      <circle cx="65" cy="59" fill="#FFF" fill-rule="nonzero" r="14"/>
      <circle cx="65" cy="59" opacity=".5" r="14" stroke="#204ECF"/>
      <path d="M75 69l4 4" opacity=".5" stroke="#204ECF"/>
      <path d="M70 56l-6.71 6L60 58.97" stroke="#204ECF"/>
      <path d="M70 39.09V36H30v28h3.086" opacity=".5" stroke="#204ECF"/>
    </g>
    <g fill="#204ECF" fill-rule="nonzero">
      <path d="M249.448 549.336c4.116 0 6.636-2.268 6.636-5.376 0-3.024-2.632-4.452-4.312-4.62 1.736-.28 4.004-1.624 4.004-4.34 0-3.136-2.716-4.956-6.3-4.956-2.912 0-5.068 1.232-6.412 2.884l1.288 1.456c1.372-1.484 2.884-2.268 4.928-2.268 2.268 0 4.172 1.12 4.172 3.192 0 2.156-1.988 3.08-4.34 3.08h-.578c-.577-.002-1.123-.007-1.354-.028v2.128c.28-.028 1.148-.028 1.932-.028 2.744 0 4.648.98 4.648 3.304 0 2.128-1.652 3.5-4.368 3.5-2.212 0-4.116-1.008-5.208-2.464l-1.372 1.456c1.148 1.68 3.472 3.08 6.636 3.08zm11.368-.056c.84 0 1.54-.7 1.54-1.54 0-.84-.7-1.54-1.54-1.54-.84 0-1.54.7-1.54 1.54 0 .84.7 1.54 1.54 1.54zm11.032.056c4.06 0 6.524-2.884 6.524-6.104 0-3.976-2.744-5.964-6.104-5.964-2.408 0-4.48 1.624-5.292 2.912v-.728c0-3.668 1.624-7.336 5.264-7.336 1.932 0 3.024.784 3.976 1.904l1.176-1.736c-1.148-1.344-2.772-2.24-5.152-2.24-5.264 0-7.616 4.592-7.616 9.632 0 5.096 1.988 9.66 7.224 9.66zm-.112-2.072c-3.248 0-4.48-2.884-4.676-5.208 1.008-1.624 2.8-2.772 4.676-2.772 2.38 0 4.284 1.288 4.284 4.032 0 1.764-1.4 3.948-4.284 3.948zm13.384-8.008c2.688 0 4.508-1.988 4.508-4.564 0-2.66-1.82-4.648-4.508-4.648-2.66 0-4.508 1.988-4.508 4.648 0 2.576 1.848 4.564 4.508 4.564zm-.252 9.744l11.956-18.676h-1.568L283.328 549h1.54zm.252-11.172c-1.652 0-2.828-1.372-2.828-3.136 0-1.848 1.176-3.22 2.828-3.22 1.68 0 2.828 1.372 2.828 3.22 0 1.764-1.148 3.136-2.828 3.136zm9.744 11.508c2.66 0 4.48-1.988 4.48-4.592 0-2.604-1.82-4.62-4.48-4.62s-4.508 2.016-4.508 4.62 1.848 4.592 4.508 4.592zm0-1.428c-1.708 0-2.856-1.372-2.856-3.164 0-1.82 1.148-3.192 2.856-3.192 1.68 0 2.828 1.372 2.828 3.192 0 1.792-1.148 3.164-2.828 3.164zM246.688 576.192c2.352 0 3.824-1.824 3.824-4.064s-1.472-4.048-3.824-4.048-3.824 1.808-3.824 4.048 1.472 4.064 3.824 4.064zm0-1.072c-1.648 0-2.56-1.408-2.56-2.992 0-1.568.912-2.976 2.56-2.976 1.648 0 2.56 1.408 2.56 2.976 0 1.584-.912 2.992-2.56 2.992zM254 576v-6.672h1.568v-1.056H254v-.592c0-.992.432-1.52 1.232-1.52.384 0 .688.144.944.368l.496-.768c-.48-.448-1.008-.592-1.632-.592-1.36 0-2.24.928-2.24 2.512v.592h-1.28v1.056h1.28V576h1.2zm9.424.192c1.04 0 1.936-.368 2.56-1.072v.88h1.2v-5.312c0-1.872-1.344-2.608-2.992-2.608-1.264 0-2.256.416-3.088 1.28l.56.832c.688-.752 1.44-1.072 2.368-1.072 1.12 0 1.952.592 1.952 1.616v1.392c-.624-.704-1.504-1.04-2.56-1.04-1.312 0-2.688.8-2.688 2.544 0 1.68 1.392 2.56 2.688 2.56zm.448-.864c-1.136 0-1.92-.704-1.92-1.696 0-.976.784-1.68 1.92-1.68.832 0 1.648.32 2.112.944v1.472c-.464.64-1.28.96-2.112.96zm6.928 3.616v-4.112c.64.848 1.552 1.36 2.608 1.36 2.032 0 3.44-1.568 3.44-4.064 0-2.512-1.408-4.048-3.44-4.048a3.23 3.23 0 00-2.608 1.344v-1.152h-1.2v10.672h1.2zm2.304-3.824c-.944 0-1.888-.576-2.304-1.248v-3.488c.416-.672 1.36-1.232 2.304-1.232 1.552 0 2.48 1.264 2.48 2.976s-.928 2.992-2.48 2.992zm6.848 3.824v-4.112c.64.848 1.552 1.36 2.608 1.36 2.032 0 3.44-1.568 3.44-4.064 0-2.512-1.408-4.048-3.44-4.048a3.23 3.23 0 00-2.608 1.344v-1.152h-1.2v10.672h1.2zm2.304-3.824c-.944 0-1.888-.576-2.304-1.248v-3.488c.416-.672 1.36-1.232 2.304-1.232 1.552 0 2.48 1.264 2.48 2.976s-.928 2.992-2.48 2.992zm6.848.88v-10.672h-1.2V576h1.2zm3.008-8.832c.448 0 .8-.352.8-.8a.806.806 0 00-.8-.816.82.82 0 00-.816.816c0 .448.368.8.816.8zm.592 8.832v-7.728h-1.2V576h1.2zm5.808.192c1.408 0 2.24-.576 2.832-1.344l-.8-.736c-.512.688-1.168 1.008-1.968 1.008-1.632 0-2.672-1.28-2.672-2.992s1.04-2.976 2.672-2.976c.8 0 1.456.288 1.968.992l.8-.72c-.592-.768-1.424-1.344-2.832-1.344-2.304 0-3.856 1.76-3.856 4.048 0 2.288 1.552 4.064 3.856 4.064zm6.8 0c1.04 0 1.936-.368 2.56-1.072v.88h1.2v-5.312c0-1.872-1.344-2.608-2.992-2.608-1.264 0-2.256.416-3.088 1.28l.56.832c.688-.752 1.44-1.072 2.368-1.072 1.12 0 1.952.592 1.952 1.616v1.392c-.624-.704-1.504-1.04-2.56-1.04-1.312 0-2.688.8-2.688 2.544 0 1.68 1.392 2.56 2.688 2.56zm.448-.864c-1.136 0-1.92-.704-1.92-1.696 0-.976.784-1.68 1.92-1.68.832 0 1.648.32 2.112.944v1.472c-.464.64-1.28.96-2.112.96zm6.928.672v-5.648c.464-.624 1.344-1.2 2.288-1.2 1.04 0 1.744.416 1.744 1.792V576h1.184v-5.424c0-1.68-.848-2.496-2.448-2.496-1.168 0-2.224.656-2.768 1.312v-1.12h-1.2V576h1.2zm9.6.192c.688 0 1.12-.208 1.424-.496l-.352-.912c-.16.176-.464.336-.816.336-.512 0-.768-.416-.768-.992v-4.8h1.568v-1.056h-1.568v-2.112h-1.216v2.112h-1.28v1.056h1.28v5.056c0 1.152.576 1.808 1.728 1.808zm5.2 0c1.984 0 3.024-1.04 3.024-2.336 0-3.008-4.784-1.904-4.784-3.584 0-.688.656-1.216 1.712-1.216 1.008 0 1.84.416 2.304.976l.56-.832c-.608-.624-1.536-1.12-2.864-1.12-1.84 0-2.864 1.008-2.864 2.224 0 2.864 4.784 1.712 4.784 3.584 0 .768-.656 1.328-1.84 1.328-1.056 0-2.032-.512-2.544-1.104l-.608.864c.784.816 1.84 1.216 3.12 1.216zm10.32 2.752v-4.112c.64.848 1.552 1.36 2.608 1.36 2.032 0 3.44-1.568 3.44-4.064 0-2.512-1.408-4.048-3.44-4.048a3.23 3.23 0 00-2.608 1.344v-1.152h-1.2v10.672h1.2zm2.304-3.824c-.944 0-1.888-.576-2.304-1.248v-3.488c.416-.672 1.36-1.232 2.304-1.232 1.552 0 2.48 1.264 2.48 2.976s-.928 2.992-2.48 2.992zm7.92 1.072c1.04 0 1.936-.368 2.56-1.072v.88h1.2v-5.312c0-1.872-1.344-2.608-2.992-2.608-1.264 0-2.256.416-3.088 1.28l.56.832c.688-.752 1.44-1.072 2.368-1.072 1.12 0 1.952.592 1.952 1.616v1.392c-.624-.704-1.504-1.04-2.56-1.04-1.312 0-2.688.8-2.688 2.544 0 1.68 1.392 2.56 2.688 2.56zm.448-.864c-1.136 0-1.92-.704-1.92-1.696 0-.976.784-1.68 1.92-1.68.832 0 1.648.32 2.112.944v1.472c-.464.64-1.28.96-2.112.96zm8.192.864c1.984 0 3.024-1.04 3.024-2.336 0-3.008-4.784-1.904-4.784-3.584 0-.688.656-1.216 1.712-1.216 1.008 0 1.84.416 2.304.976l.56-.832c-.608-.624-1.536-1.12-2.864-1.12-1.84 0-2.864 1.008-2.864 2.224 0 2.864 4.784 1.712 4.784 3.584 0 .768-.656 1.328-1.84 1.328-1.056 0-2.032-.512-2.544-1.104l-.608.864c.784.816 1.84 1.216 3.12 1.216zm7.44 0c1.984 0 3.024-1.04 3.024-2.336 0-3.008-4.784-1.904-4.784-3.584 0-.688.656-1.216 1.712-1.216 1.008 0 1.84.416 2.304.976l.56-.832c-.608-.624-1.536-1.12-2.864-1.12-1.84 0-2.864 1.008-2.864 2.224 0 2.864 4.784 1.712 4.784 3.584 0 .768-.656 1.328-1.84 1.328-1.056 0-2.032-.512-2.544-1.104l-.608.864c.784.816 1.84 1.216 3.12 1.216z"/>
    </g>
    <g transform="translate(48 726)">
      <circle cx="50" cy="49" opacity=".25" r="49" stroke="#204ECF"/>
      <ellipse cx="49.5" cy="49" fill="#FFF" fill-rule="nonzero" rx="42.5" ry="42" stroke="#204ECF" stroke-width="2"/>
      <path d="M25 30h40v29H25z" fill="#FFF" fill-rule="nonzero"/>
      <path d="M50.583 58H26.815a.83.83 0 01-.815-.816V32.816a.83.83 0 01.815-.816H62.185a.83.83 0 01.815.816v3.831M36 44.5h15M36 41.5h15M36 48.5h9" stroke="#204ECF"/>
      <circle cx="28.5" cy="34.5" fill="#204ECF" fill-rule="nonzero" opacity=".5" r="1" stroke="#204ECF"/>
      <circle cx="31.5" cy="34.5" opacity=".5" r="1" stroke="#204ECF"/>
      <circle cx="33.5" cy="34.5" opacity=".5" r="1" stroke="#204ECF"/>
      <path d="M61 43l-3.356 3L56 44.5M61 51l-3.356 3L56 52.47M61 59l-3.356 3L56 60.53" stroke="#204ECF"/>
      <path d="M52 38h22v30H52z" stroke="#204ECF"/>
      <path d="M63 43.5h7M63 46.5h4M63 44.5h7M63 51.5h7M63 54.5h4M63 52.5h7M63 59.5h7M63 62.5h4M63 60.5h7" opacity=".5" stroke="#204ECF"/>
    </g>
    <g fill="#204ECF" fill-rule="nonzero">
      <path d="M193.384 770.288c3.528 0 5.688-1.944 5.688-4.608 0-2.592-2.256-3.816-3.696-3.96 1.488-.24 3.432-1.392 3.432-3.72 0-2.688-2.328-4.248-5.4-4.248-2.496 0-4.344 1.056-5.496 2.472l1.104 1.248c1.176-1.272 2.472-1.944 4.224-1.944 1.944 0 3.576.96 3.576 2.736 0 1.848-1.704 2.64-3.72 2.64h-.594a17.04 17.04 0 01-1.062-.024v1.824c.24-.024.984-.024 1.656-.024 2.352 0 3.984.84 3.984 2.832 0 1.824-1.416 3-3.744 3-1.896 0-3.528-.864-4.464-2.112l-1.176 1.248c.984 1.44 2.976 2.64 5.688 2.64zm9.744-.048c.72 0 1.32-.6 1.32-1.32 0-.72-.6-1.32-1.32-1.32-.72 0-1.32.6-1.32 1.32 0 .72.6 1.32 1.32 1.32zM218.2 770v-1.776h-7.848c4.464-3.528 7.776-6.504 7.776-9.768 0-3.192-2.712-4.704-5.376-4.704-2.256 0-4.344.888-5.568 2.52l1.224 1.272c.936-1.2 2.424-2.016 4.344-2.016 1.656 0 3.36.864 3.36 2.928 0 2.76-3.144 5.424-8.904 9.936V770H218.2zm6.432-8.352c2.304 0 3.864-1.704 3.864-3.912 0-2.28-1.56-3.984-3.864-3.984-2.28 0-3.864 1.704-3.864 3.984 0 2.208 1.584 3.912 3.864 3.912zm-.216 8.352l10.248-16.008h-1.344L223.096 770h1.32zm.216-9.576c-1.416 0-2.424-1.176-2.424-2.688 0-1.584 1.008-2.76 2.424-2.76 1.44 0 2.424 1.176 2.424 2.76 0 1.512-.984 2.688-2.424 2.688zm8.352 9.864c2.28 0 3.84-1.704 3.84-3.936s-1.56-3.96-3.84-3.96-3.864 1.728-3.864 3.96 1.584 3.936 3.864 3.936zm0-1.224c-1.464 0-2.448-1.176-2.448-2.712 0-1.56.984-2.736 2.448-2.736 1.44 0 2.424 1.176 2.424 2.736 0 1.536-.984 2.712-2.424 2.712zM191.688 796.192c2.352 0 3.824-1.824 3.824-4.064s-1.472-4.048-3.824-4.048-3.824 1.808-3.824 4.048 1.472 4.064 3.824 4.064zm0-1.072c-1.648 0-2.56-1.408-2.56-2.992 0-1.568.912-2.976 2.56-2.976 1.648 0 2.56 1.408 2.56 2.976 0 1.584-.912 2.992-2.56 2.992zM199 796v-6.672h1.568v-1.056H199v-.592c0-.992.432-1.52 1.232-1.52.384 0 .688.144.944.368l.496-.768c-.48-.448-1.008-.592-1.632-.592-1.36 0-2.24.928-2.24 2.512v.592h-1.28v1.056h1.28V796h1.2zm9.424.192c1.04 0 1.936-.368 2.56-1.072v.88h1.2v-5.312c0-1.872-1.344-2.608-2.992-2.608-1.264 0-2.256.416-3.088 1.28l.56.832c.688-.752 1.44-1.072 2.368-1.072 1.12 0 1.952.592 1.952 1.616v1.392c-.624-.704-1.504-1.04-2.56-1.04-1.312 0-2.688.8-2.688 2.544 0 1.68 1.392 2.56 2.688 2.56zm.448-.864c-1.136 0-1.92-.704-1.92-1.696 0-.976.784-1.68 1.92-1.68.832 0 1.648.32 2.112.944v1.472c-.464.64-1.28.96-2.112.96zm6.928 3.616v-4.112c.64.848 1.552 1.36 2.608 1.36 2.032 0 3.44-1.568 3.44-4.064 0-2.512-1.408-4.048-3.44-4.048a3.23 3.23 0 00-2.608 1.344v-1.152h-1.2v10.672h1.2zm2.304-3.824c-.944 0-1.888-.576-2.304-1.248v-3.488c.416-.672 1.36-1.232 2.304-1.232 1.552 0 2.48 1.264 2.48 2.976s-.928 2.992-2.48 2.992zm6.848 3.824v-4.112c.64.848 1.552 1.36 2.608 1.36 2.032 0 3.44-1.568 3.44-4.064 0-2.512-1.408-4.048-3.44-4.048a3.23 3.23 0 00-2.608 1.344v-1.152h-1.2v10.672h1.2zm2.304-3.824c-.944 0-1.888-.576-2.304-1.248v-3.488c.416-.672 1.36-1.232 2.304-1.232 1.552 0 2.48 1.264 2.48 2.976s-.928 2.992-2.48 2.992zm6.848.88v-10.672h-1.2V796h1.2zm3.008-8.832c.448 0 .8-.352.8-.8a.806.806 0 00-.8-.816.82.82 0 00-.816.816c0 .448.368.8.816.8zm.592 8.832v-7.728h-1.2V796h1.2zm5.808.192c1.408 0 2.24-.576 2.832-1.344l-.8-.736c-.512.688-1.168 1.008-1.968 1.008-1.632 0-2.672-1.28-2.672-2.992s1.04-2.976 2.672-2.976c.8 0 1.456.288 1.968.992l.8-.72c-.592-.768-1.424-1.344-2.832-1.344-2.304 0-3.856 1.76-3.856 4.048 0 2.288 1.552 4.064 3.856 4.064zm6.8 0c1.04 0 1.936-.368 2.56-1.072v.88h1.2v-5.312c0-1.872-1.344-2.608-2.992-2.608-1.264 0-2.256.416-3.088 1.28l.56.832c.688-.752 1.44-1.072 2.368-1.072 1.12 0 1.952.592 1.952 1.616v1.392c-.624-.704-1.504-1.04-2.56-1.04-1.312 0-2.688.8-2.688 2.544 0 1.68 1.392 2.56 2.688 2.56zm.448-.864c-1.136 0-1.92-.704-1.92-1.696 0-.976.784-1.68 1.92-1.68.832 0 1.648.32 2.112.944v1.472c-.464.64-1.28.96-2.112.96zm6.928.672v-5.648c.464-.624 1.344-1.2 2.288-1.2 1.04 0 1.744.416 1.744 1.792V796h1.184v-5.424c0-1.68-.848-2.496-2.448-2.496-1.168 0-2.224.656-2.768 1.312v-1.12h-1.2V796h1.2zm9.6.192c.688 0 1.12-.208 1.424-.496l-.352-.912c-.16.176-.464.336-.816.336-.512 0-.768-.416-.768-.992v-4.8h1.568v-1.056h-1.568v-2.112h-1.216v2.112h-1.28v1.056h1.28v5.056c0 1.152.576 1.808 1.728 1.808zm5.2 0c1.984 0 3.024-1.04 3.024-2.336 0-3.008-4.784-1.904-4.784-3.584 0-.688.656-1.216 1.712-1.216 1.008 0 1.84.416 2.304.976l.56-.832c-.608-.624-1.536-1.12-2.864-1.12-1.84 0-2.864 1.008-2.864 2.224 0 2.864 4.784 1.712 4.784 3.584 0 .768-.656 1.328-1.84 1.328-1.056 0-2.032-.512-2.544-1.104l-.608.864c.784.816 1.84 1.216 3.12 1.216zm10.32 2.752v-4.112c.64.848 1.552 1.36 2.608 1.36 2.032 0 3.44-1.568 3.44-4.064 0-2.512-1.408-4.048-3.44-4.048a3.23 3.23 0 00-2.608 1.344v-1.152h-1.2v10.672h1.2zm2.304-3.824c-.944 0-1.888-.576-2.304-1.248v-3.488c.416-.672 1.36-1.232 2.304-1.232 1.552 0 2.48 1.264 2.48 2.976s-.928 2.992-2.48 2.992zm7.92 1.072c1.04 0 1.936-.368 2.56-1.072v.88h1.2v-5.312c0-1.872-1.344-2.608-2.992-2.608-1.264 0-2.256.416-3.088 1.28l.56.832c.688-.752 1.44-1.072 2.368-1.072 1.12 0 1.952.592 1.952 1.616v1.392c-.624-.704-1.504-1.04-2.56-1.04-1.312 0-2.688.8-2.688 2.544 0 1.68 1.392 2.56 2.688 2.56zm.448-.864c-1.136 0-1.92-.704-1.92-1.696 0-.976.784-1.68 1.92-1.68.832 0 1.648.32 2.112.944v1.472c-.464.64-1.28.96-2.112.96zm8.192.864c1.984 0 3.024-1.04 3.024-2.336 0-3.008-4.784-1.904-4.784-3.584 0-.688.656-1.216 1.712-1.216 1.008 0 1.84.416 2.304.976l.56-.832c-.608-.624-1.536-1.12-2.864-1.12-1.84 0-2.864 1.008-2.864 2.224 0 2.864 4.784 1.712 4.784 3.584 0 .768-.656 1.328-1.84 1.328-1.056 0-2.032-.512-2.544-1.104l-.608.864c.784.816 1.84 1.216 3.12 1.216zm7.44 0c1.984 0 3.024-1.04 3.024-2.336 0-3.008-4.784-1.904-4.784-3.584 0-.688.656-1.216 1.712-1.216 1.008 0 1.84.416 2.304.976l.56-.832c-.608-.624-1.536-1.12-2.864-1.12-1.84 0-2.864 1.008-2.864 2.224 0 2.864 4.784 1.712 4.784 3.584 0 .768-.656 1.328-1.84 1.328-1.056 0-2.032-.512-2.544-1.104l-.608.864c.784.816 1.84 1.216 3.12 1.216z"/>
    </g>
    <g stroke="#204ECF" transform="translate(7 965)">
      <ellipse cx="42.5" cy="42" opacity=".25" rx="38.5" ry="38"/>
      <ellipse cx="42.5" cy="42" fill="#FFF" fill-rule="nonzero" rx="42.5" ry="42" stroke-width="2"/>
      <circle cx="56.5" cy="23.5" opacity=".5" r="10.5"/>
      <path d="M61 21l-5.333 5L53 23.5M57 36.423v17.651L49.915 61H18V23h27.024"/>
      <path d="M61 36v23.143L53.915 66H22v-2.633M65.5 31v8" opacity=".5"/>
      <path d="M66 39v24.097L58.915 70H27v-2.65" opacity=".5"/>
      <path d="M50 56l-6.42-2.523-.763-3.754c1.144-1.785 1.462-3.877 1.462-3.877h.063s0 0 0 0c2.289-.123 2.416-5.354 1.272-5.354h-.318v-5.907c0-3.631-3.052-6.585-6.866-6.585h-6.929s0 0 0 0c-.254 0-.508.062-.763.123h0c-.063 0-.19.062-.254.062h0c-.7.246-1.271.615-1.716 1.169h0l-.064.061h0c-.254.308-.445.739-.636 1.108-.381 1.292-.063 2.646.827 3.57a5.03 5.03 0 00-.254 1.66v4.74h-.318c-1.145 0-1.017 5.23 1.271 5.353 0 0 0 0 0 0h.127s.318 2.092 1.462 3.877l-.762 3.754L24 56" stroke-linecap="round" stroke-linejoin="round"/>
    </g>
    <g fill="#204ECF" fill-rule="nonzero">
      <path d="M136.788 1000.216c2.646 0 4.266-1.458 4.266-3.456 0-1.944-1.692-2.862-2.772-2.97 1.116-.18 2.574-1.044 2.574-2.79 0-2.016-1.746-3.186-4.05-3.186-1.872 0-3.258.792-4.122 1.854l.828.936c.882-.954 1.854-1.458 3.168-1.458 1.458 0 2.682.72 2.682 2.052 0 1.386-1.278 1.98-2.79 1.98h-.494a11.895 11.895 0 01-.748-.018v1.368c.18-.018.738-.018 1.242-.018 1.764 0 2.988.63 2.988 2.124 0 1.368-1.062 2.25-2.808 2.25-1.422 0-2.646-.648-3.348-1.584l-.882.936c.738 1.08 2.232 1.98 4.266 1.98zm7.308-.036c.54 0 .99-.45.99-.99s-.45-.99-.99-.99-.99.45-.99.99.45.99.99.99zm7.038.036c3.276 0 4.59-3.294 4.59-6.21 0-2.934-1.314-6.192-4.59-6.192-3.294 0-4.59 3.258-4.59 6.192 0 2.916 1.296 6.21 4.59 6.21zm0-1.332c-2.286 0-3.06-2.484-3.06-4.878s.774-4.86 3.06-4.86 3.06 2.466 3.06 4.86-.774 4.878-3.06 4.878zm8.964-5.148c1.728 0 2.898-1.278 2.898-2.934 0-1.71-1.17-2.988-2.898-2.988-1.71 0-2.898 1.278-2.898 2.988 0 1.656 1.188 2.934 2.898 2.934zm-.162 6.264l7.686-12.006h-1.008L158.946 1000h.99zm.162-7.182c-1.062 0-1.818-.882-1.818-2.016 0-1.188.756-2.07 1.818-2.07 1.08 0 1.818.882 1.818 2.07 0 1.134-.738 2.016-1.818 2.016zm6.264 7.398c1.71 0 2.88-1.278 2.88-2.952s-1.17-2.97-2.88-2.97-2.898 1.296-2.898 2.97c0 1.674 1.188 2.952 2.898 2.952zm0-.918c-1.098 0-1.836-.882-1.836-2.034 0-1.17.738-2.052 1.836-2.052 1.08 0 1.818.882 1.818 2.052 0 1.152-.738 2.034-1.818 2.034zM136.688 1027.192c2.352 0 3.824-1.824 3.824-4.064s-1.472-4.048-3.824-4.048-3.824 1.808-3.824 4.048 1.472 4.064 3.824 4.064zm0-1.072c-1.648 0-2.56-1.408-2.56-2.992 0-1.568.912-2.976 2.56-2.976 1.648 0 2.56 1.408 2.56 2.976 0 1.584-.912 2.992-2.56 2.992zm7.312.88v-6.672h1.568v-1.056H144v-.592c0-.992.432-1.52 1.232-1.52.384 0 .688.144.944.368l.496-.768c-.48-.448-1.008-.592-1.632-.592-1.36 0-2.24.928-2.24 2.512v.592h-1.28v1.056h1.28V1027h1.2zm9.424.192c1.04 0 1.936-.368 2.56-1.072v.88h1.2v-5.312c0-1.872-1.344-2.608-2.992-2.608-1.264 0-2.256.416-3.088 1.28l.56.832c.688-.752 1.44-1.072 2.368-1.072 1.12 0 1.952.592 1.952 1.616v1.392c-.624-.704-1.504-1.04-2.56-1.04-1.312 0-2.688.8-2.688 2.544 0 1.68 1.392 2.56 2.688 2.56zm.448-.864c-1.136 0-1.92-.704-1.92-1.696 0-.976.784-1.68 1.92-1.68.832 0 1.648.32 2.112.944v1.472c-.464.64-1.28.96-2.112.96zm6.928 3.616v-4.112c.64.848 1.552 1.36 2.608 1.36 2.032 0 3.44-1.568 3.44-4.064 0-2.512-1.408-4.048-3.44-4.048a3.23 3.23 0 00-2.608 1.344v-1.152h-1.2v10.672h1.2zm2.304-3.824c-.944 0-1.888-.576-2.304-1.248v-3.488c.416-.672 1.36-1.232 2.304-1.232 1.552 0 2.48 1.264 2.48 2.976s-.928 2.992-2.48 2.992zm6.848 3.824v-4.112c.64.848 1.552 1.36 2.608 1.36 2.032 0 3.44-1.568 3.44-4.064 0-2.512-1.408-4.048-3.44-4.048a3.23 3.23 0 00-2.608 1.344v-1.152h-1.2v10.672h1.2zm2.304-3.824c-.944 0-1.888-.576-2.304-1.248v-3.488c.416-.672 1.36-1.232 2.304-1.232 1.552 0 2.48 1.264 2.48 2.976s-.928 2.992-2.48 2.992zm6.848.88v-10.672h-1.2V1027h1.2zm3.008-8.832c.448 0 .8-.352.8-.8a.806.806 0 00-.8-.816.82.82 0 00-.816.816c0 .448.368.8.816.8zm.592 8.832v-7.728h-1.2V1027h1.2zm5.808.192c1.408 0 2.24-.576 2.832-1.344l-.8-.736c-.512.688-1.168 1.008-1.968 1.008-1.632 0-2.672-1.28-2.672-2.992s1.04-2.976 2.672-2.976c.8 0 1.456.288 1.968.992l.8-.72c-.592-.768-1.424-1.344-2.832-1.344-2.304 0-3.856 1.76-3.856 4.048 0 2.288 1.552 4.064 3.856 4.064zm6.8 0c1.04 0 1.936-.368 2.56-1.072v.88h1.2v-5.312c0-1.872-1.344-2.608-2.992-2.608-1.264 0-2.256.416-3.088 1.28l.56.832c.688-.752 1.44-1.072 2.368-1.072 1.12 0 1.952.592 1.952 1.616v1.392c-.624-.704-1.504-1.04-2.56-1.04-1.312 0-2.688.8-2.688 2.544 0 1.68 1.392 2.56 2.688 2.56zm.448-.864c-1.136 0-1.92-.704-1.92-1.696 0-.976.784-1.68 1.92-1.68.832 0 1.648.32 2.112.944v1.472c-.464.64-1.28.96-2.112.96zm6.928.672v-5.648c.464-.624 1.344-1.2 2.288-1.2 1.04 0 1.744.416 1.744 1.792V1027h1.184v-5.424c0-1.68-.848-2.496-2.448-2.496-1.168 0-2.224.656-2.768 1.312v-1.12h-1.2V1027h1.2zm9.6.192c.688 0 1.12-.208 1.424-.496l-.352-.912c-.16.176-.464.336-.816.336-.512 0-.768-.416-.768-.992v-4.8h1.568v-1.056h-1.568v-2.112h-1.216v2.112h-1.28v1.056h1.28v5.056c0 1.152.576 1.808 1.728 1.808zm5.2 0c1.984 0 3.024-1.04 3.024-2.336 0-3.008-4.784-1.904-4.784-3.584 0-.688.656-1.216 1.712-1.216 1.008 0 1.84.416 2.304.976l.56-.832c-.608-.624-1.536-1.12-2.864-1.12-1.84 0-2.864 1.008-2.864 2.224 0 2.864 4.784 1.712 4.784 3.584 0 .768-.656 1.328-1.84 1.328-1.056 0-2.032-.512-2.544-1.104l-.608.864c.784.816 1.84 1.216 3.12 1.216zm10.32 2.752v-4.112c.64.848 1.552 1.36 2.608 1.36 2.032 0 3.44-1.568 3.44-4.064 0-2.512-1.408-4.048-3.44-4.048a3.23 3.23 0 00-2.608 1.344v-1.152h-1.2v10.672h1.2zm2.304-3.824c-.944 0-1.888-.576-2.304-1.248v-3.488c.416-.672 1.36-1.232 2.304-1.232 1.552 0 2.48 1.264 2.48 2.976s-.928 2.992-2.48 2.992zm7.92 1.072c1.04 0 1.936-.368 2.56-1.072v.88h1.2v-5.312c0-1.872-1.344-2.608-2.992-2.608-1.264 0-2.256.416-3.088 1.28l.56.832c.688-.752 1.44-1.072 2.368-1.072 1.12 0 1.952.592 1.952 1.616v1.392c-.624-.704-1.504-1.04-2.56-1.04-1.312 0-2.688.8-2.688 2.544 0 1.68 1.392 2.56 2.688 2.56zm.448-.864c-1.136 0-1.92-.704-1.92-1.696 0-.976.784-1.68 1.92-1.68.832 0 1.648.32 2.112.944v1.472c-.464.64-1.28.96-2.112.96zm8.192.864c1.984 0 3.024-1.04 3.024-2.336 0-3.008-4.784-1.904-4.784-3.584 0-.688.656-1.216 1.712-1.216 1.008 0 1.84.416 2.304.976l.56-.832c-.608-.624-1.536-1.12-2.864-1.12-1.84 0-2.864 1.008-2.864 2.224 0 2.864 4.784 1.712 4.784 3.584 0 .768-.656 1.328-1.84 1.328-1.056 0-2.032-.512-2.544-1.104l-.608.864c.784.816 1.84 1.216 3.12 1.216zm7.44 0c1.984 0 3.024-1.04 3.024-2.336 0-3.008-4.784-1.904-4.784-3.584 0-.688.656-1.216 1.712-1.216 1.008 0 1.84.416 2.304.976l.56-.832c-.608-.624-1.536-1.12-2.864-1.12-1.84 0-2.864 1.008-2.864 2.224 0 2.864 4.784 1.712 4.784 3.584 0 .768-.656 1.328-1.84 1.328-1.056 0-2.032-.512-2.544-1.104l-.608.864c.784.816 1.84 1.216 3.12 1.216z"/>
    </g>
  </g>
</svg>