<svg width="153" height="41" viewBox="0 0 153 41" fill="none" xmlns="http://www.w3.org/2000/svg">
<path d="M99.1482 16.9263H83.6456L81.2917 20.6222L78.9378 24.3181H90.8777C90.164 26.7306 88.8114 28.8129 86.9581 30.288C85.1101 31.7685 82.7669 32.6419 80.0828 32.6419C76.7118 32.6419 73.6869 31.2307 71.5034 28.9726C69.3199 26.7146 67.9779 23.6045 67.9779 20.2068C67.9779 16.8091 69.3359 13.7949 71.5354 11.5635C73.7401 9.33211 76.7916 7.93149 80.1893 7.93149C81.6698 7.93149 83.0385 8.16582 84.2953 8.59186C85.5575 9.0179 86.7078 9.63034 87.7462 10.3972L89.8285 7.08474L91.9108 3.77226C90.3238 2.64858 88.5291 1.77519 86.5693 1.17873C84.6095 0.582272 82.49 0.268066 80.2426 0.268066C77.255 0.268066 74.5443 0.816595 72.1318 1.80714C69.7194 2.79769 67.6104 4.23558 65.8317 6.01963C61.5873 10.2641 60.3944 14.5511 59.5476 18.4973C58.7008 22.4435 58.1896 26.0436 55.3138 28.9194C54.1102 30.1229 52.7789 31.0443 51.3303 31.6567C49.8765 32.2745 48.3054 32.5887 46.6066 32.5887C43.129 32.5887 39.9923 31.1667 37.7236 28.9034C35.4549 26.6454 34.0597 23.5512 34.0597 20.2068C34.0597 16.8624 35.4549 13.8535 37.7236 11.6008C39.9923 9.34808 43.1237 7.91019 46.6066 7.88356C48.0605 7.91019 49.4131 8.12854 50.6593 8.53328C51.9055 8.93802 53.0398 9.52382 54.057 10.2907L56.1659 6.97822L58.2748 3.66575C56.6878 2.54206 54.8931 1.69531 52.9333 1.12548C50.9735 0.555645 48.854 0.268066 46.6066 0.268066C43.1556 0.268066 39.939 1.10417 37.1272 2.56337C34.3206 4.02256 31.9241 6.10484 30.1134 8.59718C29.3998 6.40307 27.9353 4.52848 25.9276 3.20243C23.9199 1.87105 21.3743 1.09352 18.4985 1.09352H0.599396V39.4426H20.3731C22.8654 39.4426 25.0861 38.8568 26.9341 37.8343C28.7821 36.8118 30.2626 35.3633 31.2744 33.6378C33.1117 35.6668 35.3538 37.3231 37.9047 38.4734C40.4503 39.6237 43.2994 40.2681 46.3403 40.2681C49.9297 40.2681 53.1996 39.432 56.0381 37.9408C58.8713 36.4497 61.2677 34.2982 63.1051 31.6673C64.8572 34.2715 67.2536 36.4177 70.1081 37.9195C72.9626 39.4213 76.2751 40.2681 79.8645 40.2681C85.3711 40.2681 90.2599 38.0207 93.7694 34.3993C97.2843 30.778 99.4198 25.7773 99.4198 20.2707C99.4198 19.6956 99.3932 19.1364 99.3452 18.5772C99.2973 18.0234 99.2281 17.4748 99.1482 16.9263ZM8.92851 12.4049V8.21375H18.4079C19.6115 8.21375 20.6819 8.65044 21.4488 9.39069C22.2157 10.1309 22.679 11.1694 22.679 12.3783C22.679 13.5872 22.2157 14.6363 21.4488 15.3925C20.6819 16.1488 19.6115 16.5961 18.4079 16.5961H8.92851V12.4049ZM23.4885 31.0496C22.6684 31.8378 21.5287 32.3171 20.2719 32.3171H8.92851V23.6098H20.2666C21.5287 23.6098 22.663 24.0732 23.4832 24.8507C24.3033 25.6229 24.8092 26.7093 24.8092 27.9395C24.8092 29.1697 24.3033 30.2667 23.4832 31.0549L23.4885 31.0496Z" fill="#262D3D"/>
<path d="M114.305 0.832474H106.205L117.468 18.5292C118.144 19.5943 118.144 20.947 117.468 22.0121L106.205 39.7088H114.305C115.828 39.7088 117.25 38.9313 118.07 37.6425L129.126 20.2706L118.07 2.89345C117.25 1.60467 115.833 0.827148 114.305 0.827148V0.832474Z" fill="#262D3D"/>
<path d="M140.783 18.5292L152.047 0.83252H143.946C142.423 0.83252 141.001 1.61005 140.187 2.89882L129.131 20.2707L140.187 37.6425C141.007 38.9313 142.423 39.7088 143.946 39.7088H152.047L140.783 22.0121C140.107 20.947 140.107 19.5943 140.783 18.5292Z" fill="#262D3D"/>
</svg>
