<?xml version="1.0" encoding="utf-8"?>
<svg xmlns="http://www.w3.org/2000/svg" id="Layer_2" viewBox="0 0 64 64">
  <defs>
    <style>.cls-1{fill:none;}.cls-2{fill:#183a9e;}.cls-3{fill:#204ecf;}.cls-4{opacity:.15;}</style>
  </defs>
  <g id="Icons">
    <g>
      <rect class="cls-1" height="64" width="64"/>
      <g class="cls-4">
        <polygon class="cls-2" points="26 39.8 26 57 1 57 1 63 48.5 63 26 39.8"/>
      </g>
      <polygon class="cls-3" points="49 64 0 64 0 0 49 0 49 13.5 48 13.5 48 1 1 1 1 63 48 63 48 62.5 49 62.5 49 64"/>
      <path class="cls-3" d="m48.5,63.21l-12.19-12.22c-.12-.11-.26-.25-.4-.39l-10.77-10.79,16.85-16.79-7.68-7.7,5.96-5.94,12.27,12.3c.07.06.17.16.27.26l10.75,10.78-16.91,16.86,7.74,7.76-5.89,5.87Zm-21.95-23.4l10.04,10.06c.16.16.29.29.41.4l11.5,11.53,4.47-4.46-7.74-7.76,16.91-16.86-10.04-10.07c-.09-.09-.17-.17-.25-.24l-11.58-11.61-4.54,4.52,7.68,7.7-16.85,16.79Zm14.45,4.56c-.13,0-.25-.02-.38-.06-.27-.08-.46-.21-.76-.52l-3.05-3.06c-.3-.3-.44-.5-.52-.76-.08-.25-.08-.51,0-.76.08-.27.21-.46.52-.76l9.62-9.6c.31-.31.52-.45.79-.52.22-.07.48-.07.73,0,.26.08.46.21.76.52l3.05,3.06c.31.31.45.52.52.79.07.23.07.48,0,.73-.08.27-.21.46-.52.76l-9.62,9.6c-.31.32-.52.44-.75.51h0c-.13.04-.25.06-.38.06Zm6.57-15.1s-.05,0-.08.01c-.06.02-.12.03-.35.26l-9.62,9.6c-.23.23-.25.29-.27.35-.02.06-.02.11,0,.16.02.05.04.12.27.35l3.05,3.06c.23.23.29.25.35.27.06.02.11.02.16,0,.06-.02.13-.04.34-.26l9.63-9.61c.23-.23.25-.29.27-.35.02-.06.02-.11,0-.16-.02-.06-.03-.12-.26-.35l-3.05-3.06c-.23-.23-.29-.25-.35-.27-.03,0-.06-.01-.08-.01Z"/>
      <rect class="cls-3" height="1" width="13" x="8" y="33"/>
      <rect class="cls-3" height="1" width="18.54" x="8" y="40"/>
      <rect class="cls-3" height="1" width="22.53" x="8" y="44"/>
      <rect class="cls-3" height="1" width="8" x="8" y="48"/>
    </g>
  </g>
</svg>