<?xml version="1.0" encoding="utf-8"?>
<svg xmlns="http://www.w3.org/2000/svg" height="16" viewBox="0 0 124 16" width="124">
  <g fill="#fff">
    <path d="m33 7.93542601c0 2.86995519 2.345431 8.06457399 11.1996111 8.06457399 8.212573 0 10.8003889-3.7524664 10.8003889-5.503139h-6.3519119s-.3065457 2.2887892-3.8710304 2.2887892c-3.5644848 0-4.5482826-3.006278-4.5482826-4.74977576s.9837978-4.57757848 4.5482826-4.57757848c3.5644847 0 3.8710304 2.00896861 3.8710304 2.00896861h6.3519119c0-1.73632287-1.9034349-5.46726457-10.8003889-5.46726457-8.8541801.00717489-11.1996111 5.54618834-11.1996111 7.93542601zm69 0c0 2.86995519 2.345431 8.06457399 11.235256 8.06457399 8.176928 0 10.764744-3.7524664 10.764744-5.503139h-6.351912s-.306546 2.2887892-3.87103 2.2887892c-3.564485 0-4.548283-3.006278-4.548283-4.74977576s.983798-4.57757848 4.548283-4.57757848c3.564484 0 3.87103 2.00896861 3.87103 2.00896861h6.351912c0-1.73632287-1.910564-5.46726457-10.764744-5.46726457-8.889825.00717489-11.235256 5.54618834-11.235256 7.93542601zm-28.8686229-7.93542601h5.8686229v15h-8.7002334l-7.4384795-9.58372311v9.58372311h-5.8612871v-15h8.5535178l7.5778593 9.45743686zm23.1127262 7.01590271s3.7558967.60336764 3.7558967 3.44480819c0 2.8414406-2.1980532 4.5392891-7.6540621 4.5392891h-11.3459379v-15h11.3459379c.953201 0 7.1134406.2666043 7.1134406 3.54303087-.032299 1.79096158-1.4098144 3.27883863-3.2152752 3.47287184zm-9.3186072-4.11131899v2.23807297h4.5454885c.7753651 0 1.4155747-.49812909 1.4155747-1.10149673 0-.63844714-.6402096-1.13657624-1.4155747-1.13657624zm4.6735305 8.52432178c1.017222 0 1.8281542-.6103835 1.8281542-1.3751169 0-.76473341-.8109322-1.36810104-1.8281542-1.36810104h-4.7090977v2.74321794z"/>
    <path d="m8.29497643 5.99950112 3.70502357 9.00049888-7.6454138-5.56113182c-1.92136053-1.35160495-1.53228502-3.65868409-.4739356-4.6787633 1.50986916-1.34990482 3.63617482-.88066838 4.41432583 1.23939624z"/>
    <path d="m13.9603811 3.619391-1.492392 10.380609-4.23995123-9.8727c-.91880362-2.46773715 1.14540645-4.07728324 2.52095643-4.11231145 1.5755977-.16463257 3.556602 1.02632645 3.2113868 3.60440245z"/>
    <path d="m20.7782919 4.11446576-4.2028239 9.88553424-1.3362191-8.9198972c-.1164999-1.36623646.7395982-1.39072726 1.0502647-1.6478806-.0494242-.19942504-.4783558-.19942504-.4783558-.19942504h-.8084391c-.0829621-2.31612941 1.7492644-3.33949475 3.2372865-3.22403815 1.5974614.05947764 3.39615 1.89978591 2.5382867 4.10570675z"/>
    <path d="m24.7155743 9.38265253-7.7155743 5.61734747 3.6350362-8.93311914c1.1008414-2.82062554 3.6592483-2.2691352 4.5728498-1.18664331.99108 1.04834387 1.2816247 3.17747223-.4923117 4.50241498z"/>
    <path d="m26.2846027 16h-9.2846027l7.5393261-5.458446c1.856248-1.27375387 3.8184232-.1153193 4.3312453 1.5568103.5430871 1.8625811-.6809605 3.9016357-2.5859687 3.9016357z"/>
    <path d="m.13336292 12.0009447c.69951054-1.9125917 2.64778931-2.59069239 4.38070564-1.4327051l7.48593144 5.4317604h-9.0836202c-1.89318605 0-3.3790199-1.7960975-2.78301688-3.9990553z"/>
  </g>
</svg>