<?xml version="1.0" encoding="utf-8"?>
<svg xmlns="http://www.w3.org/2000/svg" viewBox="0 0 372 205">
  <defs>
    <path d="M71.748 83.318c2.633 0 4.469-1.671 4.469-4.229 0-2.532-1.836-4.215-4.482-4.215h-3.33v8.444h3.343zm-.013-1.583h-1.532v-5.279h1.545c1.722 0 2.633 1.152 2.633 2.633 0 1.444-.975 2.646-2.646 2.646zm11.736 1.583v-1.583h-4.178v-1.924h4.09v-1.582h-4.09v-1.773h4.178v-1.582h-5.976v8.444h5.976zm4.418.152c2.266 0 3.38-1.165 3.38-2.71 0-3.152-4.848-2.253-4.848-3.582 0-.507.43-.836 1.19-.836.86 0 1.772.291 2.456.924l1-1.342c-.836-.772-1.95-1.177-3.292-1.177-1.987 0-3.203 1.165-3.203 2.57 0 3.178 4.862 2.152 4.862 3.62 0 .494-.469.938-1.469.938a3.71 3.71 0 01-2.684-1.152l-.987 1.405c.797.797 1.962 1.342 3.595 1.342zm6.38-.152v-8.444h-1.797v8.444h1.798zm5.774.152c1.52 0 2.722-.62 3.583-1.583v-3.24H99.6v1.57h2.228v1.012c-.342.316-1.038.646-1.785.646-1.545 0-2.659-1.178-2.659-2.773 0-1.595 1.114-2.772 2.659-2.772.886 0 1.608.506 2 1.1l1.481-.81c-.633-1-1.734-1.886-3.481-1.886-2.481 0-4.507 1.697-4.507 4.368 0 2.659 2.026 4.368 4.507 4.368zm6.811-.152V77.81l4.026 5.507h1.734v-8.444h-1.797v5.304l-3.912-5.304h-1.849v8.444h1.798z" id="a"/>
    <path d="M280.748 83.318c2.633 0 4.469-1.671 4.469-4.229 0-2.532-1.836-4.215-4.482-4.215h-3.33v8.444h3.343zm-.013-1.583h-1.532v-5.279h1.545c1.722 0 2.633 1.152 2.633 2.633 0 1.444-.975 2.646-2.646 2.646zm11.736 1.583v-1.583h-4.178v-1.924h4.09v-1.582h-4.09v-1.773h4.178v-1.582h-5.976v8.444h5.976zm6.026 0l3.254-8.444h-2.039l-2.342 6.482-2.342-6.482h-2.038l3.254 8.444h2.253z" id="b"/>
  </defs>
  <g fill="none" fill-rule="evenodd">
    <path d="M0 0h372v205H0z"/>
    <path d="M146.943 53.714v-10.41c-.565-8.18-7.311-14.635-15.663-14.986h-24.916c-8.915.281-15.947 7.53-15.791 16.275.155 8.746 7.442 15.749 16.361 15.725h45.636l-5.627-6.604z" fill="#EBECED" fill-rule="nonzero"/>
    <path d="M250.648 112.515v9.756c.512 7.678 6.62 13.732 14.173 14.047h22.508c8.052-.276 14.395-7.086 14.238-15.287-.156-8.202-6.754-14.756-14.811-14.713H245.57l5.078 6.197z" fill="#D5EEFB" fill-rule="nonzero"/>
    <path d="M152.39 119.263v7.795c-.41 6.149-5.432 11.003-11.648 11.26H122.23c-6.597-.248-11.78-5.68-11.658-12.217.122-6.537 5.503-11.776 12.104-11.783h33.894l-4.18 4.945z" fill="#EBECED" fill-rule="nonzero"/>
    <path d="M174.886 123.18v10.197a8.118 8.118 0 01-4.076 7.051l-29.24 16.585c31.283 28.406 78.717 28.406 110 0l-29.248-16.576a8.118 8.118 0 01-4.076-7.052v-17.067" stroke="#204ECF"/>
    <path d="M229.711 73.07h0l.932-8.51c.455-3.602.34-7.252-.342-10.817a34.586 34.586 0 00-10.39-18.272 25.032 25.032 0 001.751-9.153h-25.12c-16.296.003-30.37 11.447-33.76 27.45a34.542 34.542 0 00-.34 10.817l.939 8.51h0a4.881 4.881 0 00-5.157.84 4.928 4.928 0 00-1.465 5.036l3.794 13.34a3.63 3.63 0 002.522 2.528 3.613 3.613 0 003.459-.864c1.393 5.919.854 11.64 3.87 16.984 5.326 9.489 15.332 15.359 26.18 15.359 10.849 0 20.855-5.87 26.18-15.359 2.974-5.344 2.487-11.065 3.871-16.984a3.604 3.604 0 003.434.838 3.621 3.621 0 002.505-2.503l3.793-13.339a4.928 4.928 0 00-1.452-5.083 4.88 4.88 0 00-5.204-.819z" stroke="#204ECF"/>
    <path d="M128.746 90.228V75.914c-.787-11.253-10.13-20.127-21.685-20.596H72.605c-12.419.282-22.267 10.303-22.03 22.416.236 12.113 10.468 21.76 22.889 21.581h63.106l-7.824-9.087z" fill="#D5EEFB" fill-rule="nonzero"/>
    <path d="M136.57 99.315H73.464c-12.421.18-22.653-9.468-22.89-21.581-.236-12.113 9.612-22.134 22.031-22.416h34.49c11.556.47 20.899 9.343 21.686 20.596" stroke="#25A9EF"/>
    <g fill-rule="nonzero">
      <use fill="#000" href="#a"/>
      <use fill="#25A9EF" href="#a"/>
    </g>
    <path d="M319.525 75.915c-.778-11.257-10.007-20.132-21.42-20.597h-17.433c-11.413.465-20.642 9.34-21.42 20.597V90.23l-7.682 9.088h45.722c6.154 0 12.034-2.514 16.246-6.947a21.846 21.846 0 005.987-16.456z" fill="#D2F5E6" fill-rule="nonzero"/>
    <path d="M251.57 99.315h45.504c12.205.18 22.26-9.468 22.492-21.581.232-12.113-9.445-22.134-21.649-22.416h-17.384c-11.358.465-20.543 9.34-21.317 20.596" stroke="#03B080"/>
    <g fill-rule="nonzero">
      <use fill="#000" href="#b"/>
      <use fill="#03B080" href="#b"/>
    </g>
  </g>
</svg>