<?xml version="1.0" encoding="utf-8"?>
<svg xmlns="http://www.w3.org/2000/svg" viewBox="0 0 372 235">
    <g fill="none" fill-rule="evenodd">
        <path d="M252.64 153.144L248.806 148a33.573 33.573 0 01-8.753 0l-3.879 5.004a38.241 38.241 0 01-6.174-1.977v5.504a42.4 42.4 0 007.007 2.366l3.5-4.512c2.616.342 5.266.342 7.883 0l3.447 4.615a29.331 29.331 0 007.03-2.204l.133-5.526a32.353 32.353 0 01-6.36 1.874zM215 128.48a34.559 34.559 0 01-2.653-8.069l-1.202-.411-.94.318a31.401 31.401 0 000 7.174l4.382 1.508.413-.52zM228.992 144.224a42.038 42.038 0 01-7.226-5.224l-6.425 1.756c-.093-.11-.178-.22-.27-.323l-1.071 1.47a39.96 39.96 0 004.384 6.003l5.785-1.58A33.746 33.746 0 00229 150l-.008-5.776zM277.923 121l-1.293.44a28.13 28.13 0 01-2.63 8.09l.338.47 4.474-1.523c.262-2.4.25-4.82-.036-7.217l-.853-.26zM273.523 140.906L267.391 139a35.878 35.878 0 01-7.249 5.007L260 150a31.062 31.062 0 005.075-3.709l5.525 1.714a32.434 32.434 0 004.4-5.934l-1.117-1.588-.36.423z" fill="#D2F5E6" fill-rule="nonzero" stroke="#D2F5E6"/>
        <path d="M170.793 84.041A35.838 35.838 0 01163.755 79l-6.014 1.88c-.265-.281-.509-.57-.738-.851L156 81.45a40.279 40.279 0 004.206 6.033l5.54-1.591A33.852 33.852 0 00171 90l-.207-5.959zM157 69.874a29.524 29.524 0 01-2.821-8.215L152.18 61a33.687 33.687 0 00.037 7.296L156.956 70l.044-.126zM220.47 61l-.595.195A32.871 32.871 0 01217 69.278l.54.722 4.265-1.364a30.281 30.281 0 00-.039-7.181L220.47 61zM210.452 79a31.254 31.254 0 01-6.404 5.331L204 90a28.085 28.085 0 004.006-3.307l4.995 1.74A32.895 32.895 0 00217 82.389l-.995-1.56L210.452 79zM195.294 93.072L191.452 88a40.74 40.74 0 01-8.745 0l-3.886 5.109A47.985 47.985 0 01172 90.96v5.552a41.793 41.793 0 007.007 2.377l3.492-4.525c2.619.343 5.272.343 7.89 0L193.838 99a28.91 28.91 0 007.03-2.215l.133-5.382c-1.88.68-3.79 1.167-5.706 1.669zM98 128.512a33.832 33.832 0 01-2.76-8.148L94.136 120l-.923.299a30.77 30.77 0 000 7.244l4.38 1.457.406-.488zM111.993 144.288a37.61 37.61 0 01-6.348-5.288l-5.643 1.778-.136-.186-.866 1.346a41.205 41.205 0 003.857 6.076l5.083-1.599A29.962 29.962 0 00112 150l-.007-5.712zM157.377 140.88l-6.07-1.88a35.42 35.42 0 01-7.159 4.94L144 150a31.385 31.385 0 005.188-3.747l5.462 1.69a32.003 32.003 0 004.35-5.891l-1.193-1.683a7.846 7.846 0 01-.43.512zM162.82 121l-1.29.457a28.437 28.437 0 01-2.53 8l.374.543 4.433-1.556c.257-2.36.257-4.741 0-7.101l-.987-.343zM136.389 153.11l-3.826-5.11a33.84 33.84 0 01-8.758 0l-3.862 5.015A37.612 37.612 0 01114 151.13v5.416a42.344 42.344 0 007.005 2.35l3.491-4.48c2.618.338 5.27.338 7.889 0l3.447 4.583a29.46 29.46 0 007.027-2.19l.141-5.598a32.688 32.688 0 01-6.611 1.897z" fill="#D5EEFB" fill-rule="nonzero" stroke="#D5EEFB"/>
        <path d="M120.697 76a31.676 31.676 0 00-7.636 2.449l-.153 6.394a34.999 34.999 0 00-7.032 4.979l-5.949-1.903a35.946 35.946 0 00-4.741 6.593l3.585 5.2a29.646 29.646 0 00-2.589 8.268l-5.963 2.095a37.667 37.667 0 000 8.113l5.818 2.117a36.742 36.742 0 002.574 8.245l-3.585 5.163a44.906 44.906 0 004.589 6.69l6.065-1.763a39.86 39.86 0 006.821 5.244v6.32a44.29 44.29 0 007.68 2.656l3.796-5.023c2.845.383 5.728.383 8.574 0l3.745 5.163a31.676 31.676 0 007.643-2.449l.153-6.394a34.75 34.75 0 007.01-5.016l5.956 1.903a36.292 36.292 0 004.741-6.593l-3.592-5.163a29.421 29.421 0 002.61-8.268l5.964-2.095a37.667 37.667 0 000-8.113l-5.818-2.117a36.355 36.355 0 00-2.567-8.245l3.585-5.163a44.906 44.906 0 00-4.588-6.69l-6.066 1.763a39.496 39.496 0 00-6.82-5.244v-6.343a44.946 44.946 0 00-7.615-2.64l-3.803 5.03a32.048 32.048 0 00-8.567 0L120.697 76z" stroke="#204ECF" stroke-linejoin="round"/>
        <path d="M170.793 203.041a35.838 35.838 0 01-7.038-5.041l-6.014 1.88c-.265-.281-.509-.57-.738-.851L156 200.45a40.664 40.664 0 004.206 6.04l5.54-1.59A33.364 33.364 0 00171 209l-.207-5.959zM220.47 180l-.595.195a32.871 32.871 0 01-2.875 8.083l.54.722 4.265-1.364a30.221 30.221 0 00-.039-7.174L220.47 180zM157 187.889a29.398 29.398 0 01-2.821-8.23L152.18 179a33.687 33.687 0 00.037 7.296l4.739 1.704.044-.111zM195.294 212.084l-3.842-5.047c-2.908.297-5.84.284-8.745-.037l-3.886 5.092a47.188 47.188 0 01-6.821-2.149v5.585a41.89 41.89 0 007.007 2.369l3.492-4.518c2.619.346 5.272.346 7.89 0l3.448 4.621a29.303 29.303 0 007.03-2.207l.133-5.364c-1.88.662-3.79 1.162-5.706 1.655zM210.439 198a31.005 31.005 0 01-6.391 5.335L204 209a28.546 28.546 0 003.998-3.304l5.01 1.738a33.132 33.132 0 003.992-6.04l-.993-1.566L210.44 198z" fill="#D5EEFB" fill-rule="nonzero" stroke="#D5EEFB"/>
        <path d="M215.318 199.68a32.268 32.268 0 004.621-6.672l-3.61-5.234a36.307 36.307 0 002.657-8.303l5.841-2.12c.266-2.729.225-5.48-.123-8.199l-5.898-1.98a30.053 30.053 0 00-2.824-8.265l3.495-5.33a37.189 37.189 0 00-4.816-6.523l-5.884 1.875a35.713 35.713 0 00-6.888-5.048l-.174-6.316a43.329 43.329 0 00-7.574-2.565l-3.783 5.152a38.318 38.318 0 00-8.498 0l-3.74-5.093a44.478 44.478 0 00-7.596 2.55l-.058 6.36a32.71 32.71 0 00-6.787 5.272l-6-1.831a32.268 32.268 0 00-4.62 6.671l3.61 5.234a36.255 36.255 0 00-2.65 8.303l-5.849 2.12a37.09 37.09 0 00.123 8.199l5.964 1.912a29.783 29.783 0 002.801 8.236l-3.523 5.338a37.189 37.189 0 004.816 6.523l5.884-1.883a35.099 35.099 0 006.888 5.049l.18 6.323a43.13 43.13 0 007.575 2.565l3.776-5.13c2.823.324 5.672.336 8.498.037l3.733 5.086a43.605 43.605 0 007.596-2.543l.057-6.36a32.502 32.502 0 006.787-5.279l5.993 1.868z" stroke="#204ECF" stroke-linejoin="round"/>
        <path d="M231 131l7.783-4.703c.768-.475 1.234-1.365 1.217-2.32V120M250 124v.696a2.335 2.335 0 001.221 2.046L259 131" stroke="#03B080"/>
        <path d="M237.507 115.885c.077.719.245 1.426.5 2.104a9.032 9.032 0 002.093 3.184h0c2.428 2.36 6.312 2.444 8.843.19h0a9.076 9.076 0 002.143-2.925c.387-.893.628-1.84.714-2.806l.2-3.388L237 110" stroke="#03B080"/>
        <path d="M256 127.396v-17.132a11.096 11.096 0 00-3.354-7.963A11.637 11.637 0 00244.504 99h0C238.15 99 233 104.03 233 110.235V130" stroke="#03B080"/>
        <path d="M172 73l7.9-4.462a2.185 2.185 0 001.1-1.912V62M192 64v2.216c-.003.844.418 1.623 1.101 2.035L201 73M177.777 49.656l-.25-2.294a9.747 9.747 0 01.093-2.95 9.394 9.394 0 012.734-4.934 6.921 6.921 0 01-.465-2.478h6.606c4.274-.002 7.97 3.07 8.874 7.375.182.973.211 1.969.086 2.95l-.243 2.294a1.259 1.259 0 011.353.23c.371.338.521.865.386 1.356l-.995 3.599a.967.967 0 01-.658.673.932.932 0 01-.902-.223c-.365 1.593-.236 3.142-1.016 4.58a8.337 8.337 0 01-1.174 1.63c-1.723 1.876-4.211 2.795-6.699 2.473-2.488-.322-4.678-1.846-5.897-4.103-.78-1.438-.652-2.95-1.017-4.58a.932.932 0 01-.902.223.967.967 0 01-.658-.673l-.995-3.6c-.117-.485.04-.997.408-1.324a1.259 1.259 0 011.331-.224h0zM114 133l7.899-4.745c.683-.412 1.104-1.19 1.101-2.033V124M134 121v4.613c.007.791.426 1.52 1.101 1.915L143 132" stroke="#25A9EF"/>
        <path d="M137.204 109.605l.243-2.29a9.489 9.489 0 00-.093-2.945 9.414 9.414 0 00-2.697-4.896 6.894 6.894 0 00.458-2.474h-6.633c-4.276.015-7.962 3.096-8.852 7.4a9.482 9.482 0 00-.086 2.945l.244 2.29a1.26 1.26 0 00-1.353.229 1.35 1.35 0 00-.386 1.354l.994 3.593c.092.326.34.58.659.672.318.092.659.007.901-.223.365 1.59.237 3.13 1.024 4.572a8.01 8.01 0 001.166 1.628 7.768 7.768 0 005.724 2.54 7.768 7.768 0 005.725-2.54c.445-.5.825-1.056 1.13-1.657.78-1.473.652-2.945 1.016-4.572.243.23.584.314.902.223a.966.966 0 00.658-.673l1.002-3.593a1.35 1.35 0 00-.387-1.359 1.26 1.26 0 00-1.359-.224h0zM200 191l-7.779-4.734c-.756-.464-1.223-1.333-1.221-2.274V180M182 183v.733a2.327 2.327 0 01-1.229 2.034L173 190" stroke="#25A9EF"/>
        <path d="M193.543 174.89a8.88 8.88 0 01-.5 2.107 9.112 9.112 0 01-2.1 3.187h0c-2.436 2.346-6.306 2.43-8.843.19h0a8.75 8.75 0 01-2.9-5.736l-.2-3.391L194 169" stroke="#25A9EF"/>
        <path d="M175 189v-19.822c0-2.966 1.212-5.81 3.37-7.906 2.157-2.097 5.083-3.274 8.134-3.272h0c6.349 0 11.496 5.005 11.496 11.178v17.063" stroke="#25A9EF"/>
        <path d="M181 113.99l4.137 3.01 6.863-5" stroke="#03B080"/>
        <path d="M236.704 76a31.552 31.552 0 00-7.638 2.449l-.153 6.394a34.803 34.803 0 00-7.034 4.979l-5.957-1.903a35.91 35.91 0 00-4.735 6.593l3.586 5.2a29.416 29.416 0 00-2.612 8.268l-5.957 2.095a37.202 37.202 0 00.036 8.113l5.82 2.117a36.714 36.714 0 002.567 8.245l-3.579 5.163a44.848 44.848 0 004.583 6.69l6.067-1.763a39.869 39.869 0 006.822 5.244v6.343a43.883 43.883 0 007.616 2.633l3.797-5.023c2.844.384 5.725.384 8.569 0l3.753 5.163a31.552 31.552 0 007.638-2.449l.153-6.394a34.804 34.804 0 007.077-5.016l5.958 1.903a35.91 35.91 0 004.735-6.593l-3.586-5.163a29.402 29.402 0 002.604-8.268l5.965-2.095c.28-2.697.268-5.418-.037-8.113l-5.819-2.117a36.735 36.735 0 00-2.575-8.245l3.586-5.163a44.905 44.905 0 00-4.59-6.69l-6.066 1.763a39.447 39.447 0 00-6.816-5.244v-6.343a44.74 44.74 0 00-7.616-2.64l-3.797 5.03a32.121 32.121 0 00-8.576 0L236.703 76z" stroke="#03B080" stroke-linejoin="round"/>
        <path d="M215.317 81.646a32.277 32.277 0 004.622-6.674l-3.61-5.235a36.322 36.322 0 002.657-8.305l5.841-2.12c.266-2.73.225-5.482-.122-8.202l-5.9-1.98a30.152 30.152 0 00-2.794-8.245l3.494-5.332a37.2 37.2 0 00-4.816-6.525l-5.885 1.883a35.094 35.094 0 00-6.896-5.02l-.195-6.296A43.334 43.334 0 00194.138 17l-3.783 5.131a38.315 38.315 0 00-8.5 0L178.123 17a44.477 44.477 0 00-7.596 2.55l-.058 6.363a32.506 32.506 0 00-6.787 5.28l-6-1.84a32.277 32.277 0 00-4.622 6.675l3.61 5.235a36.27 36.27 0 00-2.65 8.305l-5.849 2.12a37.1 37.1 0 00.123 8.202l5.957 1.972a29.924 29.924 0 002.802 8.246l-3.524 5.31a37.2 37.2 0 004.816 6.525l5.885-1.884a35.103 35.103 0 006.89 5.05l.18 6.325A43.128 43.128 0 00178.873 94l3.777-5.131c2.825.315 5.674.315 8.499 0l3.733 5.094a44.264 44.264 0 007.597-2.55l.057-6.363a32.714 32.714 0 006.788-5.272l5.993 1.868z" stroke="#204ECF" stroke-linejoin="round"/>
        <path d="M0 0h372v235H0z"/>
    </g>
</svg>