<?xml version="1.0" encoding="utf-8"?>
<svg xmlns="http://www.w3.org/2000/svg" viewBox="0 0 372 205">
    <g fill="none" fill-rule="evenodd">
        <path d="M196.535 79a35.582 35.582 0 01-21.067 0c-9.471 4.331-15.21 14.005-14.39 24.258.819 10.253 8.023 18.923 18.066 21.742a19.028 19.028 0 0113.708 0c10.043-2.817 17.25-11.487 18.07-21.74.821-10.252-4.916-19.927-14.387-24.26zm-2.111 24.971c-.162 2.724-1.622 5.219-3.949 6.751L185.504 114l-4.958-3.278c-2.325-1.533-3.781-4.028-3.94-6.75L176 93.997c6.283.79 9.504-2.998 9.504-2.998s3.213 3.788 9.496 2.998l-.576 9.973z" fill="#D2F5E6" fill-rule="nonzero"/>
        <path d="M240.488 141.607c-.732-.397-1.184-1.137-1.186-1.94V135a7.855 7.855 0 001.297-1.663c.865-1.471.746-3.049 1.126-4.683.266.24.643.329.995.236a1.02 1.02 0 00.727-.69l1.103-3.682a1.318 1.318 0 00-.427-1.386 1.478 1.478 0 00-1.496-.234l.268-2.345a8.868 8.868 0 00-.097-2.977 9.447 9.447 0 00-3.019-5.038 6.577 6.577 0 00.507-2.537h-7.29c-4.734 0-8.822 3.16-9.802 7.575a8.868 8.868 0 00-.097 2.977l.269 2.345a1.478 1.478 0 00-1.496.234c-.41.345-.576.884-.427 1.386l1.103 3.681c.098.336.374.598.726.69.352.094.73.004.996-.235.41 1.634.26 3.212 1.125 4.683.353.607.79 1.166 1.297 1.663v4.668c-.002.803-.454 1.543-1.185 1.94L217 146.155c9.1 7.793 22.9 7.793 32 0l-8.512-4.548z" fill="#EBECED" fill-rule="nonzero"/>
        <path d="M147.458 141.607c-.732-.397-1.184-1.137-1.185-1.94V135c.503-.5.939-1.06 1.297-1.663.857-1.471.745-3.049 1.118-4.683.267.239.645.328.998.235.353-.093.63-.354.731-.69l1.096-3.68a1.318 1.318 0 00-.426-1.382 1.478 1.478 0 00-1.49-.239l.268-2.345c.421-2.999-.746-6.002-3.115-8.015a6.72 6.72 0 00.506-2.537h-7.29c-4.734 0-8.822 3.16-9.802 7.575a8.868 8.868 0 00-.096 2.977l.268 2.345a1.478 1.478 0 00-1.496.234c-.41.345-.576.884-.427 1.386l1.103 3.681c.098.336.374.598.726.69.353.094.73.004.996-.235.402 1.634.26 3.212 1.125 4.683a7.867 7.867 0 001.327 1.663v4.668c-.002.805-.457 1.546-1.192 1.94L124 146.155c9.1 7.793 22.9 7.793 32 0l-8.542-4.548z" fill="#D5EEFB" fill-rule="nonzero"/>
        <path d="M221.06 156c18.578-12.209 29.54-33.393 28.915-55.876C249.349 77.641 237.227 57.121 218 46" stroke="#204ECF"/>
        <path d="M223 45.335c.004.186-.132.34-.305.348l-4.862.157 2.186 4.663a.356.356 0 01-.143.46.31.31 0 01-.429-.153l-2.409-5.14a.371.371 0 010-.329.328.328 0 01.267-.17l5.358-.171a.36.36 0 01.172.048.345.345 0 01.165.287z" fill="#204ECF" fill-rule="nonzero"/>
        <path d="M156 45c-20.12 10.866-32.99 31.23-33.943 53.714-.953 22.484 10.147 43.824 29.28 56.286" stroke="#204ECF"/>
        <path d="M145 154.445c.01-.188.156-.333.33-.33l4.856.206-1.904-4.832a.366.366 0 01.03-.35.307.307 0 01.3-.136c.115.017.212.1.254.218l2.094 5.3a.36.36 0 010 .328.317.317 0 01-.273.15l-5.35-.225a.236.236 0 01-.166-.062.344.344 0 01-.171-.267z" fill="#204ECF" fill-rule="nonzero"/>
        <path d="M105.241 172.664a3.472 3.472 0 01-1.785-3.041v-7.363a12.817 12.817 0 001.946-2.617c1.295-2.318 1.083-4.796 1.683-7.362a1.574 1.574 0 002.59-.731l1.646-5.783a2.127 2.127 0 00-2.876-2.515l.403-3.656a14.332 14.332 0 00-4.675-12.611c.494-1.27.742-2.623.731-3.985H93.93a15.025 15.025 0 00-14.697 11.902 14.854 14.854 0 00-.088 4.694l.41 3.656a2.137 2.137 0 00-2.883 2.551l1.654 5.783a1.572 1.572 0 002.582.731c.607 2.567.395 5.045 1.69 7.363a12.78 12.78 0 001.939 2.58v7.311a3.48 3.48 0 01-1.778 3.042L70 179.807c13.65 12.257 34.35 12.257 48 0l-12.759-7.143z" fill="#EBECED" fill-rule="nonzero"/>
        <path d="M289.241 172.665a3.472 3.472 0 01-1.785-3.042v-7.362a12.817 12.817 0 001.946-2.617c1.295-2.318 1.075-4.796 1.683-7.362a1.581 1.581 0 002.59-.731l1.646-5.783a2.127 2.127 0 00-2.868-2.515l.402-3.655a14.331 14.331 0 00-4.675-12.612c.494-1.27.742-2.622.732-3.984h-10.916a14.739 14.739 0 00-11.22 4.907 14.717 14.717 0 00-3.631 11.689l.41 3.655a2.137 2.137 0 00-2.883 2.551l1.654 5.783a1.572 1.572 0 002.582.731c.607 2.567.395 5.045 1.69 7.362.53.953 1.181 1.833 1.939 2.618v7.31a3.48 3.48 0 01-1.778 3.042L254 179.807c13.65 12.257 34.35 12.257 48 0l-12.759-7.142z" fill="#D5EEFB" fill-rule="nonzero"/>
        <path d="M195.463 57.866v3.247a3.39 3.39 0 001.785 2.963L210 71.046c-13.65 11.938-34.35 11.938-48 0l12.766-6.963a3.396 3.396 0 001.778-2.962V54" stroke="#25A9EF"/>
        <path d="M171.92 34.609l-.4-3.541a14.273 14.273 0 01.15-4.546 14.502 14.502 0 014.416-7.663A10.491 10.491 0 01175.37 15h10.63c6.932 0 12.919 4.807 14.36 11.529.29 1.498.338 3.033.142 4.546l-.393 3.54a2.093 2.093 0 012.191.357c.6.528.84 1.351.617 2.115l-1.608 5.594c-.146.511-.55.91-1.065 1.055a1.553 1.553 0 01-1.464-.346c-.593 2.485-.378 4.886-1.643 7.13a12.74 12.74 0 01-9.54 6.382c-4.022.5-8.045-.928-10.834-3.846a12.322 12.322 0 01-1.893-2.535c-1.271-2.245-1.057-4.646-1.65-7.131-.393.36-.946.491-1.461.346a1.53 1.53 0 01-1.06-1.055l-1.615-5.594a2.056 2.056 0 01.622-2.135 2.1 2.1 0 012.214-.343h0z" stroke="#25A9EF"/>
        <path d="M194.424 167.927v1.273c-.009 1.47.803 2.832 2.122 3.554L210 180.063c-13.65 11.916-34.35 11.916-48 0l13.454-7.351c1.319-.723 2.131-2.084 2.122-3.555V163" stroke="#204ECF"/>
        <path d="M173.77 152.885c.378 3.704 1.97 7.157 4.506 9.772h0c4.231 4.32 10.94 4.472 15.345.345h0c2.884-2.746 4.68-6.523 5.034-10.585l.345-6.264L173 142" stroke="#204ECF"/>
        <path d="M205 172v-28.986a19.007 19.007 0 00-5.563-13.452A18.978 18.978 0 00185.993 124h0c-10.49 0-18.993 8.51-18.993 19.007v28.986" stroke="#204ECF"/>
        <path d="M186.003 90s-3.05 3.953-9.003 3.129l.573 10.406c.151 2.841 1.531 5.445 3.734 7.045l4.696 3.42 4.69-3.42c2.204-1.6 3.587-4.203 3.74-7.045L195 93.13c-5.932.824-8.997-3.129-8.997-3.129z" stroke="#03B080"/>
        <path d="M0 0h372v205H0z" fill="none"/>
    </g>
</svg>