<?xml version="1.0" encoding="utf-8"?>
<svg xmlns="http://www.w3.org/2000/svg" viewBox="0 0 372 220">
    <g fill="none" fill-rule="evenodd">
        <path d="M247.427 54.412a2.12 2.12 0 01-1.042-1.838V48.13a7.79 7.79 0 001.134-1.578c.76-1.404.63-2.911.988-4.458.235.231.57.317.881.227a.938.938 0 00.64-.669l.966-3.503a1.317 1.317 0 00-.37-1.322c-.36-.329-.87-.413-1.31-.217l.235-2.233a9.36 9.36 0 00-.091-2.84 9.129 9.129 0 00-2.639-4.798c.287-.772.43-1.594.418-2.422h-6.38c-4.142 0-7.72 3.007-8.578 7.212a9.123 9.123 0 00-.084 2.84l.236 2.233a1.205 1.205 0 00-1.31.217c-.36.33-.504.844-.37 1.322l.958 3.535a.946.946 0 00.641.661c.31.09.643.007.88-.22.35 1.579.228 3.054.98 4.459a7.79 7.79 0 001.134 1.578v4.442a2.105 2.105 0 01-1.042 1.839l-7.407 4.316c7.963 7.421 20.037 7.421 28 0l-7.468-4.34z" fill="#D5EEFB" fill-rule="nonzero"/>
        <path d="M157.439 132.858l.476-4.1a15.688 15.688 0 00-.177-5.209c-.755-3.384-2.594-6.46-5.261-8.8.584-1.41.885-2.914.887-4.431h-12.709a18.282 18.282 0 00-3.76.408c3.395 12.194 11.424 22.744 22.521 29.592l1.38-4.624a2.299 2.299 0 00-.737-2.434 2.568 2.568 0 00-2.62-.402zM151.534 162.573v-8.238a14.582 14.582 0 002.186-2.933c1.342-2.396 1.249-4.948 1.764-7.585a56.45 56.45 0 01-8.259-6.76 55.596 55.596 0 01-14.417-24.74 16.895 16.895 0 00-8.453 11.273 16.508 16.508 0 00-.164 5.26l.452 4.138a2.403 2.403 0 00-2.536.398 2.383 2.383 0 00-.719 2.457l1.858 6.488a1.776 1.776 0 002.904.817c.687 2.87.445 5.655 1.897 8.254a14.582 14.582 0 002.185 2.933v8.238a3.888 3.888 0 01-1.998 3.407l-14.339 8.029c15.358 13.745 38.642 13.745 54 0l-14.355-8.029a3.888 3.888 0 01-2.006-3.407z" fill="#EBECED" fill-rule="nonzero"/>
        <path d="M240.895 161.893l9.575-9.575 30.425 30.424-9.575 9.576z" fill="#D2F5E6" fill-rule="nonzero"/>
        <path d="M280.807 182.702l-31.402-31.38a6.676 6.676 0 00-3.098-1.765 15.847 15.847 0 01-7.542-4.002l-1.495-1.494a15.352 15.352 0 01-2.323-18.523c13.825-24.24 7.557-54.965-14.659-71.858-22.215-16.894-53.513-14.734-73.195 5.05-19.683 19.786-21.667 51.08-4.64 73.19 17.026 22.111 47.8 28.202 71.972 14.247a15.137 15.137 0 0118.253 2.477l1.494 1.494a15.951 15.951 0 014.012 7.54 6.61 6.61 0 001.758 3.095l31.596 31.582a6.712 6.712 0 004.844 1.963 6.712 6.712 0 004.782-2.11 6.887 6.887 0 00-.357-9.506zM81.248 108.793v3.744a3.89 3.89 0 01-1.998 3.417L64.895 124c15.357 13.756 38.643 13.756 54 0l-14.355-8.032a3.89 3.89 0 01-2.006-3.417v-8.234" stroke="#204ECF"/>
        <path d="M108.519 83.776l.47-4.084c.23-1.728.17-3.48-.175-5.19-.744-3.374-2.561-6.441-5.2-8.775.578-1.403.875-2.898.878-4.406H91.925c-4.919-.086-9.632 1.892-12.914 5.42-3.283 3.527-4.81 8.254-4.183 12.95l.47 4.085a2.522 2.522 0 00-2.577.404 2.302 2.302 0 00-.732 2.413l1.898 6.403a1.78 1.78 0 001.262 1.176 1.86 1.86 0 001.704-.408c.702 2.84.455 5.581 1.938 8.153a14.639 14.639 0 002.233 2.894c2.827 2.877 6.76 4.507 10.873 4.507 4.113 0 8.045-1.63 10.872-4.507a14.639 14.639 0 002.233-2.894c1.483-2.572 1.244-5.313 1.938-8.153a1.86 1.86 0 001.704.408 1.78 1.78 0 001.262-1.176l1.898-6.403a2.302 2.302 0 00-.729-2.396 2.521 2.521 0 00-2.556-.421zM292.547 108.796v3.745a3.892 3.892 0 001.999 3.419l14.349 8.037c-15.356 13.761-38.644 13.761-54 0l14.357-8.03c1.243-.689 2.012-1.999 2.006-3.418v-8.231" stroke="#204ECF"/>
        <path d="M265.262 83.775l-.438-4.085c-.726-5.224 1.284-10.454 5.367-13.965a11.764 11.764 0 01-.87-4.407h12.568c8.158.003 15.203 5.499 16.897 13.182.343 1.71.4 3.463.168 5.19l-.463 4.085a2.522 2.522 0 012.578.404c.706.601.99 1.54.732 2.413l-1.89 6.403a1.789 1.789 0 01-1.267 1.176 1.869 1.869 0 01-1.708-.408c-.693 2.84-.446 5.582-1.937 8.153a14.329 14.329 0 01-2.225 2.895c-2.827 2.877-6.76 4.507-10.873 4.507-4.114 0-8.046-1.63-10.873-4.507a14.64 14.64 0 01-2.233-2.895c-1.491-2.571-1.244-5.312-1.938-8.153a1.869 1.869 0 01-1.707.408 1.789 1.789 0 01-1.267-1.176l-1.898-6.403a2.302 2.302 0 01.728-2.391 2.521 2.521 0 012.55-.426h0z" stroke="#204ECF"/>
        <path d="M196.374 109.983v1.463a4.667 4.667 0 002.39 4.078l15.131 8.483c-15.357 13.748-38.643 13.748-54 0l15.132-8.483a4.667 4.667 0 002.39-4.078v-7.128" stroke="#03B080"/>
        <path d="M172.834 95.115c.16 1.44.497 2.855 1.004 4.214a18.12 18.12 0 004.19 6.376h0c4.872 4.667 12.587 4.833 17.661.38h0a18.165 18.165 0 004.32-5.864 18.153 18.153 0 001.485-5.61l.401-6.795-30-4.498" stroke="#03B080"/>
        <path d="M207.895 116.302V83.71c.004-5.672-2.207-11.113-6.145-15.125-3.94-4.012-9.283-6.266-14.855-6.266h0c-5.572 0-10.916 2.254-14.855 6.266-3.938 4.012-6.149 9.453-6.145 15.125v32.609" stroke="#03B080"/>
        <path d="M166.48 63.283c14.688-9.123 32.454-12.162 49.415-8.454-17.235-11.31-39.696-11.351-56.974-.103-17.277 11.248-25.995 31.587-22.114 51.592 3.33-17.792 14.092-33.4 29.674-43.035z" fill="#D5EEFB" fill-rule="nonzero"/>
        <path d="M214.895 145.318a53.455 53.455 0 0020-20" stroke="#204ECF"/>
        <path d="M0 0h372v220H0z"/>
    </g>
</svg>