<?xml version="1.0" encoding="utf-8"?>
<svg xmlns="http://www.w3.org/2000/svg" fill="none" height="49" viewBox="0 0 49 49" width="49">
<g clip-path="url(#clip0_9613_54847)">
<path d="M24.5 0.507324V47.7573C30.7657 47.7573 36.7748 45.2682 41.2054 40.8377C45.6359 36.4071 48.125 30.398 48.125 24.1323C48.125 17.8666 45.6359 11.8575 41.2054 7.42692C36.7748 2.99638 30.7657 0.507324 24.5 0.507324V0.507324Z" fill="#183A9E" opacity="0.15"/>
<path d="M16.8687 41.8113H15.4902L13.079 39.4L13.076 32.0636H12.2187L9.82773 29.6726V26.7573L8.31498 25.2438L6.78123 25.2431L1.10449 19.5663L1.63474 19.0361L7.09173 24.4931L8.62548 24.4938L10.5777 26.4461V29.3621L12.5292 31.3136H13.8252L13.829 39.0895L15.8007 41.0613H16.1187V39.8598L20.0015 35.98V34.4996L22.0295 32.4708V29.2676H20.003L15.5982 24.8636H11.7267L11.7275 22.6728L14.9247 19.4921H17.1492L18.8937 17.7536V14.9058L16.4727 12.4856H14.5467L12.7805 14.2518L9.87423 11.3448L11.7305 9.48558V4.02258H12.4805V9.79608L10.9347 11.3448L12.7805 13.1913L14.2362 11.7356H16.7832L19.6437 14.5953V18.0648L17.459 20.2421H15.2345L12.4775 22.9848L12.4767 24.1136H15.9095L20.3142 28.5176H22.7795V32.7813L20.7515 34.81V36.2905L16.8687 40.1703V41.8113Z" fill="#204ECF"/>
<path d="M36.9735 37.5001H35.5317L31.6499 33.6179V29.145H27.0246L24.125 26.2479V21.9281L26.2281 19.8264H32.8456L38.7533 25.7499V30.9907L36.9735 32.7709L36.9735 37.5001ZM35.8423 36.7501H36.2235V32.4603L38.0032 30.6802V26.0597L32.5342 20.5765H26.5387L24.875 22.2387V25.9374L27.3352 28.395H32.3999V33.3074L35.8423 36.7501Z" fill="#204ECF"/>
<path d="M42.653 18.8216H38.8903L35.8161 15.7496H34.3086L32.3106 13.8889H26.9766V8.33512L33.1648 2.02087L33.7003 2.54587L27.7266 8.64112V13.1389H32.6061L34.6033 14.9996H36.1273L39.2008 18.0716H42.3425L43.4435 16.9721H47.1365V17.7221H43.754L42.653 18.8216Z" fill="#204ECF"/>
<path d="M24.5 48.1323C19.7532 48.1323 15.1131 46.7247 11.1663 44.0876C7.21953 41.4504 4.1434 37.7021 2.3269 33.3167C0.510399 28.9313 0.0351195 24.1057 0.961163 19.4501C1.88721 14.7946 4.17298 10.5182 7.52944 7.16177C10.8859 3.80531 15.1623 1.51953 19.8178 0.593488C24.4733 -0.332557 29.2989 0.142723 33.6844 1.95922C38.0698 3.77573 41.8181 6.85186 44.4552 10.7986C47.0924 14.7454 48.4999 19.3856 48.4999 24.1323C48.4928 30.4953 45.9619 36.5956 41.4626 41.095C36.9633 45.5943 30.863 48.1251 24.5 48.1323ZM24.5 0.882334C19.9016 0.882334 15.4064 2.24592 11.583 4.80066C7.75955 7.3554 4.77954 10.9866 3.01981 15.2349C1.26007 19.4833 0.799646 24.1581 1.69675 28.6682C2.59386 33.1782 4.8082 37.321 8.05977 40.5725C11.3113 43.8241 15.4541 46.0384 19.9641 46.9355C24.4742 47.8326 29.149 47.3722 33.3973 45.6125C37.6457 43.8528 41.2769 40.8727 43.8316 37.0493C46.3864 33.2259 47.7499 28.7307 47.7499 24.1323C47.7429 17.9682 45.2911 12.0585 40.9324 7.69985C36.5737 3.34115 30.6641 0.889353 24.5 0.882334V0.882334Z" fill="#204ECF"/>
</g>
<defs>
<clipPath id="clip0_9613_54847">
<rect fill="white" height="48" transform="translate(0.5 0.132324)" width="48"/>
</clipPath>
</defs>
</svg>