<?xml version="1.0" encoding="utf-8"?>
<svg xmlns="http://www.w3.org/2000/svg" id="Camada_1" style="enable-background:new 0 0 180 34.3;" version="1.1" viewBox="0 0 180 34.3" x="0px" y="0px">
<style type="text/css">
	.st0{fill-rule:evenodd;clip-rule:evenodd;fill:#262D3D;}
</style>
<g>
	<path class="st0" d="M20.4,3.7c1.6-1.6,3.8-2.7,6.2-2.7c3.2,0,6.1,1.8,7.6,4.5C35.5,5,37,4.6,38.5,4.6C44.3,4.6,49,9.4,49,15.3&#xD;&#xA;		C49,21.2,44.3,26,38.5,26c-0.7,0-1.4-0.1-2.1-0.2c-1.3,2.4-3.9,4-6.7,4c-1.2,0-2.3-0.3-3.4-0.8c-1.3,3.2-4.5,5.4-8.1,5.4&#xD;&#xA;		c-3.8,0-7-2.4-8.3-5.8c-0.6,0.1-1.1,0.2-1.7,0.2C3.7,28.7,0,25,0,20.5c0-3.1,1.6-5.7,4.1-7.2c-0.5-1.2-0.8-2.5-0.8-3.8&#xD;&#xA;		C3.3,4.3,7.6,0,12.8,0C15.9,0,18.7,1.5,20.4,3.7"/>
	<path class="st0" d="M56.6,23.1c-0.1,0.3,0,0.3,0.1,0.4c0.3,0.2,0.6,0.4,0.9,0.6c1.7,0.9,3.3,1.1,4.9,1.1c3.4,0,5.4-1.8,5.4-4.7&#xD;&#xA;		v-0.1c0-2.7-2.4-3.6-4.6-4.3L63.1,16c-1.7-0.5-3.1-1-3.1-2.1v-0.1c0-0.9,0.8-1.6,2.1-1.6c1.4,0,3.2,0.5,4.3,1.1&#xD;&#xA;		c0,0,0.3,0.2,0.4-0.1c0.1-0.2,0.6-1.7,0.7-1.8c0.1-0.2,0-0.3-0.2-0.4c-1.3-0.8-3-1.3-4.8-1.3l-0.3,0c-3.1,0-5.2,1.9-5.2,4.5v0.1&#xD;&#xA;		c0,2.8,2.4,3.7,4.6,4.4l0.4,0.1c1.6,0.5,3,0.9,3,2.1v0.1c0,1-0.9,1.8-2.4,1.8c-0.6,0-2.4,0-4.3-1.2c-0.2-0.1-0.4-0.2-0.6-0.3&#xD;&#xA;		c-0.1-0.1-0.3-0.2-0.4,0.2L56.6,23.1 M105.8,23.1c-0.1,0.3,0,0.3,0.1,0.4c0.3,0.2,0.6,0.4,0.9,0.6c1.7,0.9,3.3,1.1,4.9,1.1&#xD;&#xA;		c3.4,0,5.4-1.8,5.4-4.7v-0.1c0-2.7-2.4-3.6-4.6-4.3l-0.3-0.1c-1.7-0.5-3.1-1-3.1-2.1v-0.1c0-0.9,0.8-1.6,2.1-1.6&#xD;&#xA;		c1.4,0,3.2,0.5,4.3,1.1c0,0,0.3,0.2,0.4-0.1c0.1-0.2,0.6-1.7,0.7-1.8c0.1-0.2,0-0.3-0.2-0.4c-1.3-0.8-3-1.3-4.8-1.3l-0.3,0&#xD;&#xA;		c-3.1,0-5.2,1.9-5.2,4.5v0.1c0,2.8,2.4,3.7,4.6,4.4l0.4,0.1c1.6,0.5,3,0.9,3,2.1v0.1c0,1-0.9,1.8-2.4,1.8c-0.6,0-2.4,0-4.3-1.2&#xD;&#xA;		c-0.2-0.1-0.4-0.2-0.6-0.3c-0.1,0-0.3-0.1-0.4,0.2L105.8,23.1 M139.4,17.4c0,1.6-0.3,2.9-0.9,3.8c-0.6,0.9-1.5,1.3-2.7,1.3&#xD;&#xA;		c-1.2,0-2.1-0.4-2.7-1.3c-0.6-0.9-0.9-2.2-0.9-3.8s0.3-2.9,0.9-3.8c0.6-0.9,1.5-1.3,2.7-1.3c1.3,0,2.1,0.4,2.7,1.3&#xD;&#xA;		C139.1,14.5,139.4,15.8,139.4,17.4 M142.2,14.4c-0.3-0.9-0.7-1.8-1.3-2.4c-0.6-0.7-1.3-1.2-2.2-1.6c-0.9-0.4-1.9-0.6-3-0.6&#xD;&#xA;		c-1.1,0-2.1,0.2-3,0.6c-0.9,0.4-1.6,1-2.2,1.6c-0.6,0.7-1,1.5-1.3,2.4c-0.3,0.9-0.4,1.9-0.4,3c0,1.1,0.1,2.1,0.4,3&#xD;&#xA;		c0.3,0.9,0.7,1.8,1.3,2.4c0.6,0.7,1.3,1.2,2.2,1.6c0.9,0.4,1.9,0.6,3,0.6s2.1-0.2,3-0.6c0.9-0.4,1.6-0.9,2.2-1.6&#xD;&#xA;		c0.6-0.7,1-1.5,1.3-2.4c0.3-0.9,0.4-1.9,0.4-3C142.6,16.4,142.5,15.3,142.2,14.4 M165.2,22.1c-0.1-0.3-0.4-0.2-0.4-0.2&#xD;&#xA;		c-0.4,0.2-0.8,0.3-1.3,0.4c-0.5,0.1-1,0.1-1.5,0.1c-1.4,0-2.4-0.4-3.2-1.2c-0.8-0.8-1.2-2.1-1.2-3.8c0-1.6,0.4-2.8,1.1-3.7&#xD;&#xA;		c0.7-0.9,1.7-1.4,3.1-1.4c1.2,0,2,0.1,3,0.4c0,0,0.2,0.1,0.3-0.2c0.2-0.7,0.4-1.2,0.7-1.9c0.1-0.2-0.1-0.3-0.2-0.3&#xD;&#xA;		c-0.4-0.1-1.2-0.4-1.9-0.5c-0.6-0.1-1.3-0.1-2.1-0.1c-1.2,0-2.2,0.2-3.1,0.6c-0.9,0.4-1.7,1-2.3,1.6c-0.6,0.7-1.1,1.5-1.4,2.4&#xD;&#xA;		c-0.3,0.9-0.5,1.9-0.5,3c0,2.3,0.6,4.2,1.9,5.6c1.2,1.4,3.1,2.1,5.5,2.1c1.4,0,2.9-0.3,4-0.7c0,0,0.2-0.1,0.1-0.3L165.2,22.1&#xD;&#xA;		 M170.2,15.9c0.1-0.9,0.4-1.7,0.8-2.2c0.6-0.9,1.5-1.4,2.7-1.4c1.2,0,2.1,0.5,2.7,1.4c0.4,0.6,0.6,1.4,0.6,2.2H170.2L170.2,15.9z&#xD;&#xA;		 M179.6,13.9c-0.2-0.9-0.8-1.8-1.2-2.2c-0.6-0.7-1.2-1.1-1.8-1.4c-0.9-0.4-1.8-0.6-2.7-0.6c-1.2,0-2.3,0.2-3.1,0.6&#xD;&#xA;		c-0.9,0.4-1.6,1-2.2,1.7c-0.6,0.7-1,1.5-1.3,2.5c-0.3,0.9-0.4,2-0.4,3c0,1.1,0.1,2.1,0.4,3c0.3,0.9,0.8,1.7,1.4,2.4&#xD;&#xA;		c0.6,0.7,1.4,1.2,2.4,1.6c1,0.4,2.1,0.6,3.5,0.6c2.7,0,4.2-0.6,4.8-1c0.1-0.1,0.2-0.2,0.1-0.5l-0.6-1.7c-0.1-0.3-0.4-0.2-0.4-0.2&#xD;&#xA;		c-0.7,0.3-1.6,0.7-3.9,0.7c-1.5,0-2.6-0.4-3.3-1.1c-0.7-0.7-1-1.7-1.1-3.2l9.5,0c0,0,0.3,0,0.3-0.2C179.9,17.9,180.2,16,179.6,13.9&#xD;&#xA;		L179.6,13.9z M94.1,15.9c0.1-0.9,0.4-1.7,0.8-2.2c0.6-0.9,1.5-1.4,2.7-1.4c1.2,0,2.1,0.5,2.7,1.4c0.4,0.6,0.6,1.4,0.6,2.2H94.1&#xD;&#xA;		L94.1,15.9z M103.6,13.9c-0.2-0.9-0.8-1.8-1.2-2.2c-0.6-0.7-1.2-1.1-1.8-1.4c-0.9-0.4-1.8-0.6-2.7-0.6c-1.2,0-2.3,0.2-3.1,0.6&#xD;&#xA;		c-0.9,0.4-1.6,1-2.2,1.7c-0.6,0.7-1,1.5-1.3,2.5c-0.3,0.9-0.4,2-0.4,3c0,1.1,0.1,2.1,0.4,3c0.3,0.9,0.8,1.7,1.4,2.4&#xD;&#xA;		c0.6,0.7,1.4,1.2,2.4,1.6c1,0.4,2.1,0.6,3.5,0.6c2.7,0,4.2-0.6,4.8-1c0.1-0.1,0.2-0.2,0.1-0.5l-0.6-1.7c-0.1-0.3-0.4-0.2-0.4-0.2&#xD;&#xA;		c-0.7,0.3-1.6,0.7-3.9,0.7c-1.5,0-2.6-0.4-3.3-1.1c-0.7-0.7-1-1.7-1.1-3.2l9.5,0c0,0,0.3,0,0.3-0.2C103.9,17.9,104.2,16,103.6,13.9&#xD;&#xA;		L103.6,13.9z M73.6,22.1c-0.4-0.3-0.4-0.4-0.5-0.6c-0.2-0.3-0.3-0.7-0.3-1.2c0-0.8,0.3-1.4,0.8-1.8c0,0,0.8-0.7,2.8-0.7&#xD;&#xA;		c0.9,0,1.7,0.1,2.6,0.2v4.3h0c0,0-1.2,0.3-2.6,0.3C74.4,22.7,73.6,22.1,73.6,22.1L73.6,22.1z M77.3,15.4c-0.4,0-0.9,0-1.5,0&#xD;&#xA;		c-0.8,0-1.6,0.1-2.3,0.3c-0.7,0.2-1.4,0.5-2,0.9c-0.6,0.4-1,0.9-1.4,1.6c-0.3,0.6-0.5,1.4-0.5,2.2c0,0.8,0.1,1.6,0.4,2.2&#xD;&#xA;		c0.3,0.6,0.7,1.1,1.2,1.5c0.5,0.4,1.2,0.7,1.9,0.8c0.7,0.2,1.6,0.3,2.5,0.3c1,0,1.9-0.1,2.9-0.2c0.8-0.1,1.6-0.3,2.4-0.5&#xD;&#xA;		c0.3-0.1,0.7-0.2,0.7-0.2c0.2-0.1,0.2-0.3,0.2-0.3l0-8.7c0-1.9-0.5-3.3-1.5-4.2c-1-0.9-2.5-1.3-4.4-1.3c-0.7,0-1.9,0.1-2.5,0.2&#xD;&#xA;		c0,0-2.1,0.4-2.9,1.1c0,0-0.2,0.1-0.1,0.4l0.7,1.8c0.1,0.2,0.3,0.2,0.3,0.2s0.1,0,0.2-0.1c1.8-1,4.1-1,4.1-1c1,0,1.8,0.2,2.3,0.6&#xD;&#xA;		c0.5,0.4,0.8,1,0.8,2.3v0.4C78.1,15.5,77.4,15.4,77.3,15.4L77.3,15.4z M153.8,10.5c0,0,0-0.1,0-0.1c0,0,0-0.1,0-0.1&#xD;&#xA;		c0,0,0-0.1-0.1-0.1c0,0-0.1,0-0.1-0.1c-0.2-0.1-1-0.2-1.6-0.3c-1.2-0.1-1.9,0.1-2.5,0.4c-0.6,0.3-1.2,0.7-1.6,1.2l0-1.2&#xD;&#xA;		c0-0.2-0.1-0.3-0.3-0.3h-2.4c-0.2,0-0.3,0.1-0.3,0.3v14.2c0,0.1,0,0.1,0.1,0.2c0.1,0.1,0.1,0.1,0.2,0.1h2.5c0.1,0,0.1,0,0.2-0.1&#xD;&#xA;		c0.1-0.1,0.1-0.1,0.1-0.2v-7.1c0-1,0.1-1.9,0.3-2.5c0.2-0.6,0.5-1.1,0.8-1.4c0.3-0.3,0.7-0.6,1.2-0.7c0.4-0.1,0.8-0.2,1.3-0.2&#xD;&#xA;		c0.5,0,1,0.1,1,0.1c0.2,0,0.3-0.1,0.3-0.3C153.3,12,153.7,10.7,153.8,10.5"/>
	<path class="st0" d="M130.5,3.9c-0.3-0.1-0.6-0.2-0.9-0.2c-0.4-0.1-0.9-0.1-1.3-0.1c-1.7,0-3.1,0.5-4,1.4c-0.9,1-1.6,2.4-1.9,4.3&#xD;&#xA;		l-0.1,0.6h-2.2c0,0-0.3,0-0.3,0.3l-0.4,2c0,0.2,0.1,0.3,0.3,0.3h2.1l-2.1,11.9c-0.2,1-0.4,1.7-0.6,2.3c-0.2,0.6-0.4,1-0.7,1.4&#xD;&#xA;		c-0.2,0.3-0.5,0.5-0.9,0.7c-0.3,0.1-0.7,0.2-1.1,0.2c-0.2,0-0.5,0-0.8-0.1c-0.2,0-0.3-0.1-0.5-0.2c0,0-0.2-0.1-0.3,0.2&#xD;&#xA;		c-0.1,0.2-0.6,1.7-0.7,1.9c-0.1,0.2,0,0.3,0.1,0.4c0.3,0.1,0.5,0.2,0.9,0.3c0.5,0.1,1,0.1,1.4,0.1c0.9,0,1.7-0.1,2.3-0.4&#xD;&#xA;		c0.7-0.2,1.2-0.7,1.8-1.2c0.6-0.6,0.9-1.3,1.2-2.1c0.3-0.9,0.6-1.9,0.8-3.2l2.1-12.1h3.1c0,0,0.3,0,0.3-0.3l0.4-2&#xD;&#xA;		c0-0.2-0.1-0.3-0.3-0.3h-3c0-0.1,0.2-1.1,0.5-2.1c0.1-0.4,0.4-0.8,0.7-1c0.2-0.2,0.5-0.4,0.8-0.5c0.3-0.1,0.7-0.2,1-0.1&#xD;&#xA;		c0.3,0,0.6,0,0.8,0.1c0.3,0.1,0.4,0.1,0.5,0.1c0.3,0.1,0.4,0,0.4-0.1l0.7-2C130.8,4.1,130.6,4,130.5,3.9z M88.1,24.5&#xD;&#xA;		c0,0.2-0.1,0.3-0.3,0.3h-2.5c-0.2,0-0.3-0.1-0.3-0.3V4.2c0-0.2,0.1-0.3,0.3-0.3h2.5c0.2,0,0.3,0.1,0.3,0.3V24.5z"/>
</g>
</svg>