<?xml version="1.0" encoding="utf-8"?>
<svg xmlns="http://www.w3.org/2000/svg" fill="none" height="40" viewBox="0 0 141 40" width="141">
<path d="M30.41 7.58C30.38 7.38 30.21 7.27 30.07 7.26C29.93 7.25 27.13 7.21 27.13 7.21C27.13 7.21 24.79 4.94 24.56 4.7C24.33 4.47 23.88 4.54 23.7 4.59C23.7 4.59 23.26 4.73 22.52 4.95C22.4 4.55 22.22 4.06 21.96 3.57C21.13 1.98 19.9 1.14 18.43 1.13C18.33 1.13 18.23 1.13 18.12 1.15C18.08 1.1 18.03 1.05 17.99 1C17.33 0.310002 16.51 -0.0299978 15.52 2.23378e-06C13.61 0.0500022 11.72 1.43 10.18 3.88C9.10001 5.6 8.27001 7.76 8.04001 9.43C5.85001 10.11 4.32001 10.58 4.29001 10.59C3.19001 10.94 3.15001 10.97 3.01001 12.01C2.90001 12.8 0.0100098 35.15 0.0100098 35.15L24.23 39.34L34.73 36.73C34.73 36.73 30.45 7.77 30.42 7.57L30.41 7.58ZM21.3 5.33C20.74 5.5 20.11 5.7 19.42 5.91C19.41 4.95 19.29 3.6 18.84 2.44C20.29 2.71 21 4.35 21.3 5.33ZM18.15 6.3C16.88 6.69 15.5 7.12 14.11 7.55C14.5 6.05 15.24 4.56 16.15 3.59C16.49 3.23 16.96 2.82 17.52 2.59C18.05 3.69 18.16 5.25 18.15 6.3ZM15.55 1.27C16 1.27 16.37 1.36 16.7 1.57C16.18 1.84 15.69 2.22 15.22 2.72C14.01 4.02 13.08 6.04 12.71 7.98C11.56 8.34 10.43 8.69 9.39001 9.01C10.05 5.95 12.61 1.35 15.55 1.27Z" fill="#455065"/>
<path d="M30.07 7.26C29.93 7.25 27.13 7.21 27.13 7.21C27.13 7.21 24.79 4.94 24.56 4.7C24.47 4.61 24.36 4.57 24.23 4.55V39.35L34.73 36.74C34.73 36.74 30.45 7.78 30.42 7.58C30.39 7.38 30.22 7.27 30.08 7.26H30.07Z" fill="#455065"/>
<path d="M18.4 12.65L17.18 17.21C17.18 17.21 15.82 16.59 14.21 16.69C11.85 16.84 11.82 18.33 11.84 18.71C11.97 20.75 17.34 21.2 17.64 25.97C17.88 29.73 15.65 32.3 12.43 32.5C8.57001 32.74 6.45001 30.47 6.45001 30.47L7.27001 26.99C7.27001 26.99 9.41001 28.6 11.12 28.5C12.24 28.43 12.64 27.52 12.6 26.88C12.43 24.22 8.06001 24.38 7.79001 20C7.56001 16.32 9.97001 12.59 15.31 12.26C17.36 12.13 18.42 12.65 18.42 12.65H18.4Z" fill="white"/>
<path d="M48.55 22.21C47.34 21.55 46.72 21 46.72 20.24C46.72 19.27 47.58 18.65 48.93 18.65C50.5 18.65 51.9 19.31 51.9 19.31L53 15.93C53 15.93 51.99 15.14 49 15.14C44.84 15.14 41.96 17.52 41.96 20.86C41.96 22.76 43.3 24.21 45.1 25.24C46.55 26.07 47.07 26.65 47.07 27.52C47.07 28.39 46.35 29.14 45 29.14C43 29.14 41.1 28.1 41.1 28.1L39.93 31.48C39.93 31.48 41.68 32.65 44.62 32.65C48.9 32.65 51.97 30.55 51.97 26.75C51.97 24.72 50.42 23.27 48.55 22.2V22.21Z" fill="#455065"/>
<path d="M65.58 15.1C63.48 15.1 61.82 16.1 60.55 17.62L60.48 17.59L62.31 8.04H57.55L52.93 32.35H57.69L59.28 24.04C59.9 20.9 61.52 18.97 63.04 18.97C64.11 18.97 64.52 19.69 64.52 20.73C64.52 21.39 64.45 22.18 64.31 22.83L62.52 32.35H67.28L69.14 22.52C69.35 21.48 69.49 20.24 69.49 19.42C69.49 16.73 68.07 15.11 65.59 15.11L65.58 15.1Z" fill="#455065"/>
<path d="M80.24 15.1C74.51 15.1 70.72 20.27 70.72 26.03C70.72 29.72 73 32.69 77.27 32.69C82.89 32.69 86.68 27.66 86.68 21.76C86.68 18.35 84.68 15.1 80.23 15.1H80.24ZM77.9 29.03C76.28 29.03 75.59 27.65 75.59 25.93C75.59 23.21 77 18.76 79.59 18.76C81.28 18.76 81.83 20.21 81.83 21.62C81.83 24.55 80.42 29.03 77.9 29.03Z" fill="#455065"/>
<path d="M98.86 15.1C95.65 15.1 93.82 17.93 93.82 17.93H93.75L94.03 15.38H89.82C89.61 17.1 89.23 19.72 88.85 21.69L85.54 39.1H90.3L91.61 32.06H91.71C91.71 32.06 92.69 32.68 94.5 32.68C100.09 32.68 103.74 26.96 103.74 21.16C103.74 17.95 102.33 15.09 98.84 15.09L98.86 15.1ZM94.31 29.1C93.07 29.1 92.34 28.41 92.34 28.41L93.13 23.96C93.68 20.99 95.23 19.03 96.89 19.03C98.34 19.03 98.79 20.37 98.79 21.65C98.79 24.72 96.96 29.1 94.31 29.1Z" fill="#455065"/>
<path d="M110.55 8.27C109.03 8.27 107.83 9.48 107.83 11.03C107.83 12.44 108.73 13.41 110.07 13.41H110.14C111.62 13.41 112.9 12.41 112.93 10.65C112.93 9.27 112 8.27 110.55 8.27Z" fill="#455065"/>
<path d="M103.9 32.34H108.66L111.9 15.48H107.11L103.9 32.34Z" fill="#455065"/>
<path d="M124 15.45H120.69L120.86 14.66C121.14 13.04 122.1 11.59 123.69 11.59C124.54 11.59 125.21 11.83 125.21 11.83L126.14 8.11C126.14 8.11 125.31 7.7 123.55 7.7C121.79 7.7 120.17 8.18 118.89 9.29C117.27 10.67 116.51 12.67 116.13 14.67L115.99 15.46H113.78L113.09 19.05H115.3L112.78 32.36H117.54L120.06 19.05H123.34L124 15.46V15.45Z" fill="#455065"/>
<path d="M135.45 15.48C135.45 15.48 132.47 22.98 131.14 27.07H131.07C130.98 25.75 129.9 15.48 129.9 15.48H124.9L127.76 30.96C127.83 31.3 127.79 31.51 127.66 31.75C127.11 32.82 126.18 33.85 125.07 34.61C124.17 35.26 123.17 35.68 122.38 35.95L123.69 39.99C124.66 39.78 126.66 38.99 128.35 37.4C130.52 35.37 132.52 32.23 134.59 27.95L140.42 15.47H135.45V15.48Z" fill="#455065"/>
</svg>