<?xml version="1.0" encoding="utf-8"?>
<svg xmlns="http://www.w3.org/2000/svg" fill="none" viewBox="0 0 713 965">
  <mask height="965" id="a" maskUnits="userSpaceOnUse" style="mask-type:alpha" width="713" x="0" y="0">
    <path d="M0 0h713v965H0z" fill="#D9D9D9"/>
  </mask>
  <g mask="url(#a)">
    <path clip-rule="evenodd" d="M707.969 422.41L285.052 14l-98.325 94.448 143.747 138.675L14.894 550.32 439.286 960l97.009-93.178-145.118-140.199L707.969 422.41zM303.337 623.187a15.612 15.612 0 01-8.641 0c-4.12-1.374-7.766-3.816-10.539-7.058l-57.225-55.247c-3.374-2.652-5.895-6.174-7.272-10.155a13.395 13.395 0 010-8.379c1.419-3.973 3.955-7.489 7.325-10.155l180.211-173.357c2.766-3.237 6.417-5.664 10.538-7.008a14.747 14.747 0 018.642 0c4.12 1.375 7.766 3.817 10.539 7.058l57.225 55.196c3.359 2.666 5.877 6.184 7.272 10.156a13.237 13.237 0 010 8.328c-1.427 3.969-3.961 7.483-7.325 10.155L313.823 616.078c-2.751 3.253-6.379 5.713-10.486 7.109z" fill="url(#b)" fill-rule="evenodd" opacity=".3"/>
  </g>
  <defs>
    <linearGradient gradientUnits="userSpaceOnUse" id="b" x1="14.894" x2="707.969" y1="487" y2="487">
      <stop stop-color="#183A9E"/>
      <stop offset="1" stop-color="#031360"/>
    </linearGradient>
  </defs>
</svg>