<?xml version="1.0" encoding="utf-8"?>
<svg xmlns="http://www.w3.org/2000/svg" fill="none" height="14" width="52">
  <g clip-rule="evenodd" fill-rule="evenodd">
    <path d="M33.377 4.574a3.508 3.508 0 0 0-2.633-1.126c-1 0-1.993.67-2.604 1.334l.002-1.24-1.867-.002-.02 10.17v.133l1.877.002.008-3.18c.567.611 1.464.97 2.462.973 1.099 0 2.022-.377 2.747-1.117.73-.745 1.1-1.796 1.103-3.002.003-1.232-.358-2.222-1.075-2.945zm-3.082.55c.637 0 1.176.23 1.602.683.438.438.663 1.012.66 1.707-.003.7-.22 1.33-.668 1.787-.428.438-.964.661-1.601.661-.627 0-1.15-.22-1.6-.666-.445-.46-.662-1.086-.662-1.789.003-.695.227-1.27.668-1.708a2.13 2.13 0 0 1 1.596-.675zm5.109-.067-.008 4.291c-.002.926.263 1.587.784 1.963.325.235.738.354 1.228.354.376 0 .967-.146.967-.146l-.168-1.564s-.43.133-.64-.01c-.198-.136-.296-.428-.296-.866l.008-4.022 1.738.002.002-1.492-1.738-.002.005-2.144-1.874-.002-.005 2.143-1.573-.002zM20.016 1.305h-9.245l-.002 1.777h3.695l-.016 8.295v.164l1.955.002-.008-8.459 3.621-.002z" fill="#262d3d"/>
    <path d="M10.06 5.844 7.277 3.166 4.015.03 2.609 1.374l2.056 1.978-4.51 4.313 6.065 5.831 1.387-1.327-2.073-1.994zM4.274 8.7a.211.211 0 0 1-.124 0c-.04-.013-.074-.03-.15-.102l-.817-.787c-.072-.069-.092-.104-.105-.143a.187.187 0 0 1 0-.12c.013-.039.03-.07.105-.143L5.76 4.938c.072-.07.108-.09.15-.099a.21.21 0 0 1 .123 0c.041.012.075.03.15.101L7 5.727c.072.07.093.104.103.144.013.04.013.08 0 .119-.013.04-.03.072-.106.143L4.422 8.601a.325.325 0 0 1-.147.099z" fill="#204ecf"/>
    <path d="M24.354 4.622a3.94 3.94 0 0 0-2.876-1.149 4.1 4.1 0 0 0-2.829 1.084c-.804.725-1.214 1.733-1.217 2.992-.002 1.26.405 2.267 1.207 2.995a4.114 4.114 0 0 0 2.832 1.094c.04.002.082.002.123.002a3.967 3.967 0 0 0 2.75-1.138c.538-.532 1.183-1.473 1.186-2.938.002-1.465-.637-2.408-1.176-2.942zm-.59 2.94c-.003.73-.228 1.334-.671 1.794-.441.458-.99.69-1.633.69a2.166 2.166 0 0 1-1.614-.697c-.43-.45-.65-1.057-.65-1.797s.222-1.344.655-1.795a2.17 2.17 0 0 1 1.617-.69c.64 0 1.189.235 1.63.698.443.46.668 1.064.665 1.797zM41.15 6.324c0-.458.25-1.465 1.632-1.465.49 0 .768.159 1.003.347.227.18.34.626.34.994v.174l-2.282.341C40.035 6.98 39 7.913 38.993 9.28c-.002.708.266 1.314.777 1.76.503.438 1.191.67 2.004.673 1.023 0 1.792-.354 2.341-1.084.003.31.003.621.003.91h1.903l.013-5.246c.002-.856-.289-1.685-.864-2.14-.567-.449-1.31-.679-2.386-.681h-.015c-.82 0-1.69.208-2.274.695-.689.572-1.027 1.478-1.027 2.178l1.682-.02zm.864 3.814c-.676-.002-1.115-.371-1.112-.938.003-.589.43-.933 1.346-1.081l1.875-.305v.017c-.005 1.36-.87 2.307-2.102 2.307h-.008zm4.917-8.712-.018 10.058v.044l1.684.005.018-10.06v-.045zm2.654 9.491c0-.173.062-.322.19-.445a.645.645 0 0 1 .462-.186c.18 0 .338.062.465.186a.596.596 0 0 1 .193.445.583.583 0 0 1-.193.443.644.644 0 0 1-.465.183.634.634 0 0 1-.461-.183.59.59 0 0 1-.191-.443zm.108 0c0 .146.052.273.158.376a.54.54 0 0 0 .389.154.539.539 0 0 0 .547-.53.498.498 0 0 0-.16-.373.531.531 0 0 0-.387-.156.531.531 0 0 0-.387.155.497.497 0 0 0-.16.374zm.702.344-.176-.3h-.118v.3h-.109v-.688h.292c.144 0 .23.082.23.196 0 .096-.076.168-.176.188l.178.304zm-.294-.596v.21h.167c.093 0 .14-.034.14-.104 0-.072-.047-.106-.14-.106z" fill="#262d3d"/>
  </g>
</svg>