<?xml version="1.0" encoding="utf-8"?>
<svg xmlns="http://www.w3.org/2000/svg" fill="none" viewBox="0 0 36 48">
  <path clip-rule="evenodd" d="M35.093 20.723L14.233 0l-4.85 4.792 7.09 7.037L.906 27.213 21.84 48l4.785-4.728-7.158-7.114 15.627-15.435zM15.134 30.91a.749.749 0 01-.426 0 1.169 1.169 0 01-.52-.358l-2.823-2.803a1.123 1.123 0 01-.358-.515.698.698 0 010-.426c.07-.201.195-.38.361-.515l8.89-8.796c.136-.164.316-.287.52-.356a.708.708 0 01.425 0c.204.07.384.194.52.359l2.823 2.8c.166.135.29.314.359.515a.69.69 0 010 .423 1.16 1.16 0 01-.362.515l-8.891 8.796c-.136.166-.315.29-.518.361z" fill="#fff" fill-rule="evenodd"/>
  <path clip-rule="evenodd" d="M26.889 38.315c0-.43.172-.842.478-1.146a1.642 1.642 0 012.312 0 1.613 1.613 0 010 2.291 1.642 1.642 0 01-2.312 0 1.613 1.613 0 01-.478-1.145zm.27 0a1.327 1.327 0 00.393.965 1.353 1.353 0 00.971.396 1.323 1.323 0 00.977-.395 1.33 1.33 0 00.401-.969 1.309 1.309 0 00-.4-.969 1.355 1.355 0 00-.966-.4 1.366 1.366 0 00-.965.4 1.316 1.316 0 00-.41.967v.005zm1.75.886l-.44-.77h-.295v.77h-.269v-1.77h.733a.517.517 0 01.528.294c.03.065.046.135.046.207a.499.499 0 01-.435.484l.445.785h-.313zm-.733-1.535v.525h.418c.244 0 .35-.087.35-.266 0-.18-.118-.272-.35-.272l-.418.013z" fill="#fff" fill-rule="evenodd"/>
</svg>