<?xml version="1.0" encoding="utf-8"?>
<svg xmlns="http://www.w3.org/2000/svg" fill="none" height="19" width="75">
  <path d="M20.109 6.68h7.421v1.384h-2.918v7.784h-1.604V8.064h-2.905V6.68h.006zm7.104 2.53h1.372v1.28h.026c.045-.18.13-.356.252-.524a2.34 2.34 0 01.447-.466 2.38 2.38 0 01.582-.342 1.76 1.76 0 01.653-.13c.169 0 .292.007.356.013.065.007.13.02.2.026v1.41a4.712 4.712 0 00-.316-.045 2.696 2.696 0 00-.317-.02c-.246 0-.479.052-.699.15a1.61 1.61 0 00-.57.433 2.203 2.203 0 00-.388.712 3.015 3.015 0 00-.142.977v3.157h-1.462V9.21h.006zm10.611 6.638h-1.436v-.926h-.026a1.995 1.995 0 01-.802.803 2.2 2.2 0 01-1.087.304c-.874 0-1.508-.214-1.896-.647-.388-.434-.582-1.087-.582-1.96V9.208h1.462v4.07c0 .582.11.996.336 1.236.22.24.538.362.939.362.31 0 .563-.045.77-.142a1.3 1.3 0 00.498-.382c.13-.155.22-.35.278-.57a2.81 2.81 0 00.084-.717v-3.85h1.462v6.632zm2.491-2.129c.046.427.207.725.486.9.284.168.62.258 1.015.258.136 0 .292-.013.466-.032.175-.02.343-.065.492-.123a.946.946 0 00.382-.265.644.644 0 00.136-.453.625.625 0 00-.207-.46 1.459 1.459 0 00-.492-.29 4.954 4.954 0 00-.686-.188c-.259-.052-.518-.11-.783-.169a7.426 7.426 0 01-.79-.22 2.41 2.41 0 01-.679-.35c-.2-.141-.362-.33-.478-.556-.123-.226-.181-.504-.181-.84 0-.363.09-.66.265-.906.174-.246.4-.44.666-.59.272-.148.57-.252.9-.316.33-.059.647-.09.944-.09.343 0 .673.038.984.11.31.07.595.187.847.355.253.162.46.375.628.634.168.259.272.576.317.945H43.02c-.071-.35-.227-.59-.479-.706a1.962 1.962 0 00-.867-.18c-.103 0-.226.006-.369.025-.142.02-.271.052-.4.097a.87.87 0 00-.318.207.5.5 0 00-.13.356c0 .181.065.324.188.434.123.11.285.2.486.278.2.071.427.136.685.188.26.051.524.11.796.168.266.058.524.136.783.22.259.084.485.2.686.35.2.148.362.33.485.549.123.22.188.498.188.822 0 .394-.09.724-.272 1.003a2.152 2.152 0 01-.699.666 3.285 3.285 0 01-.957.375 4.801 4.801 0 01-2.206-.026 2.835 2.835 0 01-.926-.427 2.117 2.117 0 01-.614-.718c-.15-.284-.227-.627-.24-1.022h1.475v-.013zm4.827-4.51h1.106V7.216h1.463V9.21h1.32v1.094h-1.32v3.545c0 .156.006.285.02.402.012.11.044.207.09.284a.414.414 0 00.213.175c.097.039.22.058.389.058.103 0 .206 0 .31-.006.104-.007.207-.02.31-.046v1.133c-.161.02-.323.032-.472.051-.155.02-.31.026-.472.026-.388 0-.699-.039-.932-.11a1.208 1.208 0 01-.55-.323 1.123 1.123 0 01-.271-.53 3.982 3.982 0 01-.084-.732v-3.914h-1.107V9.209h-.013zm4.924 0h1.384v.9h.026c.208-.389.492-.66.861-.829a2.835 2.835 0 011.197-.252c.524 0 .977.09 1.365.278.388.182.712.434.97.757.26.324.447.7.577 1.126.129.427.194.887.194 1.372 0 .446-.059.88-.175 1.294-.117.42-.291.79-.524 1.113-.233.323-.53.576-.893.77-.362.194-.783.29-1.275.29-.213 0-.427-.019-.64-.057a2.82 2.82 0 01-.615-.188 2.22 2.22 0 01-.543-.33 2.05 2.05 0 01-.42-.466h-.027V18.3h-1.462V9.21zm5.111 3.326a3.28 3.28 0 00-.116-.873 2.355 2.355 0 00-.35-.751 1.782 1.782 0 00-.575-.524c-.233-.13-.498-.2-.796-.2-.615 0-1.08.213-1.391.64-.31.427-.466.996-.466 1.708 0 .336.039.647.123.932.084.284.2.53.369.737.161.207.355.37.582.486.226.123.492.18.79.18.336 0 .614-.07.847-.206a1.79 1.79 0 00.57-.53c.148-.22.258-.467.323-.745.058-.278.09-.563.09-.854zm2.582-5.856h1.462v1.385H57.76V6.68zm0 2.53h1.462v6.639H57.76V9.209zm2.77-2.53h1.461v9.169h-1.462V6.679zm5.945 9.35c-.53 0-1.003-.09-1.417-.265a3.128 3.128 0 01-1.054-.725 3.156 3.156 0 01-.654-1.107 4.27 4.27 0 01-.226-1.41c0-.505.077-.97.226-1.398.149-.427.369-.795.654-1.106.284-.31.64-.55 1.054-.725a3.616 3.616 0 011.417-.265c.53 0 1.003.09 1.417.265.414.175.764.421 1.055.725.285.31.505.68.653 1.106.15.428.227.893.227 1.398 0 .511-.078.983-.227 1.41a3.156 3.156 0 01-.653 1.107c-.285.31-.64.55-1.055.725a3.616 3.616 0 01-1.417.265zm0-1.158c.324 0 .608-.072.848-.207.24-.136.433-.317.589-.537a2.41 2.41 0 00.343-.75c.07-.28.11-.564.11-.855 0-.285-.04-.563-.11-.848a2.214 2.214 0 00-.343-.75 1.696 1.696 0 00-1.436-.738c-.324 0-.609.072-.848.207a1.87 1.87 0 00-.59.53c-.154.22-.264.467-.342.751-.071.285-.11.563-.11.848 0 .291.039.576.11.854.071.278.188.53.343.75.155.22.35.402.589.538.24.142.524.207.847.207zm3.779-5.662h1.106V7.216h1.463V9.21h1.32v1.094h-1.32v3.545c0 .156.006.285.019.402.013.11.045.207.09.284a.415.415 0 00.214.175c.097.039.22.058.388.058.104 0 .207 0 .31-.006.104-.007.208-.02.311-.046v1.133c-.161.02-.323.032-.472.051-.155.02-.31.026-.472.026-.388 0-.699-.039-.932-.11a1.208 1.208 0 01-.55-.323 1.123 1.123 0 01-.272-.53 3.991 3.991 0 01-.084-.732v-3.914h-1.106V9.209h-.013z" fill="#191919"/>
  <path d="M18.4 6.68h-6.703L9.627.3 7.55 6.68.847 6.673l5.428 3.947-2.077 6.373 5.429-3.94 5.422 3.94-2.07-6.373L18.4 6.68z" fill="#00B67A"/>
  <path d="M13.444 12.063l-.466-1.443-3.351 2.433 3.817-.99z" fill="#005128"/>
</svg>