<?xml version="1.0" encoding="utf-8"?>
<svg xmlns="http://www.w3.org/2000/svg" height="144" viewBox="0 0 271 144" width="271">
  <g fill="none" fill-rule="nonzero">
    <path d="M120.49 70.48v-7.61h-6.54l.01-8.3c-2.88.02-5.77.01-8.65.01v8.28h-3.58v7.62h3.58c.01 2.32 0 4.63 0 6.95v1.01c0 1.35 0 2.7.02 4.05.07 3.65 1.4 7.56 4.48 9.7 2.7 1.94 6.07 2.3 9.3 2.26-2.66-2.77-4.25-6.82-4.9-10.07l-.01-.1-.01-.1c-.1-.7-.2-1.85-.19-3.06l-.04-.77-.02-1.97c0-2.64.02-5.27.01-7.9h6.54Zm-20.38-13.53v-7.62c-4.26-.72-9.18-.43-12.6 2.52-3.05 2.74-3.65 7.11-3.54 11.02h-3.74v7.61H84V93.35h8.77V70.46h5.86v-7.61h-5.9c.08-1.71-.12-3.76 1.3-5.03 1.7-1.43 4.06-.97 6.1-.88l-.02.01ZM68.3 93.35h8.57c-.05-6.53.05-13.06-.05-19.6-.07-3.82-1.52-8.07-5.18-9.87-5.22-2.6-11.34-2.01-16.91-1.12-.02 2.77 0 5.55-.01 8.32 3.58-.78 7.5-1.59 11.04-.26 1.66.57 2.27 2.31 2.53 3.88-2.48-.3-5-.9-7.5-.4-2.98.37-5.92 1.83-7.6 4.37-2.7 4.05-1.93 10.18 2.08 13.1 3.76 2.88 9.23 2.57 13.06-.03l-.04 1.6.01.01Zm-.37-6.6c-2.22.68-4.93 1.44-6.97-.11-1.86-1.31-1.62-4.48.4-5.51 2.06-1.09 4.46-.7 6.65-.27.2 1.96.18 3.93-.08 5.89M23.43 52c3.5.03 6.99.01 10.49.01-5.13 6.9-10.13 13.87-15.29 20.74 4.6 6.85 9.1 13.75 13.73 20.59-3.62.02-7.25-.01-10.87.02-4.04-6.13-8.1-12.26-12.12-18.4v18.4c-3.12-.02-6.24-.01-9.37-.01V52.02l9.37-.01v19.5c4.67-6.51 9.38-13 14.06-19.5V52Zm11.11 10.96c2.94-.02 5.89 0 8.84-.02-.01 1.95-.02 3.9-.05 5.83a10.38 10.38 0 0 1 7.95-5.87c0 2.89.04 5.78-.04 8.66-3.76.45-7.62 3.26-7.76 7.31-.1 4.82-.02 9.65-.02 14.48h-8.92v-30.4.01Z" fill="#1D3C6D"/>
    <path d="M191.47 87.17c-1.24.5-1.48.74-2.96 1.23-1.48.5-3.2.5-4.69 0-4.68-1.97-1.72-9.12-1.72-9.12 19.23-4.68 16.52-15.04 11.34-15.54-3.2 0-14.8.5-20.22 13.81-.74 1.98-5.92 16.03 5.67 17.02 2.47 0 5.18-.25 7.65-1.48a16.6 16.6 0 0 0 5.42-4.69c1.23-2.22-.5-1.23-.5-1.23h.01Zm-2.71-19.73c1.47.5-2.22 7.9-2.22 7.9-1.48.49-2.96.98-3.95.98.5-.99 3.2-10.35 6.17-8.88Zm47.58 22.44c-.24-.24-.73-.24-.98-.49-1.48-.99-.25-3.7 0-5.18l4.44-15.78c.24-.99 1.97-6.16-4.94-5.18-5.91.99-10.1 4.69-10.1 4.69.49-1.48.98-3.7 0-4.2-1.24-.49-8.39 1.73-10.11 3.21-.5 0-1.24.74-.5 1.48.74.99.99 1.73.5 3.45-.99 2.96-3.95 13.32-4.69 15.3-.74 1.96-1.73 5.66 0 6.9 1.23.98 6.41-1.24 7.15-1.73a5.29 5.29 0 0 0 1.73-.99c.98-.98-.5-1.48.98-6.66 0-.24 1.73-5.42 2.96-9.86a8.36 8.36 0 0 1 5.67-5.67c1.98-.25 1.48 1.48 1.24 2.71-1.73 5.43-3.7 13.56-4.44 15.54-.74 1.97-1.97 5.91 0 6.65 1.72 1.24 9.61-2.21 10.36-2.7 1.47-1 1.47-1.49.73-1.49Z" fill="#E32726"/>
    <path d="M206.26 89.88c-.5-.24-.74-.24-.99-.49-1.47-.99-.49-3.7 0-5.18l4.7-15.78c.24-1.73 1.22-3.94 0-4.68-1.49-.5-8.64 1.72-10.36 3.2-.25 0-1 .74-.25 1.48.74.99.74 1.73.25 3.45-.75 2.96-4.2 13.56-4.94 15.54-.74 1.97-1.72 5.91.5 6.65 1.72 1.24 9.12-1.97 10.1-2.7 1.73-.75 1.73-1.49 1-1.49h-.01Zm-1.48-29.83c.5.98 4.93-.99 7.15-2.22.25-.25 1.24-.99 1.48-1.73.5-1.72.74-2.46.99-3.7.25-.49.25-1.23-.5-1.48-.98-.24-6.9.5-8.38 2.96-.49.99-2.22 5.67-.74 6.17Zm66.09 17.25c-.74-2.7-5.18-3.44-6.9-1.97-1 1-1.49 2.96-1.24 3.46 4.19-1.24 4.93 2.46 4.19 3.94-1.48 2.22-1.97 2.96-3.95 2.96h-13.06c-.25-.25-.5-.5 0-.99.74-.98 13.56-18.49 14.05-19.23.25-.5.99-1.72-.74-1.72h-14.3c-1.48 0-2.22.49-3.45 1.72-.99 1.24-2.22 4.93-2.96 7.4 0 0 0 .99 1.48-.25.25-.24.74-1.23 1.48-1.23h8.63c2.71 0-11.6 13.56-16.03 20.71-.74 1.24.5 1.24 1.23 1.24h18.74c4.69 0 3.95.73 6.42-2.72 0 0 7.64-9.86 6.4-13.31l.01-.01ZM167.8 85.7l5.18-19.98c3.45-12.08 5.42-12.58 6.65-13.81h-8.13c-2.96 0-5.18 4.2-5.68 6.9l-3.45 12.58h-7.4s4.44-16.03 4.94-17.75c.24-.74.24-1.73-1.24-1.73-.24 0-15.78-.5-20.71 1.23-2.22.74-5.42 2.71-6.41 5.67-.74 1.73-1.73 4.94.5 10.85.24.74.73 1.24.98 1.48.74.5 7.15-.49 6.9-.49.5 0 .74-.25.25-1.23-.5-1.24-1.97-3.46-2.22-5.67-.99-8.63 5.18-9.87 6.16-10.11 1.48-.25 2.72-.25 4.2 0 .49 0 1.72.24 1.97.74.5.98-.25 2.7-.74 4.68-.5 1.48-4.68 16.77-5.92 20.96-.74 3.2-3.94 10.1-7.15 11.1-.74.24-1.72.24-2.71 0a9.12 9.12 0 0 1-2.71-1.24c-1.98-1.97-3.2-5.92-3.46-8.87-.24-3.7.5-6.41-.24-6.41-1.29 0-5.59 1.7-7.33 2.94v.01a3.63 3.63 0 0 0-.84.7c-.46.78-.43 3.54-.22 5.22.75 3.7 2.72 7.9 5.68 9.87 7.89 5.42 21.7-4.44 23.17-5.43 2-1.78 3.45-4.09 4.2-6.66.74-2.46 1.97-6.65 1.97-6.65h7.4s-2.96 11.1-3.7 13.8c-.74 2.22-1.24 5.92.74 5.67 7.4 0 10.35-2.7 10.6-2.95a.75.75 0 0 0 0-1 3.66 3.66 0 0 1-1.23-4.43v.01Z" fill="#E32726"/>
  </g>
</svg>