<?xml version="1.0" encoding="utf-8"?>
<svg xmlns="http://www.w3.org/2000/svg" height="144" viewBox="0 0 271 144" width="271">
  <g fill="none" fill-rule="nonzero">
    <path d="M15.765 72.302c0-2.585-1.879-4.544-4.43-4.544-2.564 0-4.43 1.946-4.43 4.544 0 2.612 1.879 4.558 4.43 4.558 2.551 0 4.43-1.946 4.43-4.558zm6.486-9.997v19.97h-5.268l-.584-1.408c-1.624 1.33-3.68 2.086-5.978 2.086C4.366 82.953.038 78.498.038 72.29c0-6.183 4.328-10.587 10.383-10.587 2.335 0 4.417.78 6.054 2.15l.699-1.548h5.077zM46.179 82.155L39.503 71.76l6.225-9.309h-7.54l-3.028 4.964-2.913-4.964h-7.643l6.187 9.486-6.676 10.218h7.655l3.364-5.835 3.312 5.835z" fill="#000"/>
    <path d="M52.52 70.126h8.155c-.607-1.997-2.067-3.072-4.161-3.072-2.029 0-3.425 1.088-3.993 3.072zm14.85 3.815H52.404c.453 2.291 1.926 3.47 4.11 3.47 1.628 0 2.972-.705 3.644-1.87h6.915c-1.422 4.557-5.493 7.412-10.559 7.412-6.294 0-10.946-4.557-10.946-10.65 0-6.12 4.626-10.626 10.946-10.626 6.5 0 10.998 4.596 10.998 10.446 0 .59-.052 1.204-.142 1.818zM70.177 55.399H76.9v26.753h-6.724zM96.784 82.94c5.34 0 8.878-2.726 8.878-6.9 0-5.069-4.22-5.722-7.385-6.285-1.904-.333-3.448-.602-3.448-1.74 0-.923.746-1.473 1.852-1.473 1.248 0 2.11.589 2.11 1.869h6.472c-.065-4.045-3.384-6.746-8.492-6.746-5.146 0-8.568 2.585-8.568 6.592 0 4.84 4.13 5.774 7.23 6.286 1.93.32 3.448.64 3.448 1.792 0 1.037-.965 1.549-1.968 1.549-1.312 0-2.329-.679-2.329-2.138h-6.651c.064 4.327 3.383 7.194 8.851 7.194zM123.75 72.211c0-2.602-1.908-4.53-4.498-4.53-2.59 0-4.498 1.928-4.498 4.53 0 2.602 1.907 4.531 4.498 4.531 2.577 0 4.498-1.929 4.498-4.53zm6.959 0c0 6.168-4.395 10.572-10.542 10.572-1.818 0-3.48-.47-4.898-1.32v7.793h-6.843V62.312h4.704l.863 1.574c1.663-1.41 3.79-2.221 6.174-2.221 6.147 0 10.542 4.378 10.542 10.546zM143.973 62.363c-2.383 0-4.1.67-5.508 2.286l-1.076-2.185h-4.611v19.703h6.878V72.151c0-2.513 1.025-3.561 3.459-3.561h2.664v-6.227h-1.806zM148.507 62.288h6.673V82.15h-6.673v-19.86zm.05-8.288h6.573v5.805h-6.573V54zM171.829 61.728c-2.54 0-4.714.98-6.172 2.633l-.93-2.048h-4.739v19.84h6.75V71.559c0-2.53 1.207-4.019 3.319-4.019 1.696 0 2.564 1.145 2.564 3.46v11.153h6.75V70.058c.012-5.049-2.98-8.33-7.542-8.33zM197.895 71.671c0-2.508-1.783-4.328-4.29-4.328-2.495 0-4.304 1.82-4.304 4.328 0 2.534 1.783 4.355 4.303 4.355 2.495 0 4.291-1.821 4.291-4.355zm6.5-9.357v17.658c0 6.239-4.148 10.109-10.803 10.109-5.726 0-9.72-2.84-10.65-7.55h6.695c.478 1.324 2.197 2.037 3.89 2.037 2.326 0 4.2-1.451 4.2-3.82v-.585a9.895 9.895 0 01-5.26 1.49c-5.777 0-10.08-4.24-10.08-9.982 0-5.665 4.29-9.994 10.08-9.994 2.443 0 4.653.866 6.359 2.305l.878-1.668h4.692zM213.898 70.126h8.104c-.604-1.997-2.055-3.072-4.135-3.072-2.004 0-3.404 1.088-3.969 3.072zm14.756 3.815h-14.871c.45 2.291 1.913 3.47 4.096 3.47 1.606 0 2.954-.705 3.622-1.87h6.87c-1.412 4.557-5.458 7.412-10.492 7.412-6.254 0-10.877-4.557-10.877-10.65 0-6.12 4.598-10.626 10.877-10.626 6.46 0 10.929 4.596 10.929 10.446a14.88 14.88 0 01-.154 1.818zM244.544 62.363v6.214h-2.648c-2.407 0-3.42 1.06-3.42 3.562v10.016h-6.804V62.45h4.561l1.064 2.185c1.394-1.604 3.091-2.286 5.448-2.286h1.799v.013z" fill="#000"/>
    <path d="M248.604 82.112h22.29v-4.943h-22.29v2.478z" fill="#0203FF"/>
  </g>
</svg>