<?xml version="1.0" encoding="utf-8"?>
<svg xmlns="http://www.w3.org/2000/svg" height="144" viewBox="0 0 271 144" width="271">
  <g fill="none" fill-rule="evenodd">
    <path d="M8.243 42L0 50.258V78.77l8.243 8.251h9.042v6.938l8.306 8.263h24.021l8.33-8.256V71.879h4.244V57.177H44.925v-6.915L36.71 42z" fill="#CEB77C"/>
    <path d="M36.396 43.31l7.765 7.724v7.39h17.37V71.36h-4.27v22.484l-7.878 7.723H25.91l-7.854-7.723v-7.411h-9.61L.654 78.712v-27.68l7.79-7.723" fill="#231F20"/>
    <path d="M9.775 83.903h10.81v8.604l6.558 6.442H48.74l6.576-6.442V68.919h4.25v-8.62H46.529v30.044H29.275v-6.44h6.53l6.48-6.435v-8.55h-8.691v6.388h-4.319V60.299h-13v8.62h4.31v6.387h-8.64V53.809h21.649v6.49h8.69v-8.584l-6.479-6.442H9.775l-6.502 6.44v25.755z" fill="#FFF"/>
    <path d="M28.231 83.2h7.096l5.8-5.827V70.3h-6.49v6.406H28.23v-15.05H17.465v6.518h4.277v8.532H11.056V53.02h23.58v6.504h6.491v-7.108l-5.8-5.834H10.404l-5.822 5.834v24.957l5.819 5.827h11.341v9.247l5.875 5.848h20.534l5.898-5.852v-24.27h4.21v-6.518H47.455v30.124H28.23" fill="#CEB77C"/>
    <path d="M76.661 58.932v9.258c0 .866.097 1.603.293 2.21.195.607.48 1.103.856 1.487.377.384.837.664 1.38.838.543.175 1.156.262 1.84.262.696 0 1.316-.087 1.86-.262a3.311 3.311 0 001.379-.838c.376-.384.661-.88.857-1.487.195-.607.292-1.344.292-2.21v-9.258h1.422v9.572a7.3 7.3 0 01-.324 2.19 4.803 4.803 0 01-1.025 1.811c-.467.517-1.066.925-1.797 1.225-.732.3-1.62.45-2.665.45-1.031 0-1.912-.15-2.644-.45-.731-.3-1.33-.708-1.797-1.225a4.795 4.795 0 01-1.024-1.812 7.289 7.289 0 01-.324-2.189v-9.572h1.421zM90.748 63.08v1.863h.042c.25-.656.696-1.183 1.337-1.581a3.923 3.923 0 012.111-.597c.753 0 1.383.098 1.892.293.508.196.916.472 1.223.828.306.356.522.792.648 1.309.125.517.188 1.096.188 1.738v6.954h-1.317v-6.744c0-.461-.042-.89-.126-1.288a2.73 2.73 0 00-.438-1.037 2.133 2.133 0 00-.847-.692c-.355-.167-.798-.25-1.327-.25-.53 0-1 .093-1.41.282-.412.188-.76.447-1.046.775-.286.328-.509.72-.669 1.173-.16.454-.247.946-.261 1.477v6.304H89.43V63.08h1.317zM100.696 73.887h1.317V63.08h-1.317v10.808zm0-12.84h1.317v-2.115h-1.317v2.115zM104.793 63.08l3.386 9.488h.042l3.344-9.489h1.358l-4.034 10.808h-1.4l-4.16-10.808zM121.712 66.284c-.16-.46-.387-.87-.68-1.225a3.372 3.372 0 00-1.065-.86 3.048 3.048 0 00-1.422-.324c-.543 0-1.024.109-1.442.325a3.372 3.372 0 00-1.066.859 4.28 4.28 0 00-.7 1.235c-.174.469-.29.947-.345 1.435h6.981a4.79 4.79 0 00-.261-1.445m-6.521 4.032c.132.51.345.967.637 1.372.293.405.662.74 1.108 1.005.446.266.982.399 1.61.399.96 0 1.713-.252 2.257-.755.543-.502.92-1.173 1.128-2.01h1.317c-.279 1.229-.79 2.178-1.536 2.848-.746.67-1.801 1.006-3.167 1.006-.85 0-1.585-.15-2.205-.45a4.058 4.058 0 01-1.515-1.236 5.378 5.378 0 01-.867-1.823 8.298 8.298 0 01-.282-2.189c0-.712.094-1.41.282-2.094a5.63 5.63 0 01.867-1.833c.39-.537.895-.97 1.515-1.299.62-.328 1.355-.492 2.205-.492.864 0 1.603.175 2.216.524a4.42 4.42 0 011.494 1.372c.383.565.659 1.214.826 1.948a8.57 8.57 0 01.209 2.23h-8.298c0 .475.066.968.199 1.477M126.279 63.08v2.534h.041c.335-.88.854-1.557 1.558-2.032.703-.475 1.543-.691 2.518-.65v1.32c-.6-.028-1.143.053-1.63.241a3.67 3.67 0 00-1.265.807 3.64 3.64 0 00-.825 1.246 4.173 4.173 0 00-.293 1.581v5.76h-1.316V63.08h1.212zM137.857 65.184a2.146 2.146 0 00-.616-.743 2.574 2.574 0 00-.888-.43 4.062 4.062 0 00-1.066-.136c-.293 0-.59.032-.889.094-.3.063-.574.168-.825.315-.251.146-.453.338-.606.576-.154.237-.23.53-.23.88 0 .293.073.54.22.743.146.203.33.374.553.513.223.14.467.255.732.346.264.09.508.164.731.22l1.756.398c.376.056.749.157 1.118.303.369.147.697.34.982.576.286.238.52.531.7.88.181.35.272.762.272 1.236 0 .587-.132 1.086-.397 1.498a3.241 3.241 0 01-1.014 1.005 4.304 4.304 0 01-1.39.555 7.198 7.198 0 01-1.525.168c-1.268 0-2.296-.3-3.083-.901-.787-.6-1.237-1.564-1.348-2.89h1.316c.056.893.38 1.567.972 2.02.593.455 1.328.682 2.205.682.32 0 .652-.035.993-.105.341-.07.659-.189.951-.356.293-.168.533-.38.721-.64.188-.257.282-.575.282-.952 0-.321-.066-.59-.198-.807a1.73 1.73 0 00-.533-.544 3.365 3.365 0 00-.763-.367 9.592 9.592 0 00-.867-.251l-1.693-.377a9.49 9.49 0 01-1.192-.388 3.794 3.794 0 01-.95-.544 2.283 2.283 0 01-.638-.796c-.154-.314-.23-.702-.23-1.163 0-.544.122-1.012.366-1.403.243-.39.56-.705.95-.943.39-.237.826-.411 1.307-.523.48-.112.958-.168 1.432-.168.543 0 1.048.07 1.515.21.467.14.878.356 1.233.649.355.293.638.656.847 1.089.209.433.327.943.355 1.53h-1.317a2.494 2.494 0 00-.25-1.059M141.724 73.887h1.317V63.08h-1.317v10.808zm0-12.84h1.317v-2.115h-1.317v2.115zM149.854 63.08v1.11h-2.194v7.289c0 .433.059.771.177 1.016.118.244.415.38.889.408.376 0 .752-.02 1.128-.063v1.11c-.195 0-.39.007-.585.021-.195.014-.39.021-.585.021-.878 0-1.492-.17-1.84-.513-.348-.342-.515-.974-.501-1.896V64.19h-1.881v-1.11h1.88v-3.246h1.318v3.246h2.194zM151.944 63.08l3.553 9.216 3.323-9.217h1.317l-4.682 12.442c-.195.461-.376.841-.543 1.142-.167.3-.352.537-.554.712a1.84 1.84 0 01-.71.377c-.272.077-.617.115-1.035.115l-.617-.031a1.282 1.282 0 01-.386-.073v-1.11c.153.027.303.052.449.073.146.02.296.031.45.031.292 0 .532-.042.72-.126.189-.083.352-.199.492-.345.139-.147.257-.325.355-.534.097-.21.202-.44.313-.692l.46-1.214-4.305-10.767h1.4zM170.128 64.273a3.632 3.632 0 00-1.181 1.048c-.314.433-.55.925-.711 1.476a6.016 6.016 0 000 3.372c.16.552.397 1.045.71 1.477.314.433.708.782 1.182 1.047.473.266 1.024.399 1.65.399.628 0 1.178-.133 1.652-.399a3.626 3.626 0 001.18-1.047c.314-.432.551-.925.711-1.477a6.02 6.02 0 000-3.372 4.76 4.76 0 00-.71-1.476 3.635 3.635 0 00-1.181-1.048c-.474-.265-1.024-.398-1.651-.398s-1.178.133-1.651.398m3.835-1.047c.634.307 1.167.72 1.599 1.236.431.516.759 1.12.982 1.812.223.69.334 1.428.334 2.21s-.111 1.518-.334 2.21a5.359 5.359 0 01-.982 1.811 4.645 4.645 0 01-1.6 1.225c-.633.3-1.361.45-2.183.45-.823 0-1.55-.15-2.184-.45a4.639 4.639 0 01-1.6-1.225 5.346 5.346 0 01-.982-1.812 7.156 7.156 0 01-.334-2.21c0-.781.111-1.518.334-2.21.223-.69.55-1.295.983-1.811a4.758 4.758 0 011.599-1.236c.633-.307 1.361-.46 2.184-.46.822 0 1.55.153 2.184.46M180.87 64.19v9.697h-1.316V64.19h-1.84v-1.11h1.84v-.984c0-.461.034-.887.104-1.278.07-.39.202-.726.397-1.005.195-.28.463-.496.805-.65.341-.153.777-.23 1.306-.23.195 0 .376.007.544.02.167.015.355.036.564.064v1.13a30.318 30.318 0 00-.501-.073 3.386 3.386 0 00-.46-.031c-.363 0-.641.056-.836.168a1.023 1.023 0 00-.429.45c-.09.188-.143.408-.157.66-.014.251-.02.523-.02.817v.942h2.131v1.11h-2.131zM200.611 61.917a4.218 4.218 0 00-1.045-1.142 4.663 4.663 0 00-1.359-.702 5.02 5.02 0 00-1.557-.24c-.99 0-1.839.188-2.55.565a5.054 5.054 0 00-1.745 1.498A6.455 6.455 0 00191.352 64a8.999 8.999 0 00-.324 2.409c0 .81.108 1.61.324 2.398.216.79.55 1.494 1.003 2.115a5.05 5.05 0 001.745 1.498c.711.377 1.56.566 2.55.566.697 0 1.324-.126 1.881-.377a4.46 4.46 0 001.443-1.027c.403-.432.731-.939.982-1.518.25-.58.41-1.205.48-1.875h1.422c-.098.922-.314 1.753-.648 2.493a6.117 6.117 0 01-1.296 1.885 5.505 5.505 0 01-1.87 1.194c-.718.279-1.516.419-2.394.419-1.17 0-2.198-.213-3.083-.64a6.399 6.399 0 01-2.205-1.706 7.26 7.26 0 01-1.316-2.472 9.837 9.837 0 01-.44-2.953 9.84 9.84 0 01.44-2.954 7.378 7.378 0 011.316-2.482 6.347 6.347 0 012.205-1.717c.885-.426 1.913-.64 3.083-.64.71 0 1.404.105 2.08.315.676.21 1.289.52 1.84.932.55.412 1.01.918 1.379 1.519.369.6.602 1.291.7 2.073h-1.422a4.793 4.793 0 00-.616-1.54M207.686 64.273a3.632 3.632 0 00-1.181 1.048c-.314.433-.55.925-.71 1.476a6.016 6.016 0 000 3.372c.16.552.396 1.045.71 1.477.313.433.707.782 1.18 1.047.474.266 1.025.399 1.652.399s1.177-.133 1.651-.399a3.626 3.626 0 001.181-1.047c.313-.432.55-.925.71-1.477a6.02 6.02 0 000-3.372 4.76 4.76 0 00-.71-1.476 3.635 3.635 0 00-1.18-1.048c-.475-.265-1.025-.398-1.652-.398s-1.178.133-1.651.398m3.835-1.047c.634.307 1.167.72 1.599 1.236.432.516.76 1.12.982 1.812.223.69.335 1.428.335 2.21s-.112 1.518-.335 2.21a5.359 5.359 0 01-.982 1.811 4.645 4.645 0 01-1.599 1.225c-.634.3-1.362.45-2.184.45-.822 0-1.55-.15-2.184-.45a4.639 4.639 0 01-1.6-1.225 5.346 5.346 0 01-.982-1.812 7.156 7.156 0 01-.334-2.21c0-.781.112-1.518.334-2.21.223-.69.55-1.295.983-1.811a4.758 4.758 0 011.599-1.236c.634-.307 1.362-.46 2.184-.46.822 0 1.55.153 2.184.46M216.422 73.887h1.317V58.932h-1.317zM223.173 64.273a3.632 3.632 0 00-1.18 1.048c-.314.433-.551.925-.711 1.476a6.016 6.016 0 000 3.372c.16.552.397 1.045.71 1.477.314.433.707.782 1.181 1.047.474.266 1.024.399 1.651.399s1.177-.133 1.651-.399a3.626 3.626 0 001.181-1.047c.314-.432.55-.925.71-1.477a6.02 6.02 0 000-3.372 4.76 4.76 0 00-.71-1.476 3.635 3.635 0 00-1.18-1.048c-.475-.265-1.025-.398-1.652-.398s-1.177.133-1.65.398m3.834-1.047c.634.307 1.167.72 1.6 1.236.43.516.758 1.12.982 1.812.222.69.334 1.428.334 2.21s-.112 1.518-.334 2.21a5.359 5.359 0 01-.983 1.811 4.645 4.645 0 01-1.599 1.225c-.634.3-1.362.45-2.184.45-.822 0-1.55-.15-2.184-.45a4.639 4.639 0 01-1.599-1.225 5.346 5.346 0 01-.982-1.812 7.156 7.156 0 01-.335-2.21c0-.781.112-1.518.335-2.21.223-.69.55-1.295.982-1.811a4.758 4.758 0 011.6-1.236c.633-.307 1.36-.46 2.183-.46.822 0 1.55.153 2.184.46M233.101 63.08v2.534h.042c.334-.88.853-1.557 1.557-2.032.703-.475 1.543-.691 2.518-.65v1.32c-.599-.028-1.142.053-1.63.241a3.67 3.67 0 00-1.264.807 3.64 3.64 0 00-.826 1.246 4.173 4.173 0 00-.293 1.581v5.76h-1.316V63.08h1.212zM245.328 67.98c-.084.155-.244.266-.481.336s-.446.119-.627.146c-.558.098-1.132.186-1.724.262a9.444 9.444 0 00-1.62.346c-.488.154-.888.374-1.202.66-.314.286-.47.694-.47 1.225 0 .335.066.632.198.89.133.259.31.482.533.67.223.189.48.332.774.43.292.098.592.147.898.147.502 0 .983-.077 1.443-.23.46-.154.86-.378 1.201-.671.342-.293.613-.65.815-1.068a3.24 3.24 0 00.303-1.425v-1.717h-.041zm-6.584-3.225c.223-.46.526-.838.91-1.131.382-.293.832-.51 1.347-.65a6.557 6.557 0 011.714-.209c.474 0 .947.046 1.421.136.474.091.9.262 1.275.513.376.252.683.605.92 1.058.237.454.355 1.044.355 1.77v5.74c0 .53.258.795.774.795.153 0 .292-.027.418-.084v1.11a3.945 3.945 0 01-.857.084c-.335 0-.603-.045-.805-.136a1.078 1.078 0 01-.47-.387 1.452 1.452 0 01-.22-.597 5.127 5.127 0 01-.052-.765h-.042c-.237.35-.477.66-.72.932-.245.273-.516.5-.816.681a3.76 3.76 0 01-1.024.42c-.384.097-.84.146-1.37.146-.5 0-.971-.06-1.41-.178a3.156 3.156 0 01-1.15-.566 2.702 2.702 0 01-.773-.984c-.188-.398-.282-.87-.282-1.414 0-.754.167-1.344.502-1.77.334-.426.776-.75 1.327-.974a7.58 7.58 0 011.86-.471c.69-.091 1.39-.179 2.1-.262.28-.028.523-.063.732-.105.21-.042.383-.115.523-.22a1.02 1.02 0 00.324-.43c.076-.18.114-.418.114-.711 0-.447-.073-.814-.219-1.1a1.741 1.741 0 00-.606-.681 2.444 2.444 0 00-.899-.346 6.066 6.066 0 00-1.097-.094c-.836 0-1.519.2-2.048.597-.53.398-.809 1.037-.836 1.917h-1.317c.042-.629.174-1.173.397-1.634zM250.375 70.149a4.6 4.6 0 00.627 1.476c.285.433.651.786 1.097 1.058.446.272.983.409 1.61.409.696 0 1.285-.137 1.766-.409.48-.272.87-.625 1.17-1.058.3-.432.516-.925.648-1.476a7.12 7.12 0 000-3.33 4.363 4.363 0 00-.648-1.478c-.3-.432-.69-.785-1.17-1.057-.48-.273-1.07-.409-1.766-.409-.627 0-1.164.136-1.61.409a3.453 3.453 0 00-1.097 1.057 4.604 4.604 0 00-.627 1.477 7.1 7.1 0 000 3.33zm7.221 3.738v-2.052h-.041c-.14.349-.345.67-.617.963a3.999 3.999 0 01-.93.744c-.349.202-.721.36-1.118.471a4.351 4.351 0 01-1.181.168c-.823 0-1.536-.15-2.143-.45a4.292 4.292 0 01-1.515-1.236 5.301 5.301 0 01-.899-1.823 8.017 8.017 0 01-.292-2.189c0-.767.097-1.497.292-2.189a5.301 5.301 0 01.9-1.822c.403-.524.908-.939 1.514-1.246.607-.307 1.32-.461 2.143-.461.404 0 .797.05 1.18.147.384.098.743.248 1.077.45.334.203.63.45.888.744.258.293.457.635.596 1.026h.042v-6.2h1.317v14.955h-1.213zM264.222 64.273a3.632 3.632 0 00-1.181 1.048c-.314.433-.55.925-.711 1.476a6.016 6.016 0 000 3.372c.16.552.397 1.045.71 1.477.314.433.708.782 1.182 1.047.473.266 1.024.399 1.65.399.628 0 1.178-.133 1.652-.399a3.626 3.626 0 001.18-1.047c.314-.432.551-.925.711-1.477a6.02 6.02 0 000-3.372 4.76 4.76 0 00-.71-1.476 3.635 3.635 0 00-1.181-1.048c-.474-.265-1.024-.398-1.651-.398s-1.178.133-1.651.398m3.835-1.047c.634.307 1.167.72 1.599 1.236.431.516.759 1.12.982 1.812.223.69.335 1.428.335 2.21s-.112 1.518-.335 2.21a5.359 5.359 0 01-.982 1.811 4.645 4.645 0 01-1.6 1.225c-.633.3-1.361.45-2.183.45-.823 0-1.55-.15-2.184-.45a4.639 4.639 0 01-1.6-1.225 5.346 5.346 0 01-.982-1.812 7.156 7.156 0 01-.334-2.21c0-.781.111-1.518.334-2.21.223-.69.55-1.295.983-1.811a4.758 4.758 0 011.599-1.236c.633-.307 1.361-.46 2.184-.46.822 0 1.55.153 2.184.46M81.698 97.116c.53 0 1.031-.045 1.505-.136.473-.09.891-.255 1.254-.492.362-.238.648-.555.857-.953.209-.399.313-.898.313-1.498 0-.964-.338-1.686-1.013-2.168-.676-.482-1.648-.723-2.916-.723h-4.89v5.97h4.89zm0-7.185c.571 0 1.066-.066 1.484-.199a3.08 3.08 0 001.045-.544c.278-.23.488-.5.627-.807.14-.307.209-.635.209-.984 0-1.871-1.122-2.807-3.365-2.807h-4.89v5.341h4.89zm0-6.556c.627 0 1.23.06 1.808.178a4.38 4.38 0 011.526.608c.439.286.79.663 1.055 1.13.265.469.397 1.052.397 1.75 0 .39-.062.772-.188 1.141-.125.37-.303.706-.533 1.006-.23.3-.501.555-.815.764-.313.21-.665.357-1.055.44v.042c.961.126 1.727.52 2.299 1.184.57.663.856 1.484.856 2.46 0 .238-.02.507-.062.807a3.902 3.902 0 01-.794 1.854 3.222 3.222 0 01-.951.806c-.397.23-.885.42-1.463.566-.579.147-1.272.22-2.08.22h-6.312V83.375h6.312zM91.981 88.717a3.63 3.63 0 00-1.18 1.047c-.314.433-.551.925-.712 1.477a6.016 6.016 0 000 3.372 4.75 4.75 0 00.711 1.477c.314.433.707.782 1.181 1.047.474.265 1.024.398 1.651.398s1.177-.133 1.651-.398a3.628 3.628 0 001.181-1.047c.314-.433.55-.925.71-1.477a6.021 6.021 0 000-3.372 4.76 4.76 0 00-.71-1.477 3.633 3.633 0 00-1.18-1.047c-.475-.266-1.025-.399-1.652-.399s-1.177.133-1.651.399m3.835-1.048c.634.308 1.167.72 1.6 1.236.43.517.758 1.12.982 1.812.222.691.334 1.428.334 2.21s-.112 1.518-.334 2.21a5.358 5.358 0 01-.983 1.811 4.645 4.645 0 01-1.599 1.226c-.634.3-1.362.45-2.184.45-.822 0-1.55-.15-2.184-.45a4.639 4.639 0 01-1.599-1.226 5.346 5.346 0 01-.982-1.812 7.156 7.156 0 01-.335-2.21c0-.781.112-1.518.335-2.21a5.35 5.35 0 01.982-1.811 4.759 4.759 0 011.6-1.236c.633-.307 1.36-.46 2.183-.46.822 0 1.55.153 2.184.46M108.22 98.33v-1.947h-.041c-.349.726-.854 1.281-1.515 1.665a4.316 4.316 0 01-2.205.576c-.683 0-1.265-.094-1.746-.283a2.906 2.906 0 01-1.17-.806c-.3-.349-.52-.775-.658-1.278a6.438 6.438 0 01-.21-1.717v-7.017h1.317v7.037c.028.978.254 1.718.68 2.22.424.504 1.16.755 2.205.755.57 0 1.058-.122 1.463-.367a3.106 3.106 0 001.003-.974c.264-.404.46-.869.585-1.393a6.858 6.858 0 00.188-1.602v-5.676h1.317V98.33h-1.212zM111.94 98.33h1.318V83.376h-1.317zM116.842 94.592a4.6 4.6 0 00.627 1.477c.285.433.651.785 1.097 1.058.446.272.983.408 1.61.408.696 0 1.285-.136 1.766-.408.48-.273.87-.625 1.17-1.058.3-.433.516-.925.648-1.477a7.12 7.12 0 000-3.33 4.363 4.363 0 00-.648-1.477c-.3-.433-.69-.786-1.17-1.058s-1.07-.409-1.766-.409c-.627 0-1.164.137-1.61.409a3.453 3.453 0 00-1.097 1.058 4.604 4.604 0 00-.627 1.476 7.1 7.1 0 000 3.331zm7.221 3.739v-2.053h-.042c-.14.35-.344.67-.616.964a3.999 3.999 0 01-.93.743c-.349.203-.721.36-1.118.472a4.351 4.351 0 01-1.181.167c-.823 0-1.537-.15-2.143-.45a4.292 4.292 0 01-1.515-1.236 5.301 5.301 0 01-.899-1.822 8.017 8.017 0 01-.292-2.19c0-.767.097-1.497.292-2.188a5.301 5.301 0 01.899-1.822 4.4 4.4 0 011.515-1.247c.606-.307 1.32-.46 2.143-.46.404 0 .797.049 1.18.146a3.96 3.96 0 011.077.45c.334.203.63.45.888.744.258.293.456.636.596 1.026h.042v-6.2h1.316v14.956h-1.212zM135.276 90.727c-.16-.46-.386-.869-.68-1.225a3.37 3.37 0 00-1.065-.859 3.047 3.047 0 00-1.421-.324c-.544 0-1.024.108-1.442.324a3.37 3.37 0 00-1.066.859 4.28 4.28 0 00-.7 1.236c-.175.468-.29.946-.345 1.435h6.98a4.79 4.79 0 00-.26-1.446m-6.522 4.032c.132.51.345.968.638 1.372.292.406.661.74 1.107 1.006.446.265.983.398 1.61.398.961 0 1.714-.251 2.257-.754.544-.503.92-1.173 1.129-2.011h1.317c-.28 1.229-.792 2.179-1.537 2.849-.745.67-1.8 1.005-3.166 1.005-.85 0-1.585-.15-2.205-.45a4.058 4.058 0 01-1.515-1.236 5.38 5.38 0 01-.868-1.822 8.303 8.303 0 01-.282-2.19c0-.711.094-1.41.282-2.094A5.633 5.633 0 01128.39 89c.39-.537.895-.97 1.515-1.298.62-.328 1.355-.493 2.205-.493.864 0 1.602.175 2.215.524a4.42 4.42 0 011.495 1.372c.383.566.658 1.215.825 1.948a8.57 8.57 0 01.21 2.23h-8.298c0 .476.066.968.198 1.477M139.843 87.523v2.534h.042c.334-.88.853-1.557 1.557-2.032.703-.474 1.543-.691 2.518-.649v1.32c-.599-.028-1.142.052-1.63.24a3.67 3.67 0 00-1.264.807 3.64 3.64 0 00-.826 1.246 4.173 4.173 0 00-.292 1.582v5.76h-1.317V87.523h1.212z" fill="#231F20"/>
  </g>
</svg>