<?xml version="1.0" encoding="utf-8"?>
<svg xmlns="http://www.w3.org/2000/svg" height="144" viewBox="0 0 271 144" width="271">
  <g fill="none" fill-rule="nonzero">
    <path d="M77.965 81.797a9.082 9.082 0 01-3.423-3.125c-1.64-2.68-1.64-6.001 0-8.681a9.076 9.076 0 013.405-3.143 10.17 10.17 0 014.745-1.163c1.658-.014 3.292.38 4.745 1.146a8.727 8.727 0 013.368 3.073 8.37 8.37 0 010 8.68 8.896 8.896 0 01-3.368 3.126 10.227 10.227 0 01-4.745 1.163 10.011 10.011 0 01-4.727-1.076zm7.117-3.664a4.483 4.483 0 001.612-1.597 4.601 4.601 0 000-4.531 4.365 4.365 0 00-1.63-1.58 4.726 4.726 0 00-2.39-.521 4.98 4.98 0 00-2.319.59 4.33 4.33 0 00-1.648 1.597c-.4.69-.606 1.468-.597 2.257.009.784.22 1.554.615 2.24.389.67.958 1.228 1.649 1.615.706.387 1.505.59 2.318.59a4.73 4.73 0 002.39-.66zM117.447 66.47a5.367 5.367 0 012.139 2.327 7.865 7.865 0 01.743 3.55v10.51h-5.076v-9.87a3.047 3.047 0 00-.725-2.184 2.455 2.455 0 00-1.94-.781 2.544 2.544 0 00-2.013.87 3.242 3.242 0 00-.797 2.29v9.693h-5.113v-9.942a3.1 3.1 0 00-.725-2.184 2.416 2.416 0 00-1.813-.78 2.637 2.637 0 00-2.067.87 3.24 3.24 0 00-.78 2.29v9.71h-5.148l-.091-16.368 4.95-.586v1.97a6.023 6.023 0 012.084-1.58 6.275 6.275 0 012.666-.55 6.126 6.126 0 012.791.604 5.67 5.67 0 011.995 1.775 5.915 5.915 0 012.357-1.775 7.55 7.55 0 013.136-.64 6.75 6.75 0 013.427.782zM146.762 66.571a5.13 5.13 0 012.146 2.299 7.854 7.854 0 01.746 3.536v10.469h-5.094v-9.956a3.074 3.074 0 00-.746-2.175 2.526 2.526 0 00-1.819-.778 2.6 2.6 0 00-2.037.867 3.213 3.213 0 00-.783 2.28v9.656h-5.294v-9.832a3.089 3.089 0 00-.71-2.175 2.414 2.414 0 00-1.819-.796 2.655 2.655 0 00-2.055.867 3.283 3.283 0 00-.8 2.299v9.655h-5.131v-16.34l4.966-.601v1.98a5.891 5.891 0 012.092-1.591 6.71 6.71 0 012.693-.548 5.848 5.848 0 012.784.619 5.405 5.405 0 012 1.768 6.24 6.24 0 012.366-1.768 8 8 0 013.165-.62 6.563 6.563 0 013.33.885zM156.338 82.102a8.97 8.97 0 01-3.394-3.107 8.103 8.103 0 01-1.264-4.44 8.364 8.364 0 011.245-4.475 8.962 8.962 0 013.377-3.214 10.058 10.058 0 019.46 0 9.055 9.055 0 013.395 3.179 8.539 8.539 0 011.228 4.493 8.24 8.24 0 01-1.21 4.457 9.052 9.052 0 01-3.376 3.196 9.88 9.88 0 01-4.73 1.19 9.765 9.765 0 01-4.731-1.279zm7.023-3.747a4.582 4.582 0 001.625-1.633c.404-.71.61-1.513.596-2.327a4.75 4.75 0 00-.614-2.308 4.261 4.261 0 00-1.625-1.616 4.592 4.592 0 00-2.365-.586 4.737 4.737 0 00-2.33.604 4.314 4.314 0 00-1.624 1.634c-.397.7-.602 1.489-.596 2.29a4.627 4.627 0 00.596 2.309c.393.681.959 1.25 1.643 1.651.707.4 1.513.603 2.33.586a4.371 4.371 0 002.364-.604zM186.082 66.543a5.382 5.382 0 012.224 2.399 7.948 7.948 0 01.784 3.66v10.255h-5.177v-9.614a3.254 3.254 0 00-.839-2.382 2.958 2.958 0 00-2.224-.853 3.14 3.14 0 00-2.37.942 3.5 3.5 0 00-.912 2.488v9.437h-5.16V66.436l4.978-.604v1.99a6.582 6.582 0 012.279-1.581 7.55 7.55 0 012.935-.551 6.493 6.493 0 013.482.853zM206.59 66.557a8.282 8.282 0 013.098 3.112 8.513 8.513 0 011.145 4.378c.04 3.207-1.74 6.169-4.618 7.683a10.098 10.098 0 01-4.797 1.143 9.863 9.863 0 01-4.744-1.108 8.418 8.418 0 01-3.33-3.164 8.999 8.999 0 01-1.217-4.607V57.151l5.138-1.073v11.235a7.448 7.448 0 012.255-1.406 7.858 7.858 0 012.775-.493c1.512-.018 3 .378 4.296 1.143zm-2.738 11.481a4.274 4.274 0 001.611-1.617c.396-.712.6-1.51.59-2.321.014-.8-.19-1.59-.59-2.286a4.222 4.222 0 00-1.611-1.6 4.819 4.819 0 00-4.618 0 4.08 4.08 0 00-1.63 1.618 4.725 4.725 0 000 4.606c.385.659.941 1.205 1.612 1.582.69.39 1.476.591 2.273.58a4.722 4.722 0 002.363-.562zM217.523 81.85a8.889 8.889 0 01-3.42-3.116 8.13 8.13 0 010-8.653 9.038 9.038 0 013.384-3.236 10.104 10.104 0 014.722-1.16 9.9 9.9 0 014.74 1.143 8.761 8.761 0 013.402 3.115 8.328 8.328 0 010 8.653 8.58 8.58 0 01-3.383 3.115 10.104 10.104 0 01-4.723 1.16 9.97 9.97 0 01-4.722-1.022zm7.02-3.652a4.388 4.388 0 001.629-1.593 4.578 4.578 0 000-4.568 4.537 4.537 0 00-1.647-1.575 4.647 4.647 0 00-2.298-.571 4.928 4.928 0 00-2.316.588 4.197 4.197 0 00-1.646 1.592 4.413 4.413 0 00-.597 2.25c-.01.784.203 1.555.615 2.233a4.353 4.353 0 001.646 1.609c.705.388 1.504.59 2.316.588a4.668 4.668 0 002.298-.553zM247.247 66.5a5.56 5.56 0 012.235 2.339 7.82 7.82 0 01.787 3.569v9.961h-5.183v-9.39a3.197 3.197 0 00-.824-2.321 3.08 3.08 0 00-2.252-.832 3.244 3.244 0 00-2.38.918 3.352 3.352 0 00-.898 2.426v9.2h-5.146V66.343l5.054-.503v1.923a6.453 6.453 0 012.29-1.541 7.691 7.691 0 012.93-.538 6.987 6.987 0 013.387.815zM260.828 65.42a7.447 7.447 0 015.067 1.88V56.077l5.103.615v17.244a8.831 8.831 0 01-1.203 4.619 8.25 8.25 0 01-3.307 3.178 10.618 10.618 0 01-9.577 0c-2.879-1.503-4.66-4.45-4.617-7.639a8.623 8.623 0 011.132-4.372 8.34 8.34 0 013.09-3.144 8.686 8.686 0 014.312-1.159zm.845 13.188c1.623.042 3.137-.795 3.935-2.177a4.484 4.484 0 00.593-2.3 4.536 4.536 0 00-.593-2.283 4.247 4.247 0 00-1.653-1.616 4.684 4.684 0 00-2.336-.58 4.554 4.554 0 00-2.282.598 4.228 4.228 0 00-1.617 1.598 4.467 4.467 0 00-.593 2.282 4.399 4.399 0 00.611 2.318 4.21 4.21 0 001.635 1.616c.703.38 1.497.568 2.3.544zM62.193 81.743a8.706 8.706 0 01-3.34-3.093 8.206 8.206 0 01-1.213-4.362 8.001 8.001 0 011.196-4.362 8.561 8.561 0 013.321-3.111 9.69 9.69 0 014.643-1.13c1.817.037 3.599.496 5.197 1.338l-1.482 3.737a7.293 7.293 0 00-3.411-.921 4.744 4.744 0 00-2.41.59 4.209 4.209 0 00-1.626 1.617 4.531 4.531 0 000 4.466 4.267 4.267 0 001.66 1.599c.745.396 1.581.6 2.43.59a7.927 7.927 0 003.57-1.007l1.572 3.684a13.365 13.365 0 01-5.5 1.495 9.123 9.123 0 01-4.607-1.13z" fill="#0058BF"/>
    <path d="M10.214 58.606C2.549 58.606 0 61.051 0 68.401V95.01h20.646c7.647 0 10.195-2.444 10.195-9.794V58.606H10.214z" fill="#F8AE9E"/>
    <path d="M23.341 49c-7.647 0-10.195 2.445-10.195 9.8v26.603H33.79c7.647 0 10.196-2.446 10.196-9.8V49H23.34z" fill="#0058BF"/>
  </g>
</svg>