<?xml version="1.0" encoding="utf-8"?>
<svg xmlns="http://www.w3.org/2000/svg" height="144" viewBox="0 0 271 144" width="271">
  <g fill="none" fill-rule="nonzero">
    <path d="M83.577 66.325a3.675 3.675 0 010-7.35 3.639 3.639 0 013.788 3.652 3.707 3.707 0 01-3.788 3.698zM254.997 89.037c-4.482 0-7.923-4.189-7.923-9.545a10.899 10.899 0 0110.967-11.183 9.74 9.74 0 013.896.87l.148.068v-4.374c0-2.034-.243-2.169-1.285-2.417l-.315-.077-1.353-.397 9.244-3.003v24.702c0 2.214.293 2.768 1.641 3.156l.82.207-.247.582-8.496 1.402v-4.162l-.189.24c-1.957 2.47-4.532 3.931-6.908 3.931zm3.337-19.547c-3.04 0-4.51 2.67-4.51 8.166 0 4.816 1.782 7.806 4.645 7.806a3.648 3.648 0 003.607-3.486v-8.73c.005-2.836-2.52-3.756-3.742-3.756zM78.157 88.375l.1-.564 1.438-.226c.563-.04.998-.512.992-1.077V74.41c0-2.286-1.046-2.864-1.957-3.112l-.541-.135 8.774-2.854V86.48c-.016.54.369 1.01.902 1.1l1.506.234.1.564-11.314-.004zM176.033 99.11l.099-.563 1.438-.225c.564-.04.999-.513.992-1.078V74.59c0-1.538-.69-2.863-1.64-3.156l-.903-.23 8.825-2.909v4.18l.189-.239c1.943-2.466 4.342-3.94 6.719-3.94 4.477.013 7.552 4.621 7.552 9.974 0 7.138-5.456 10.758-10.821 10.758a8.315 8.315 0 01-3.536-.676l-.148-.068v8.947c-.007.566.43 1.039.996 1.077l1.434.226.1.563-11.296.014zm12.377-27.338a3.765 3.765 0 00-3.607 3.549v9.054a3.495 3.495 0 003.386 3.472c2.061 0 4.699-1.655 4.699-8.671-.014-4.816-1.614-7.404-4.478-7.404zM129.71 86.512V75.564a3.45 3.45 0 00-3.54-3.418 3.377 3.377 0 00-3.291 3.287V86.49c-.005.53.378.984.902 1.068l1.506.235.099.564h-10.921l.099-.564 1.114-.235c.518-.083.9-.53.902-1.055V64.607a2.512 2.512 0 00-1.588-2.34l-.983-.388 8.933-2.909v13.384l.194-.294c.027-.036 2.548-3.751 7.012-3.751a6.11 6.11 0 014.116 1.731c1.033 1.078 1.655 2.976 1.655 5.069l.045 11.408c-.004.53.379.984.902 1.068l1.506.235.1.564h-10.9l.1-.564 1.114-.235c.518-.083.9-.53.902-1.055M54.259 60.842a1.069 1.069 0 00-.992-1.078l-1.439-.225-.099-.564h12.41l-.109.564-1.438.225c-.564.04-.999.513-.992 1.078v25.377c0 1.195 1.564 1.015 1.564 1.015 4.473 0 7.246-1.678 10.245-8.211l.491-1.074h1.403l-1.254 10.426H51.73l.1-.564 1.438-.226c.563-.04.998-.512.992-1.077V60.842zM148.802 89.037a5.736 5.736 0 01-5.668-5.749V71.713h-4.428l2.75-2.705h.934a.74.74 0 00.74-.749v-2.403l5.861-1.944v5.105h5.628l-2.575 2.705h-3.035v10.863c0 2.782 1.989 3.792 3.328 3.792a3.725 3.725 0 001.646-.401l.077-.032.554.645c-1.6 1.43-3.215 2.448-5.812 2.448zM209.522 76.601l12.062.185c.045-.374.054-1.57.036-1.988-.135-3.049-2.254-6.49-7.796-6.49-6.263 0-10.989 4.587-10.989 10.823 0 5.677 4.108 9.92 9.56 9.92 4.373 0 7.444-1.948 9.149-5.903l-.451-.387a5.902 5.902 0 01-5.105 2.723c-3.905 0-6.457-3.156-6.502-8.067a6.872 6.872 0 01.036-.816zm0-1.506c.307-3.801 1.619-5.528 3.684-5.528a2.052 2.052 0 011.515.622c.857.87 1.272 2.255 1.231 4.87v.104l-6.434.045.004-.113zM231.41 76.601l12.062.185c.045-.374.054-1.57.036-1.988-.136-3.049-2.255-6.49-7.797-6.49-6.263 0-10.988 4.587-10.988 10.823 0 5.677 4.107 9.92 9.559 9.92 4.374 0 7.445-1.948 9.149-5.903l-.45-.387a5.902 5.902 0 01-5.132 2.75c-3.905 0-6.457-3.156-6.502-8.067.003-.282.024-.563.063-.843zm0-1.506c.306-3.801 1.618-5.528 3.684-5.528a2.052 2.052 0 011.515.622c.856.87 1.271 2.255 1.23 4.87v.104l-6.434.045.005-.113zM167.335 75.988c-2.665-1.024-4.672-1.804-4.672-3.774 0-1.804 1.258-2.855 3.07-2.855a4.86 4.86 0 012.53.713l3.373 4.897 1.155-.045-.226-6.615-2.173.708c-1.496-.46-3.052-.7-4.618-.708-4.793 0-7.99 2.53-7.99 6.48 0 3.638 2.75 5.018 6.128 6.312 2.485.979 4.798 1.678 4.798 4.185 0 1.43-1.353 2.827-3.553 2.827-2.309 0-3.508-1.154-5.014-3.373l-1.236-2.57-1.186.289-.42 5.208a23.565 23.565 0 007.734 1.37c5.948 0 8.658-3.156 8.658-6.615-.01-3.904-3.297-5.19-6.358-6.434zM105.758 84.61H98.7a1.704 1.704 0 01-1.578-1.655 1.682 1.682 0 011.663-1.745c.097-.008.193-.008.29 0 .67.121 1.35.18 2.033.175 5.357 0 8.986-2.79 8.986-6.727 0-1.173-.193-2.025-.856-2.769l2.457-2.254-.595-1.736-4.203 1.731a11.724 11.724 0 00-5.478-1.312c-5.222 0-8.766 3.355-8.766 6.894 0 3.053 1.727 4.74 4.252 5.623v.045c-2.61.753-5 2.525-5 4.915 0 2.124 2.123 4.027 4.739 4.338-2.656 1.02-5.267 2.214-5.267 4.559 0 2.967 2.832 4.428 8.567 4.428 7.305 0 12.486-4.058 12.486-8.811.01-3.553-2.732-5.7-6.673-5.7zM99.323 70.81a2.309 2.309 0 012.052-1.244c1.664 0 2.705 1.42 2.705 5.46s-.78 5.411-2.705 5.411c-1.628 0-2.566-1.61-2.566-5.46-.004-1.885.1-3.292.514-4.167zm1.209 26.785c-2.787 0-4.424-1.642-4.424-4.031 0-1.804 1.966-3.378 3.752-3.378h3.77c3.156.221 4.648.902 4.648 3.157 0 2.511-4.157 4.252-7.724 4.252h-.022z" fill="#000"/>
    <path d="M29.675 73.675h-14.7v-14.7L.27 44.27V88.379H44.379z" fill="#ED6D5B"/>
  </g>
</svg>