<?xml version="1.0" encoding="utf-8"?>
<svg xmlns="http://www.w3.org/2000/svg" height="144" viewBox="0 0 271 144" width="271">
  <g fill="#03363D" fill-rule="nonzero">
    <path d="M181.527 90.733a13.477 13.477 0 009.658-3.753l4.788 5.173a18.866 18.866 0 01-14.392 5.683c-11.701 0-19.26-7.774-19.26-18.28a17.845 17.845 0 015.204-13 17.976 17.976 0 0113.007-5.281c11.621 0 18.212 8.845 17.62 21.121H170.74c.79 5.2 5.536 8.867 10.787 8.337zm8.367-14.18c-.26-4.833-4.404-8.541-9.254-8.282-4.978-.292-9.324 3.324-9.927 8.255l19.18.027zM0 90.646l21.106-21.507H.483v-6.8H30.88v6.881L9.774 90.726h21.482v6.775H0zM56.505 90.733a13.477 13.477 0 009.657-3.753l4.789 5.173a18.866 18.866 0 01-14.392 5.683c-11.702 0-19.26-7.774-19.26-18.28a17.845 17.845 0 015.203-13 17.976 17.976 0 0113.008-5.281c11.62 0 18.212 8.845 17.62 21.121H45.745c.79 5.189 5.519 8.852 10.76 8.337zm8.366-14.18c-.274-4.822-4.413-8.514-9.254-8.256-4.948-.263-9.258 3.33-9.872 8.23l19.126.026zM118.645 79.616a17.468 17.468 0 014.859-12.855 17.45 17.45 0 0112.65-5.357 15.073 15.073 0 0111.627 5.349V46h7.431v51.133h-7.43V92.32a14.887 14.887 0 01-11.682 5.537c-4.752-.041-9.287-2.001-12.574-5.436a17.629 17.629 0 01-4.88-12.804zm29.537 0c0-6.114-4.954-11.071-11.066-11.071-6.112 0-11.067 4.957-11.067 11.071 0 6.115 4.955 11.072 11.067 11.072s11.066-4.957 11.066-11.072zM202.806 90.025l6.708-3.627a9.96 9.96 0 008.954 5.132c4.196 0 6.36-2.176 6.36-4.648 0-2.472-4.062-3.44-8.471-4.353-5.96-1.263-12.108-3.225-12.108-10.48 0-5.561 5.346-10.747 13.524-10.747a16.006 16.006 0 0114.085 6.825l-6.227 3.654a9.019 9.019 0 00-7.831-4.004c-3.983 0-6.014 1.962-6.014 4.219 0 2.257 3.207 3.224 8.259 4.353 5.746 1.263 12.24 3.17 12.24 10.479 0 4.863-4.195 11.392-14.138 11.339-6.242.46-12.198-2.7-15.341-8.142zM251.695 81.585l-5.907 6.444v9.116h-7.464V46h7.464v33.473l15.815-17.432h9.075l-13.72 15L271 97.118h-8.404zM96.226 61.273c-8.882 0-16.311 5.773-16.311 15.332v20.54h7.617v-19.6a8.311 8.311 0 012.29-6.69 8.355 8.355 0 016.62-2.52c5.652 0 8.451 3.463 8.451 9.21v19.6h7.698v-20.54c0-9.56-7.483-15.332-16.365-15.332z"/>
  </g>
</svg>