<?xml version="1.0" encoding="utf-8"?>
<svg xmlns="http://www.w3.org/2000/svg" height="144" viewBox="0 0 271 144" width="271">
  <g fill="#231F20" fill-rule="evenodd">
    <path d="M116.986 143.47a37.143 37.143 0 004.02-.89 39.31 39.31 0 003.684-1.184c6.782-2.53.892-1.449 10.822 1.174 1.26.338 2.6.636 3.982.881 4.266.739 9.234.73 13.49-.005a42.015 42.015 0 004.605-1.067c2.987-.866 5.394-1.957 7.979-3.298 4.83-2.52 9.513-6.724 12.323-10.403 3.32-4.341 5.84-8.843 7.493-15.239 1.623-6.278 1.55-13.73-.162-20.024-3.29-12.053-10.828-20.215-20.037-25.265-9.626-5.27-21.964-6.195-32.605-2.368-6.444 2.31-2.29 2.226-8.096.176-16.806-5.956-34.15-1.077-45.223 12.126-12.343 14.71-11.921 35.957-.81 50.266 3.1 4.007 7.165 7.678 12.201 10.526 3.767 2.128 8.043 3.645 12.461 4.482 4.423.832 9.43.837 13.873.113zm2.996-8.89c-1.437.758-6.154 1.403-8.072 1.472-12.735.494-24.278-6.156-30.163-17.245C71.44 99.4 83.41 76.234 103.505 72.114c2.727-.553 5.64-.886 8.655-.715 1.732.103 6.831.725 7.96 1.478-.76.783-1.398 1.224-2.139 1.953-3.442 3.352-6.478 7.741-8.483 12.101-.54 1.184-2.07 4.722-2.129 5.995l8.273-.015c2.354-6.17 6.885-12.625 12.598-16.095 1.133.446 3.34 2.447 4.183 3.162 1.152.978 2.368 2.358 3.442 3.724 3.036 3.865 3.222 5.103 5.12 9.234h8.282c-.53-3.352-3.413-8.79-5.06-11.32-1.952-2.98-3.33-4.369-5.556-6.786-.648-.715-1.491-1.175-2.124-1.953 1.452-.763 6.09-1.37 8.043-1.478 17.943-.959 34.184 13.453 34.057 32.405-.04 5.755-1.575 10.99-3.85 15.214-2.119 3.93-5.203 7.54-8.655 10.247-7.027 5.495-16.673 8.035-25.882 6.273-1.33-.26-2.575-.675-3.796-.925.181-.376 2.334-2.28 2.731-2.681.78-.788 1.77-1.791 2.482-2.706 5.168-6.768 8.022-12.816 8.974-22.246l-19.189-.01.074 7.879 9.19.127c-.05.802-1.673 4.012-2.134 4.766-2.79 4.585-5.521 7.756-10.18 10.912-1.157-.386-4.722-3.591-5.894-4.82-1.418-1.473-3.404-4.281-4.448-6.077-.505-.862-2.045-3.798-2.163-4.767l9.259-.161.014-7.85-19.178.045c.49 3.283.725 5.77 1.682 8.769 1.657 5.187 3.982 9.479 7.233 13.516 2.432 3.034 2.947 3.048 4.948 5.109l.137.161zM67.716 42.722c-.01-3.108 0-6.226 0-9.339 0-1.475.073-2.813.852-3.733 1.66-1.967 4.386-.31 3.331-2.73-1.261-.314-11.043-.132-13.699-.132-.61 0-1.759-.064-2.301.01-.823.118-1.035.92-.503 1.411.937.861 4.223-.737 4.164 5.174-.02 2.262.252 7.323-.079 9.192-.152.202-.039.084-.241.26l-2.08 1.151c-.95.404-1.887.684-2.917.91-4.346.999-8.45.644-12.432-1.43-2.4-1.25-2.947-2.194-4.243-3.271-.562-.473-1.168-1.333-1.675-2.002-1.622-2.174-2.883-5.056-3.563-7.766-2.242-8.96.296-19.155 7.874-24.187 8.678-5.759 20.86-3.432 24.782 6.433.483 1.22.093 2.36 1.69 1.918.414-1.146.177-7.864.182-9.683-.231-.994-5.583-2.695-6.253-2.873C52.977-.005 44.102-.28 37 2.744c-8.436 3.585-14.226 10.52-13.994 22.524.212 11.386 6.967 17.784 15.478 21.06 7.258 2.798 15.812 2.158 23.303-.325 1.567-.517 5.395-2.12 5.928-3.28M124.641 2.25l.035-.876c-1.486-.592-7.701-.323-10.181-.323-1.171 0-2.446-.26-2.928.686-.226 1.567 4.33-.25 4.763 4.122.251 2.507.27 14.18.335 17.675.044 2.57.31 6.57-.044 8.994-1.339 8.98-10.639 17.196-20.687 11.619-3.434-1.91-6.584-5.513-7.16-10.703-.196-1.821-.157-23.751-.068-26.826.133-4.999 4.03-3.52 4.68-4.43C94.31.86 91.244 1.05 90.447 1.05c-3.932 0-10.23-.176-13.63 0-1.29.064-2.195 1.317.305 1.552 1.427.142 2.253.784 2.77 1.71.797 1.439.492 6.54.492 8.553 0 4.27-.182 14.291.044 17.866 1.422 22.11 34.73 23.609 38.957 2.066.551-2.8.408-13.797.428-17.342.02-2.977.015-6.018.084-8.99.108-4.347 3.395-3.56 4.743-4.215M172.258 41.37c0-1.722.354-8.599-.319-9.519-.86.168-.678 1.122-1.562 2.72-10.102 18.364-32.674 13.145-34.615-8.416-.482-5.328.835-10.493 3.08-14.276C144.11 3.01 156.88-.694 164.904 6.73c1.558 1.441 2.865 3.124 3.759 5.116.221.482.452.95.6 1.55.176.782.029 1.328.943 1.24.56-.93.275-3.415.275-4.689 0-1.092.152-4.034 0-4.91-.123-.663-.295-.575-1.342-1.17a19.483 19.483 0 00-1.63-.822c-5.715-2.612-14.83-3.915-21.08-2.4-10.312 2.509-17.85 9.041-19.122 20.503-1.464 13.13 5.38 21.202 14.45 24.847 8.717 3.512 15.615 2.48 24.08-1.107l4.845-2.509c.595-.383 1.066-.733 1.577-1.008M223.833 41.357c0-1.68.344-8.675-.344-9.52-.742.162-.786 1.179-1.568 2.717-.51 1.011-1.031 1.763-1.64 2.642-10.153 14.678-30.928 9.997-32.962-10.944-.91-9.383 3.488-18.794 12.456-22.258 8.127-3.134 16.756.01 20.353 7.639 1.027 2.186.53 2.682 1.37 3.07.87-.373.546-2.5.546-4.278 0-1.641.01-3.277.01-4.913 0-1.125-.737-1.4-2.58-2.25C213.725.586 204.714-.887 198.35.58c-7.538 1.744-13.783 5.586-17.282 12.551-1.115 2.225-1.832 4.937-2.181 7.776-.747 5.87.525 12.153 3.233 16.186 2.624 3.905 6.6 7.187 11.056 8.823 5.577 2.058 10.422 3.045 16.8 1.468 4.516-1.115 8.368-2.696 12.24-5.04.605-.363 1.106-.751 1.617-.987M229.334 45.766c-.119 1.785 1.758 1.37 3.26 1.37 2.43 0 12.85.161 13.768-.078.776-.195 1.922-1.707-.845-2.038-1.353-.171-2.252-.805-2.737-1.863-.676-1.493-.41-6.901-.41-8.925V6.897c.03-5.423 4.002-3.746 4.698-4.711 1.003-1.39-2.539-1.132-3.092-1.132-2.925 0-12.162-.195-13.768.02-.692.092-1.319.595-.657 1.224.36.341 1.339.258 1.932.38 1.15.249 2.05 1.195 2.386 2.21.508 1.536.232 24.53.232 27.218 0 3.023.05 6.09 0 9.114-.015 1.386-.44 2.439-1.374 3.16-1.309 1.01-2.593.171-3.393 1.386"/>
  </g>
</svg>