<?xml version="1.0" encoding="utf-8"?>
<svg xmlns="http://www.w3.org/2000/svg" height="144" viewBox="0 0 271 144" width="271">
  <g fill="#F26C11" fill-rule="nonzero">
    <path d="M44.94 105.867H36.49a18.356 18.356 0 00-.302-3.9 22.337 22.337 0 01-12.984 4.577h-4.038C8.655 105.796.811 96.658.082 85.864a19.374 19.374 0 010-3.563C.74 72.394 8.095 64.23 17.87 62.564a30.94 30.94 0 015.691-.445c3.208.034 6.381.668 9.356 1.87V41.367L44.94 38v67.867zm-22.411-8.532a11.116 11.116 0 0010.547-6.733 17.213 17.213 0 001.05-6.11v-.178c.02-1.809-.232-3.61-.748-5.344a11.278 11.278 0 00-10.832-7.588c-6.794.017-11.792 5.165-11.792 12.932 0 7.766 4.731 13.021 11.775 13.021zM121.308 105.488a21.292 21.292 0 01-6.475.553c-9.197-1.052-11.456-7.884-11.759-15.001V71.829h-7.293v-9.525h7.293v-11.63l11.92-4.05v15.68h7.115v9.525h-7.116v16.892c.142 3.371 1.05 5.173 2.775 5.708a6.814 6.814 0 004.305 0v10.917l-.765.142zM167.956 62.124v43.717h-11.381v-4.188a18.75 18.75 0 01-14.535 4.794c-10.937-.891-19.023-10.693-19.023-22.117 0-11.424 8.175-21.208 19.023-22.117.82 0 1.781-.143 2.779-.143a43.1 43.1 0 0115.425 2.477l7.712-2.423zM145.371 97.09c6.75 0 11.4-4.99 11.47-12.476v-.339c0-7.68-4.898-12.671-11.47-12.742-6.573-.072-11.56 5.115-11.56 12.742 0 7.628 4.63 12.815 11.56 12.815zM92.603 62.088v43.753H81.221v-4.188a18.75 18.75 0 01-14.534 4.794c-10.937-.891-19.024-10.693-19.024-22.117 0-11.424 8.176-21.208 19.024-22.117.819 0 1.78-.143 2.778-.143a43.1 43.1 0 0115.425 2.477l7.713-2.46zM70.017 97.09c6.751 0 11.4-4.99 11.471-12.476v-.339c0-7.68-4.898-12.671-11.47-12.742-6.573-.072-11.56 5.115-11.56 12.742 0 7.628 4.63 12.815 11.56 12.815zM202.514 105.637l-9.328-12.07-9.31 12.07H170.77l15.505-21.301-15.595-22.277h12.784l9.722 12.904 9.65-12.904h12.784l-15.523 22.277 15.47 21.3zM230.517 81.474v5.974c.447 4.943 3.24 7.556 8.431 7.556 5.192 0 7.985-2.613 8.36-7.556 0-1.867.144-3.894.144-5.974V62.059h12.19v23.113c.031 1.394-.017 2.79-.142 4.178-.752 9.921-8.665 16.287-20.444 16.287-12.728 0-20.713-6.952-20.713-18.616V62.13h12.192l-.018 19.344zM265.553 95.196a5.447 5.447 0 110 10.894 5.447 5.447 0 010-10.894zm0 .89a4.594 4.594 0 104.466 4.575 4.449 4.449 0 00-4.466-4.575zm-1.235 7.735h-.98v-6.3h2.414c1.508 0 2.252.562 2.252 1.815a1.652 1.652 0 01-1.652 1.816l1.815 2.778h-1.07l-1.69-2.742h-1.089v2.633zm0-3.632h1.235c1.18 0 1.561-.345 1.561-1.035s-.363-.78-1.561-.78h-1.308l.073 1.815z"/>
  </g>
</svg>