<?xml version="1.0" encoding="utf-8"?>
<svg xmlns="http://www.w3.org/2000/svg" height="144" viewBox="0 0 271 144" width="271">
  <g fill="none" fill-rule="evenodd">
    <path d="M14.055 78.735c2.033.352 8.526-1.146 10.735-8.863 2.253-7.935 1.104-6.348-5.433.397-3.535 3.66-6.317 8.29-5.302 8.466m5.7 5.027c7.067-2.514 6.979-11.685 5.83-9.127-1.148 2.513-1.9 4.54-4.373 5.951-1.944 1.103-3.313 1.235-5.698 1.192-1.989-.045-3.8-1.676-4.374.793-.618 2.733 6.008 2.117 8.614 1.19m-5.963-11.904c5.434-7.496 13.517-10.184 12.59-11.11-1.105-1.103-5.964.396-5.964.396C12.862 63.788 4.646 68.726 4.116 74.9c-.177 1.806.353 5.202 2.65 6.613 1.59.97 4.33-5.952 7.025-9.656M8.49 65.243c3.003-2.204 8.79-4.012 7.553-3.967-4.196.13-12.721 3.57-13.12 8.862-.132 1.675 2.563-2.69 5.567-4.895m-7.422 19.93c-.486-.706 1.457-1.104 1.81-1.896C4.647 79.925 1.51 81.292.186 73.62c-2.563-14.506 22.309-14.506 25.621-15.08 3.048-.528-.043-4.541 2.342-4.541.795 0 0 2.072.795 2.381.839.353 1.325-1.896 2.164-1.19 1.148.97-1.104 1.852-.486 2.469.442.44 1.502-.397 1.855.177.619.925-1.06 1.542-2.561 1.807-5.478.926 6.272 24.823-12.812 28.128-5.035.926-7.377-3.481-11.131-1.321-.928.53-1.59 2.556-2.166 1.72-.353-.53.575-1.368 0-1.72-.397-.22-.97.75-1.368.397-.31-.309.133-.794-.177-1.191-.265-.396-.884-.044-1.193-.485" fill="#009C56"/>
    <path d="M51.96 89.252c-5.859 0-6.938-4.45-6.938-8.861V75.63l-3.16.117V70.02l3.16.077v-7.43l7.17-.735v8.205l4.663-.117v5.727l-4.664-.155v4.645c0 2.089.617 2.863 2.12 2.863.77 0 1.812-.155 2.274-.503l1.58 4.992c-.732.502-1.965 1.663-6.205 1.663M67.7 71.135s2.98-1.865 7.646-1.865c3.53 0 5.293 3.108 5.293 6.566v12.975h-7.292v-8.78c0-3.185 0-5.361-2.627-5.361-1.373 0-3.02 1.01-3.02 1.01v13.131h-7.33V58.548l7.33-.582v13.169zM94.37 74.218c-1.772 0-4.082 1.094-4.39 2.266h5.89c.655 0 1.463 0 1.463-.586 0-1.367-1.309-1.68-2.964-1.68m-.885 15.475c-6.468 0-10.201-4.376-10.201-10.981 0-5.9 4.888-9.73 11.048-9.73 5.428 0 9.662 3.79 9.662 9.848v1.562h-14.05c0 2.267 2.617 3.322 4.541 3.322 2.272 0 3.504-.586 4.235-1.212l3.465 3.83c-.886.782-3.657 3.36-8.7 3.36M133.517 79.247c2.836 0 5.439-2.455 5.439-5.924 0-2.807-2.603-5.184-5.439-5.184-2.875 0-5.477 2.377-5.477 5.184 0 3.469 2.602 5.924 5.477 5.924m0 10.446c-8.78 0-15.423-6.821-15.423-16.37 0-8.965 7.537-15.357 15.423-15.357 7.848 0 15.423 6.392 15.423 15.357 0 9.549-6.643 16.37-15.423 16.37M170.778 71.658v-12.18l9.889-.658v30.873L161.51 76.545v12.372h-9.927V57.966zM184.633 88.811h10.134V59.288h-10.134zM213.274 79.247c2.836 0 5.44-2.455 5.44-5.924 0-2.807-2.604-5.184-5.44-5.184-2.874 0-5.477 2.377-5.477 5.184 0 3.469 2.603 5.924 5.477 5.924m0 10.446c-8.779 0-15.422-6.821-15.422-16.37 0-8.965 7.536-15.357 15.422-15.357 7.848 0 15.424 6.392 15.424 15.357 0 9.549-6.644 16.37-15.424 16.37M250.976 71.658v-12.18l9.889-.658v30.873L241.71 76.545v12.372h-9.928V57.966zM267.836 61.29c.48 0 1.24.08 1.24-.64 0-.522-.48-.601-.88-.601h-1.002v1.24h.642zm1.642 1.923h-.521l-1.002-1.602h-.76v1.602h-.441v-3.445h1.522c.28 0 .602 0 .841.16.28.16.4.441.4.76 0 .682-.48.923-1.082.923l1.043 1.602zm1.162-1.723a2.702 2.702 0 00-2.725-2.723 2.727 2.727 0 00-2.724 2.723 2.727 2.727 0 002.724 2.724 2.702 2.702 0 002.725-2.724zm-5.81 0a3.06 3.06 0 013.085-3.083A3.06 3.06 0 01271 61.49a3.062 3.062 0 01-3.085 3.086 3.06 3.06 0 01-3.084-3.086z" fill="#231F20"/>
  </g>
</svg>