<?xml version="1.0" encoding="utf-8"?>
<svg xmlns="http://www.w3.org/2000/svg" height="144" viewBox="0 0 271 144" width="271">
  <g fill="none" fill-rule="evenodd">
    <path d="M0 42.378h93.065V15.635H0v26.743zm6.117-6.117h80.831v-14.51H6.117v14.51z" fill="#00B38D"/>
    <path d="M17.142 59.233v10.22H5.498v-10.22H.136V84.95h5.362V74.144h11.644V84.95h5.36V59.233z" fill="#231F20"/>
    <g fill="#231F20">
      <path d="M31.214 73.39h7.078c-.126-2.01-1.256-3.435-3.31-3.435-1.716 0-3.182 1.09-3.768 3.435zm-.168 3.392c.419 3.058 2.64 4.315 5.404 4.315 2.051 0 3.517-.462 5.36-1.634v4.272c-1.55 1.131-3.644 1.634-6.156 1.634-5.696 0-9.592-3.686-9.592-9.634 0-5.863 3.686-9.926 8.796-9.926 5.445 0 8.251 3.77 8.251 9.298v1.675H31.046zM63.297 78.164l3.35-11.936h5.027l-5.696 18.721h-4.776l-3.057-11.475-3.057 11.475h-4.775l-5.697-18.721h5.194l3.35 11.936 3.058-11.936h3.98zM90.716 73.39h7.078c-.126-2.01-1.256-3.435-3.31-3.435-1.716 0-3.182 1.09-3.768 3.435zm-.168 3.392c.419 3.058 2.64 4.315 5.403 4.315 2.052 0 3.518-.462 5.361-1.634v4.272c-1.55 1.131-3.644 1.634-6.156 1.634-5.696 0-9.592-3.686-9.592-9.634 0-5.863 3.685-9.926 8.796-9.926 5.444 0 8.25 3.77 8.25 9.298v1.675H90.549zM149.64 63.798h-4.817v7.665h4.816c2.764 0 4.105-1.592 4.105-3.812 0-2.303-1.34-3.853-4.105-3.853zm-4.817 12.23v8.922h-5.32V59.233h10.471c5.445 0 9.047 2.932 9.047 8.418 0 5.445-3.602 8.378-9.047 8.378h-5.151zM171.754 78.5c-.461-1.006-1.843-1.634-3.309-1.634-1.633 0-3.309.712-3.309 2.304 0 1.633 1.676 2.304 3.31 2.304 1.465 0 2.847-.63 3.308-1.635V78.5zm0-5.236c0-1.8-1.55-2.932-4.188-2.932a9.267 9.267 0 00-5.11 1.508v-4.482c1.34-.837 3.77-1.549 6.24-1.549 5.152 0 8.042 2.638 8.042 7.203V84.95h-4.984v-1.006c-.628.629-2.472 1.34-4.524 1.34-3.769 0-6.91-2.177-6.91-6.072 0-3.56 3.141-5.99 7.246-5.99 1.633 0 3.434.545 4.188 1.089v-1.047zM189.98 65.809c1.885 0 3.728.419 5.068 1.466v4.733c-1.256-1.131-2.764-1.676-4.44-1.676-2.764 0-4.942 1.927-4.942 5.277 0 3.31 2.178 5.278 4.942 5.278 1.676 0 3.184-.586 4.44-1.675v4.691c-1.34 1.047-3.183 1.466-5.068 1.466-5.32 0-9.466-3.77-9.466-9.76 0-6.03 4.147-9.8 9.466-9.8M217.296 84.95h-6.074l-6.743-8.628v8.628h-5.194V57.725h5.194v15.916l6.408-7.413h6.241l-7.79 8.586zM229.484 78.5c-.461-1.006-1.843-1.634-3.309-1.634-1.633 0-3.309.712-3.309 2.304 0 1.633 1.676 2.304 3.31 2.304 1.465 0 2.847-.63 3.308-1.635V78.5zm0-5.236c0-1.8-1.55-2.932-4.188-2.932a9.267 9.267 0 00-5.11 1.508v-4.482c1.34-.837 3.77-1.549 6.24-1.549 5.152 0 8.042 2.638 8.042 7.203V84.95h-4.984v-1.006c-.628.629-2.472 1.34-4.524 1.34-3.769 0-6.91-2.177-6.91-6.072 0-3.56 3.141-5.99 7.246-5.99 1.633 0 3.434.545 4.188 1.089v-1.047zM250.768 71.337c-.712-.418-1.634-.628-2.597-.628-1.759 0-3.183.922-3.56 2.639V84.95h-5.194V66.228h5.194v1.843c.796-1.34 2.345-2.262 4.188-2.262.88 0 1.676.167 1.969.334v5.194zM265.68 72.51c-.587-1.256-2.011-2.178-3.519-2.178-2.806 0-4.481 2.262-4.481 5.278 0 2.973 1.675 5.235 4.481 5.235 1.55 0 2.932-.88 3.518-2.178V72.51zm0 10.89c-.838 1.005-2.682 1.969-4.692 1.969-5.445 0-8.502-4.398-8.502-9.76 0-5.36 3.057-9.8 8.502-9.8 2.01 0 3.854.963 4.691 1.968V57.725h5.235V84.95h-5.235V83.4zM82.78 81.755c-1.566 0-2.519-.856-2.55-2.517h.078v-19.82h-5.193v20.075c0 4.231 2.638 6.66 6.618 6.66 1.214 0 2.136-.167 2.89-.503v-4.398c-.545.378-1.216.503-1.844.503M125.581 71.264h4.727v-4.23h-4.727v-7.617h-5.194v7.617h-7.5v-7.617h-5.193v7.617h-3.407v4.23h3.407V79.493c0 4.231 2.64 6.66 6.618 6.66 1.214 0 2.136-.167 2.89-.503v-4.398c-.545.378-1.215.503-1.843.503-1.566 0-2.518-.855-2.55-2.517h.079v-7.974h7.499V79.493c0 4.231 2.639 6.66 6.617 6.66 1.215 0 2.137-.167 2.891-.503v-4.398c-.545.378-1.214.503-1.843.503-1.565 0-2.518-.855-2.55-2.517h.079v-7.974zM16.93 95.153v2.955H3.72v8.187h11.986v2.955H3.721v8.82h13.21v2.996H.428V95.153zM21.91 102.328h3.166v2.364c1.098-1.478 3.123-2.744 5.528-2.744 4.263 0 6.584 2.744 6.584 6.838v12.28h-3.207v-11.774c0-2.617-1.308-4.432-4.136-4.432-2.194 0-4.093 1.477-4.77 3.504v12.702h-3.164v-18.738zM57.574 109.756h9.664c-.127-2.743-1.519-5.106-4.558-5.106-2.49 0-4.515 1.645-5.106 5.106zm-.17 2.49c.128 4.347 2.87 6.415 6.29 6.415 2.11 0 3.629-.506 5.317-1.773v2.912c-1.52 1.182-3.46 1.647-5.697 1.647-5.403 0-9.032-3.672-9.032-9.58 0-5.825 3.376-9.919 8.356-9.919 5.064 0 7.681 3.672 7.681 9.159v1.139H57.404zM84.247 105.493c-.507-.337-1.309-.506-2.11-.506-1.984 0-3.714 1.308-4.347 3.503v12.576h-3.165v-18.738h3.165v2.448c.801-1.604 2.574-2.827 4.642-2.827.802 0 1.477.126 1.815.295v3.25zM90.702 115.496c.97 1.941 2.828 3.08 4.811 3.08 3.587 0 5.698-2.911 5.698-6.879 0-3.967-2.11-6.879-5.698-6.879-1.983 0-3.84 1.14-4.81 3.081v7.597zm0 12.745h-3.165v-25.913h3.165v2.195c.97-1.351 2.954-2.575 5.276-2.575 5.528 0 8.44 4.559 8.44 9.75 0 5.19-2.912 9.748-8.44 9.748-2.322 0-4.305-1.224-5.276-2.574v9.37zM118.98 105.493c-.506-.337-1.307-.506-2.109-.506-1.984 0-3.714 1.308-4.347 3.503v12.576h-3.165v-18.738h3.165v2.448c.802-1.604 2.575-2.827 4.642-2.827.802 0 1.478.126 1.815.295v3.25zM122.907 121.066h3.165v-18.738h-3.165v18.738zm1.56-22.368c-1.096 0-2.025-.928-2.025-2.025 0-1.14.929-2.026 2.026-2.026 1.14 0 2.068.886 2.068 2.026 0 1.097-.928 2.025-2.068 2.025zM130.63 116.213c1.73 1.604 3.883 2.532 6.162 2.532 2.068 0 3.883-.76 3.883-2.616 0-1.393-1.056-2.153-2.702-2.702l-2.574-.886c-2.827-.928-4.727-2.279-4.727-5.317 0-3.292 2.912-5.276 6.626-5.276 2.11 0 4.052.591 5.571 1.646v3.293c-1.562-1.309-3.292-2.238-5.57-2.238-1.942 0-3.546.844-3.546 2.448 0 1.52 1.013 2.026 2.785 2.659l2.87.97c2.828.971 4.39 2.618 4.39 5.276 0 3.46-3.081 5.444-7.006 5.444-2.448 0-4.77-.76-6.162-1.857v-3.376zM150.255 109.756h9.664c-.127-2.743-1.52-5.106-4.558-5.106-2.49 0-4.516 1.645-5.106 5.106zm-.17 2.49c.127 4.347 2.87 6.415 6.289 6.415 2.11 0 3.629-.506 5.318-1.773v2.912c-1.52 1.182-3.462 1.647-5.698 1.647-5.402 0-9.031-3.672-9.031-9.58 0-5.825 3.376-9.919 8.356-9.919 5.064 0 7.68 3.672 7.68 9.159v1.139h-12.914zM50.17 118.661c-1.857 0-3.08-1.181-3.08-3.419v-1.618h.078v-8.616h4.971v-2.645h-4.971v-4.654h-3.201v4.654h-4.31v2.645h4.31V115.497c0 3.756 2.447 5.95 5.739 5.95 1.013 0 1.73-.127 2.448-.422v-2.871c-.591.38-1.309.507-1.984.507"/>
    </g>
  </g>
</svg>