<?xml version="1.0" encoding="utf-8"?>
<svg xmlns="http://www.w3.org/2000/svg" height="144" viewBox="0 0 271 144" width="271">
  <g fill="#2F3033" fill-rule="nonzero">
    <path d="M202.068 62.996c7.51 0 12.289 3.803 12.289 11.279v15.191h-6.912l.03-3.005c-1.382 2.123-4.35 3.746-8.025 3.746-5.921-.004-9.53-3.904-9.528-8.135 0-4.834 3.667-7.524 8.292-8.18 0 0 7.596-.919 8.674-1.07 0-3.19-2.916-3.913-5.823-3.913-2.974 0-5.345 1.06-7.175 2.312l-2.71-4.812c2.841-2.048 6.575-3.413 10.888-3.413zm5.07 14.438l-6.55.92c-1.919.263-3.447 1.267-3.447 3.28-.003 1.537 1.183 3.02 3.614 3.02 3.164.001 6.382-1.447 6.382-6.055v-1.165zM40.994 66.244c1.884-2.538 4.694-3.437 7.585-3.437 6.002 0 10.286 4.043 10.286 9.988v16.301h-7.121V75.012c0-3.696-1.91-5.732-5.156-5.732-3.056 0-5.594 1.928-5.594 5.787v14.027h-7.119V53h7.12V66.244zM136.055 73.122v16.53h-7.174V75.37c0-3.748-1.96-5.812-5.213-5.812-3.09 0-5.655 1.955-5.655 5.868v14.223h-7.201V75.37c0-3.748-1.932-5.812-5.215-5.812-3.09 0-5.656 1.955-5.656 5.868v14.223H92.74V63.691h7.009v3.054c1.902-2.758 4.826-3.75 7.862-3.75 3.863 0 7.036 1.688 8.829 4.446 2.068-3.294 5.573-4.445 9.076-4.445 6.29 0 10.54 4.097 10.54 10.126zM147.064 53v13.307c1.725-2.033 4.216-3.399 7.776-3.399 7.233 0 12.713 5.698 12.866 13.324l.003.326c0 7.789-5.533 13.649-12.842 13.649-3.67 0-6.217-1.443-7.941-3.53v2.86h-6.983V53h7.121zm6.47 16.105c-4.117 0-6.927 3.081-6.927 7.22 0 4.135 2.81 7.218 6.927 7.218 4.285 0 6.956-3.22 6.956-7.219 0-4.002-2.67-7.22-6.956-7.22zM242.096 67.878l-5.193 4.19c-1.627-1.682-3.37-2.59-5.715-2.59-3.727 0-6.708 2.829-6.708 7.125 0 4.318 2.952 7.124 6.679 7.124 2.322 0 4.31-1.014 5.83-2.617l5.134 4.241c-2.514 3.122-6.267 4.856-10.742 4.856-8.533 0-14.248-5.762-14.248-13.604 0-7.817 5.715-13.607 14.248-13.607 4.475 0 8.256 1.76 10.715 4.882zM269.525 63.475l-9.681 9.577L271 89.094h-8.759l-7.443-11.597-3.255 3.226v8.373h-7.199V53h7.199v19.999l9.32-9.524h8.664zM81.178 86.724c-1.885 2.574-4.695 3.483-7.584 3.483-6.003 0-10.287-4.097-10.287-10.125v-16.53h7.122v14.281c0 3.748 1.909 5.812 5.155 5.812 3.056 0 5.594-1.956 5.594-5.867V63.551h7.12v25.96h-7.12v-2.787zM168.82 63.95h3.895v-7.618h7.127v7.616h7.929v6.136h-7.929v10.844c0 1.794 1.285 2.88 2.696 2.88 1.482 0 3.415-.898 3.415-.898l2.303 5.488s-2.45 1.809-7.92 1.809c-3.619 0-7.621-2.643-7.621-7.774V70.084h-3.895v-6.136.002zM19.436 62.996v16.43a15.64 15.64 0 01-2.254 8.07l-1.634 2.711-1.631-2.712a15.638 15.638 0 01-2.255-8.069V66.478c1.928-2.57 4.81-3.482 7.773-3.482h.001zM0 53h31.654v6.664H0z"/>
  </g>
</svg>