<?xml version="1.0" encoding="utf-8"?>
<svg xmlns="http://www.w3.org/2000/svg" height="144" viewBox="0 0 271 144" width="271">
  <g fill="none" fill-rule="evenodd">
    <path d="M30.84 33.606c1.272 0 2.744.683 3.932 2.255.12-.007.238-.011.354-.011 4.177 0 6.552 3.558 7.898 7.43l2.255-.696c.336-.099 1.199-.233 1.641.21.417.417 4.022 3.996 4.433 4.404l.038.038s5.8.43 6.075.452c.275.023.607.234.659.613.052.38 8.238 55.73 8.238 55.73l-23.321 5.045L0 101.011s5.524-42.717 5.733-44.223c.277-1.99.343-2.056 2.454-2.718.344-.108 3.03-.941 6.813-2.113 1.458-6.183 6.108-18.35 15.84-18.35zm-1.593 25.842c-10.212 0-15.27 6.82-15.27 13.868 0 8.374 8.354 8.601 8.354 13.697 0 1.232-.87 2.918-3.011 2.918-3.279 0-7.162-3.334-7.162-3.334l-1.978 6.536s3.778 4.598 11.166 4.598c6.158 0 10.724-4.636 10.724-11.835 0-9.151-10.184-10.648-10.184-14.555 0-.716.228-3.557 4.756-3.557 3.088 0 5.608 1.345 5.608 1.345l2.875-8.554s-1.943-1.127-5.878-1.127zm1.326-23.23c-6.99 0-10.917 9.178-12.572 14.81l5.946-1.842c1.412-7.382 4.755-11.08 7.875-12.548-.405-.279-.829-.42-1.249-.42zm2.893 2.736c-2.375 1.019-5.089 3.719-6.538 9.308l7.523-2.329.002-.422c0-2.905-.389-5.057-.987-6.557zm2.67-.476c.536 1.535.87 3.473.87 5.88 0 .276-.002.529-.003.785l3.642-1.127c-.922-2.819-2.356-5.268-4.51-5.538z" fill="#95BE46"/>
    <path d="M57.466 47.688c-.274-.022-6.075-.452-6.075-.452s-4.028-4-4.471-4.442c-.164-.166-.388-.25-.621-.286l-3.255 66.567 23.32-5.044s-8.187-55.35-8.239-55.73c-.052-.38-.384-.59-.659-.613" fill="#5E8D3E"/>
    <path d="M93.55 76.61c-2.326-1.262-3.522-2.326-3.522-3.787 0-1.861 1.661-3.057 4.253-3.057 3.02 0 5.715 1.262 5.715 1.262l2.127-6.512s-1.956-1.529-7.709-1.529c-8.008 0-13.557 4.586-13.557 11.032 0 3.654 2.592 6.446 6.048 8.439 2.792 1.594 3.788 2.725 3.788 4.386 0 1.728-1.396 3.124-3.987 3.124-3.861 0-7.51-1.994-7.51-1.994l-2.259 6.512s3.368 2.26 9.038 2.26c8.24 0 14.154-4.054 14.154-11.363 0-3.922-2.99-6.713-6.58-8.773M126.378 62.921c-4.053 0-7.243 1.927-9.702 4.85l-.133-.065 3.523-18.408h-9.171l-8.905 46.85h9.17l3.057-16.015c1.197-6.048 4.32-9.77 7.244-9.77 2.06 0 2.858 1.396 2.858 3.39 0 1.262-.133 2.79-.4 4.054l-3.455 18.341h9.171l3.589-18.94c.398-1.994.664-4.385.664-5.98 0-5.184-2.725-8.307-7.51-8.307M150.103 89.768c-3.123 0-4.452-2.658-4.452-5.98 0-5.25 2.724-13.823 7.708-13.823 3.257 0 4.32 2.791 4.32 5.516 0 5.649-2.725 14.287-7.576 14.287m4.52-26.847c-11.032 0-18.342 9.968-18.342 21.065 0 7.11 4.386 12.826 12.625 12.826 10.833 0 18.142-9.702 18.142-21.066 0-6.578-3.853-12.825-12.426-12.825M181.735 89.901c-2.381 0-3.787-1.328-3.787-1.328L179.476 80c1.063-5.716 4.054-9.504 7.244-9.504 2.79 0 3.655 2.593 3.655 5.05 0 5.915-3.523 14.355-8.64 14.355m8.772-26.98c-6.189 0-9.702 5.45-9.702 5.45h-.133l.532-4.918h-8.107c-.4 3.322-1.13 8.373-1.861 12.16l-6.38 33.56h9.17l2.526-13.557h.2s1.882 1.196 5.382 1.196c10.766 0 17.81-11.031 17.81-22.195 0-6.18-2.725-11.696-9.437-11.696M213.035 49.763c-2.923 0-5.249 2.326-5.249 5.317 0 2.724 1.728 4.585 4.32 4.585h.133c2.857 0 5.316-1.928 5.382-5.317 0-2.657-1.794-4.585-4.586-4.585M200.21 96.148h9.171l6.247-32.496h-9.237zM238.953 63.585h-6.38l.332-1.528c.531-3.124 2.392-5.914 5.45-5.914 1.632 0 2.923.464 2.923.464l1.794-7.177s-1.595-.797-4.984-.797c-3.256 0-6.512.93-8.97 3.057-3.124 2.659-4.586 6.512-5.317 10.367l-.266 1.528h-4.253l-1.33 6.911h4.254l-4.852 25.652h9.171l4.851-25.652h6.314l1.263-6.91zM261.015 63.652s-5.732 14.444-8.306 22.328h-.133c-.177-2.537-2.26-22.328-2.26-22.328h-9.636l5.517 29.838c.132.664.066 1.063-.2 1.528-1.063 2.06-2.858 4.054-4.984 5.515-1.728 1.263-3.655 2.06-5.183 2.592l2.524 7.776c1.86-.4 5.716-1.927 8.972-4.984 4.186-3.922 8.041-9.968 12.028-18.209l11.23-24.056h-9.569z" fill="#231F20"/>
  </g>
</svg>