<?xml version="1.0" encoding="utf-8"?>
<svg xmlns="http://www.w3.org/2000/svg" height="144" viewBox="0 0 271 144" width="271">
  <g fill="none" fill-rule="evenodd">
    <path d="M33.4982 42.4583v29.5834c0-7.897-6.3961-14.2986-14.286-14.2986-7.89 0-14.286 6.4017-14.286 14.2986 0 7.8969 6.396 14.2986 14.286 14.2986 7.8899 0 14.286-6.4017 14.286-14.2986V42.4583zM68.9668 54.2917V75c0 6.263-5.0727 11.3403-11.3303 11.3403-6.2575 0-11.3302-5.0772-11.3302-11.3403V54.2917M109.3616 72.0417c0-7.897-6.396-14.2986-14.286-14.2986-7.8899 0-14.286 6.4017-14.286 14.2986 0 7.8969 6.3961 14.2986 14.286 14.2986 7.89 0 14.286-6.4017 14.286-14.2986zM122.1697 42.4583V75c0 5.9908 4.8522 10.8472 10.8377 10.8472h6.8967M148.7712 56.264v34.5137" stroke="#78C800" stroke-width="9"/>
    <path d="M153.2048 48.375c0 2.4508-1.985 4.4375-4.4336 4.4375s-4.4336-1.9867-4.4336-4.4375 1.985-4.4375 4.4336-4.4375 4.4336 1.9867 4.4336 4.4375z" fill="#78C800" fill-rule="nonzero"/>
    <path d="M185.225 90.7778V69.0833c0-3.8753-2.0656-7.4563-5.4187-9.394a10.8293 10.8293 0 00-10.8377 0c-3.3531 1.9377-5.4188 5.5187-5.4188 9.394v21.6945M225.62 72.0417c0 7.8969-6.3961 14.2986-14.286 14.2986-7.89 0-14.286-6.4017-14.286-14.2986 0-7.897 6.396-14.2986 14.286-14.2986 7.8899 0 14.286 6.4017 14.286 14.2986v19.7222c.4328 6.0286-2.9684 11.6784-8.4958 14.1126-5.5274 2.4342-11.987 1.127-16.1353-3.2654M266.0148 72.0417c0-7.897-6.396-14.2986-14.286-14.2986s-14.286 6.4017-14.286 14.2986c0 7.8969 6.396 14.2986 14.286 14.2986s14.286-6.4017 14.286-14.2986z" stroke="#78C800" stroke-width="9"/>
  </g>
</svg>