<?xml version="1.0" encoding="utf-8"?>
<svg xmlns="http://www.w3.org/2000/svg" height="144" viewBox="0 0 271 144" width="271">
  <g fill="#122147" fill-rule="evenodd">
    <path d="M26.609 105.385h1.477v9.267c-.022 3.483 1.698 4.805 4.547 4.805 2.868 0 4.586-1.322 4.566-4.805v-9.267h1.477v9.585c0 3.08-1.72 5.7-6.043 5.7-4.306 0-6.024-2.62-6.024-5.7v-9.585zM41.894 109.728h1.332v1.885h.04c.485-1.315 1.941-2.205 3.484-2.205 3.064 0 3.993 1.615 3.993 4.221v7.041h-1.332v-6.828c0-1.89-.61-3.31-2.763-3.31-2.113 0-3.381 1.612-3.422 3.753v6.385h-1.332v-10.942zM53.96 107.547h1.61v-2.162h-1.61v2.162zm0 13.123h1.61v-11.046h-1.61v11.046zM57.983 109.408h1.473l3.407 9.887h.04l3.367-9.887h1.367l-4.06 11.262h-1.408zM77.57 114.295c-.064-1.961-1.299-3.794-3.437-3.794-2.159 0-3.36 1.858-3.564 3.794h7zm-7.001 1.094c.02 1.895 1.028 4.188 3.564 4.188 1.926 0 2.976-1.113 3.396-2.723h1.323c-.568 2.41-1.994 3.816-4.719 3.816-3.44 0-4.887-2.598-4.887-5.632 0-2.802 1.448-5.63 4.887-5.63 3.48 0 4.863 2.99 4.761 5.98H70.57zM81.313 109.568h1.282v2.603h.044c.704-1.787 2.25-2.84 4.305-2.759v1.36c-2.52-.128-4.242 1.676-4.242 3.978v5.92h-1.39v-11.102zM95.694 112.83c-.066-1.608-1.33-2.332-2.852-2.332-1.184 0-2.578.456-2.578 1.836 0 1.158 1.355 1.571 2.259 1.795l1.776.393c1.522.23 3.103 1.093 3.103 2.949 0 2.308-2.342 3.2-4.37 3.2-2.534 0-4.267-1.158-4.479-3.757h1.33c.109 1.752 1.44 2.665 3.214 2.665 1.247 0 2.977-.541 2.977-2.027 0-1.233-1.184-1.648-2.389-1.937l-1.71-.371c-1.732-.453-3.042-1.033-3.042-2.846 0-2.166 2.177-2.99 4.1-2.99 2.174 0 3.908 1.114 3.99 3.422h-1.33zM99.816 107.547h1.609v-2.162h-1.61v2.162zm0 13.123h1.609v-11.046h-1.61v11.046zM107.177 109.505h2.292v1.13h-2.292v7.448c0 .874.134 1.386 1.114 1.455.394 0 .787-.022 1.178-.069v1.156c-.415 0-.808.045-1.224.045-1.83 0-2.466-.6-2.442-2.483v-7.552h-1.965v-1.13h1.965v-3.315h1.374v3.315zM111.078 109.408h1.408l3.578 9.513 3.345-9.513h1.323l-4.71 12.868c-.758 1.879-1.2 2.417-2.86 2.417-.526-.02-.8-.02-1.01-.103v-1.145c.313.061.611.105.902.105 1.18 0 1.452-.714 1.894-1.752l.462-1.277-4.332-11.113zM130.128 115.038c0 2.268 1.283 4.54 3.877 4.54 2.593 0 3.878-2.272 3.878-4.54 0-2.268-1.285-4.536-3.878-4.536-2.594 0-3.877 2.268-3.877 4.536m9.107 0c0 3.055-1.844 5.632-5.23 5.632-3.385 0-5.228-2.577-5.228-5.632 0-3.054 1.843-5.63 5.228-5.63 3.386 0 5.23 2.576 5.23 5.63M146.202 110.757h-2.16v9.913h-1.334v-9.913h-1.864v-1.131h1.864v-1.007c-.023-1.906.507-3.234 2.644-3.234.382 0 .7.022 1.123.084v1.158c-.36-.063-.654-.11-.974-.11-1.479 0-1.438.945-1.46 2.144v.965h2.161v1.131zM166.51 109.58c-.517-2.383-2.48-3.742-4.723-3.742-4.071 0-5.8 3.415-5.8 6.787 0 3.376 1.729 6.792 5.8 6.792 2.848 0 4.658-2.208 4.938-4.955h1.47c-.412 3.788-2.805 6.208-6.408 6.208-4.848 0-7.267-3.827-7.267-8.045 0-4.214 2.419-8.044 7.267-8.044 2.915 0 5.803 1.752 6.19 4.998h-1.467zM177.637 114.548h-.045c-.175.307-.787.407-1.159.473-2.341.39-5.25.372-5.25 2.455 0 1.296 1.225 2.105 2.515 2.105 2.1 0 3.96-1.262 3.94-3.342v-1.691zm-7.352-1.569c.132-2.493 1.994-3.571 4.573-3.571 1.991 0 4.16.58 4.16 3.424v5.655c0 .494.258.783.81.783.15 0 .328-.042.435-.083v1.091a3.855 3.855 0 01-.895.083c-1.403 0-1.62-.74-1.62-1.855h-.047c-.96 1.38-1.944 2.164-4.111 2.164-2.08 0-3.786-.965-3.786-3.116 0-2.985 3.084-3.089 6.063-3.417 1.138-.124 1.77-.274 1.77-1.445 0-1.753-1.334-2.187-2.953-2.187-1.71 0-2.977.743-3.02 2.474h-1.38zM182.676 120.67h1.609v-15.285h-1.609zM188.307 107.547h1.61v-2.162h-1.61v2.162zm0 13.123h1.61v-11.046h-1.61v11.046zM197.688 110.757h-2.16v9.913h-1.334v-9.913h-1.864v-1.131h1.864v-1.007c-.023-1.906.507-3.234 2.644-3.234.382 0 .697.022 1.123.084v1.158c-.36-.063-.654-.11-.974-.11-1.483 0-1.438.945-1.46 2.144v.965h2.161v1.131zM200.115 115.038c0 2.268 1.284 4.54 3.878 4.54 2.597 0 3.88-2.272 3.88-4.54 0-2.268-1.283-4.536-3.88-4.536-2.594 0-3.878 2.268-3.878 4.536m9.108 0c0 3.055-1.843 5.632-5.23 5.632-3.388 0-5.228-2.577-5.228-5.632 0-3.054 1.84-5.63 5.228-5.63 3.387 0 5.23 2.576 5.23 5.63M211.637 109.568h1.282v2.603h.043c.709-1.787 2.254-2.84 4.306-2.759v1.36c-2.517-.128-4.244 1.676-4.244 3.978v5.92h-1.387v-11.102zM218.877 109.728h1.327v1.885h.044c.487-1.315 1.945-2.205 3.483-2.205 3.067 0 3.995 1.615 3.995 4.221v7.041h-1.334v-6.828c0-1.89-.61-3.31-2.767-3.31-2.108 0-3.377 1.612-3.421 3.753v6.385h-1.327v-10.942zM231.749 107.547h1.609v-2.162h-1.61v2.162zm0 13.123h1.609v-11.046h-1.61v11.046zM243.601 114.548h-.044c-.174.307-.785.407-1.161.473-2.338.39-5.247.372-5.247 2.455 0 1.296 1.227 2.105 2.515 2.105 2.1 0 3.957-1.262 3.937-3.342v-1.691zm-7.348-1.569c.134-2.493 1.991-3.571 4.569-3.571 1.992 0 4.157.58 4.157 3.424v5.655c0 .494.262.783.812.783.148 0 .326-.042.438-.083v1.091a3.907 3.907 0 01-.9.083c-1.402 0-1.618-.74-1.618-1.855h-.044c-.96 1.38-1.947 2.164-4.109 2.164-2.08 0-3.787-.965-3.787-3.116 0-2.985 3.081-3.089 6.059-3.417 1.137-.124 1.771-.274 1.771-1.445 0-1.753-1.336-2.187-2.953-2.187-1.706 0-2.976.743-3.013 2.474h-1.382zM27.28 138.593c-.066 3.18 2.226 4.15 5.035 4.15 1.62 0 4.084-.884 4.084-3.134 0-1.748-1.75-2.442-3.173-2.79l-3.438-.842c-1.816-.45-3.478-1.319-3.478-3.719 0-1.512.97-4.347 5.314-4.347 3.049 0 5.726 1.645 5.704 4.8h-1.47c-.087-2.355-2.031-3.545-4.21-3.545-2.014 0-3.87.779-3.87 3.067 0 1.452 1.08 2.056 2.336 2.36l3.758.933c2.18.58 4 1.534 4 4.061 0 1.062-.435 4.413-5.902 4.413-3.654 0-6.333-1.647-6.157-5.407h1.468zM47.312 137.872h-.044c-.174.31-.786.414-1.16.472-2.34.393-5.248.372-5.248 2.458 0 1.3 1.223 2.104 2.514 2.104 2.102 0 3.96-1.255 3.938-3.343v-1.69zm-7.347-1.567c.131-2.494 1.99-3.568 4.57-3.568 1.99 0 4.158.578 4.158 3.424v5.653c0 .495.261.786.807.786.152 0 .328-.045.439-.085v1.094c-.307.06-.525.082-.899.082-1.4 0-1.62-.742-1.62-1.857h-.04c-.962 1.383-1.948 2.166-4.115 2.166-2.076 0-3.785-.968-3.785-3.113 0-2.992 3.084-3.096 6.063-3.426 1.135-.126 1.77-.268 1.77-1.445 0-1.756-1.335-2.186-2.952-2.186-1.706 0-2.977.743-3.02 2.475h-1.376zM52.352 132.25h1.332v1.888h.04c.487-1.313 1.944-2.205 3.483-2.205 3.063 0 3.994 1.612 3.994 4.222v7.04h-1.334v-6.828c0-1.892-.608-3.31-2.762-3.31-2.112 0-3.38 1.61-3.421 3.754v6.385h-1.332v-10.947zM71.66 127.91v15.286h1.45v-7.283h7.29v-1.239h-7.29v-5.519h8.203v-1.244zM82.922 132.09h1.282v2.602h.044c.705-1.784 2.252-2.839 4.305-2.754v1.357c-2.518-.127-4.238 1.681-4.238 3.981v5.92h-1.393v-11.107zM97.997 137.872h-.046c-.174.31-.786.414-1.16.472-2.34.393-5.249.372-5.249 2.458 0 1.3 1.223 2.104 2.516 2.104 2.1 0 3.96-1.255 3.94-3.343v-1.69zm-7.353-1.567c.134-2.494 1.993-3.568 4.572-3.568 1.993 0 4.16.578 4.16 3.424v5.653c0 .495.262.786.81.786.15 0 .328-.045.434-.085v1.094a4.05 4.05 0 01-.894.082c-1.4 0-1.621-.742-1.621-1.857h-.042c-.964 1.383-1.949 2.166-4.115 2.166-2.08 0-3.786-.968-3.786-3.113 0-2.992 3.083-3.096 6.063-3.426 1.138-.126 1.772-.268 1.772-1.445 0-1.756-1.333-2.186-2.955-2.186-1.707 0-2.977.743-3.02 2.475h-1.378zM102.23 132.25h1.329v1.888h.043c.486-1.313 1.94-2.205 3.482-2.205 3.064 0 3.994 1.612 3.994 4.222v7.04h-1.334v-6.828c0-1.892-.61-3.31-2.766-3.31-2.11 0-3.376 1.61-3.419 3.754v6.385h-1.33v-10.947zM122.536 136.387c-.36-1.59-1.35-2.558-3.087-2.558-2.555 0-3.824 2.271-3.824 4.537 0 2.273 1.27 4.54 3.824 4.54 1.651 0 3.003-1.256 3.172-3.033h1.329c-.356 2.556-2.067 4.127-4.501 4.127-3.335 0-5.153-2.58-5.153-5.634 0-3.05 1.818-5.629 5.153-5.629 2.325 0 4.12 1.217 4.42 3.65h-1.333zM126.363 130.075h1.61v-2.164h-1.61v2.164zm0 13.12h1.61v-11.05h-1.61v11.05zM138.33 136.162c-.066-1.61-1.333-2.332-2.855-2.332-1.182 0-2.574.454-2.574 1.834 0 1.158 1.354 1.571 2.257 1.796l1.777.394c1.522.224 3.104 1.092 3.104 2.947 0 2.31-2.343 3.199-4.37 3.199-2.537 0-4.269-1.154-4.48-3.753h1.333c.105 1.752 1.433 2.659 3.21 2.659 1.248 0 2.976-.535 2.976-2.021 0-1.236-1.18-1.649-2.385-1.94l-1.71-.37c-1.735-.451-3.043-1.032-3.043-2.848 0-2.163 2.175-2.99 4.098-2.99 2.177 0 3.908 1.115 3.99 3.425h-1.328zM149.886 136.387c-.361-1.59-1.352-2.558-3.086-2.558-2.555 0-3.822 2.271-3.822 4.537 0 2.273 1.267 4.54 3.822 4.54 1.651 0 3-1.256 3.171-3.033h1.33c-.36 2.556-2.068 4.127-4.5 4.127-3.334 0-5.153-2.58-5.153-5.634 0-3.05 1.82-5.629 5.152-5.629 2.325 0 4.121 1.217 4.413 3.65h-1.327zM155.065 138.369c0 2.27 1.284 4.537 3.882 4.537 2.593 0 3.876-2.267 3.876-4.537s-1.283-4.54-3.876-4.54c-2.598 0-3.882 2.27-3.882 4.54m9.108 0c0 3.051-1.84 5.631-5.226 5.631-3.388 0-5.232-2.58-5.232-5.631 0-3.053 1.844-5.632 5.232-5.632 3.386 0 5.226 2.579 5.226 5.632M204.397 37.566V26.763h-41.108v39.802c-.218-4.66-1.923-8.28-5.15-10.823-2.23-1.759-5.58-3.163-10.047-4.212l-10.195-2.407c-3.936-.92-6.507-1.722-7.718-2.405-1.114-.604-1.892-1.394-2.35-2.364h-.002c-.003-.006-.003-.012-.01-.018v-.002a5.472 5.472 0 01-.474-2.267c0-1.778.61-3.296 1.876-4.485v-.004a.991.991 0 01.086-.078c.274-.25.578-.488.913-.708 1.913-1.265 4.471-1.892 7.677-1.892 2.887 0 5.295.483 7.236 1.458 2.904 1.467 4.47 3.954 4.684 7.445h11.666c-.212-6.17-2.505-10.877-6.881-14.121-4.378-3.246-9.66-4.869-15.858-4.869-7.424 0-13.05 1.722-16.88 5.163-2.353 2.113-3.982 4.564-4.889 7.345h-.002c-.199.598-.36 1.22-.489 1.849-1.42 6.7-5.737 11.247-12.95 11.247-11.546 0-15.885-9.821-15.885-19.562 0-10.233 4.339-20.05 15.884-20.05 6.387 0 11.957 4.417 12.772 10.23h12.449C127.195 7.53 116.387 0 103.532 0c-17.256 0-27.73 12.282-28.665 28.467V1.393H62.009V37.73c0 8.674-2.947 12.687-12.115 12.687-10.401 0-12.036-6.303-12.036-12.687V1.393H25V37.73c0 15.878 9.172 23.492 24.894 23.492 15.643 0 24.973-7.694 24.973-23.492v-4.554c.935 15.76 11.41 28.046 28.664 28.046 7.092 0 13.142-2.286 17.6-6.361.274.224.56.44.86.644 2.313 1.604 6.559 3.088 12.741 4.454l6.286 1.376c3.683.792 6.371 1.695 8.067 2.72 1.697 1.049 2.544 2.535 2.544 4.452 0 3.281-1.73 5.528-5.192 6.733-1.822.63-4.199.951-7.12.951-4.887 0-8.332-1.198-10.343-3.588-1.1-1.313-1.842-3.294-2.215-5.95H115.17c0 6.042 2.192 10.79 6.574 14.244 4.382 3.453 10.399 5.181 18.045 5.181 7.491 0 13.284-1.755 17.39-5.263 3.772-3.223 5.809-7.21 6.11-11.96v16.35h12.856V61.058h24.485v-9.985h-24.485V37.566h28.252z"/>
  </g>
</svg>