<?xml version="1.0" encoding="utf-8"?>
<svg xmlns="http://www.w3.org/2000/svg" height="144" viewBox="0 0 271 144" width="271">
  <g fill="none" fill-rule="evenodd">
    <path d="M264.605 65.586v.52h.892v2.592h.535v-2.593h.89v-.519zM270.43 65.588l-1.183 2.195-1.185-2.195h-.432v3.108h.48v-1.992l1.078 1.992h.063l1.08-1.982v1.982h.493v-3.108z" fill="#635954"/>
    <path d="M89.626 77.103a2.478 2.478 0 00-1.075-.503c-2.31 2.307-5.132 4.737-7.641 6.368-1.155.77-2.615 1.156-3.575 1.156-2.217 0-3.18-2.114-3.47-5.476-.389-4.516-.648-9.921-.648-18.277 0-8.574-1.944-14.397-7.126-14.853a6.214 6.214 0 00-.672-.035c-3.178 0-4.723 1.631-6.746 5.76-1.736 3.56-4.436 8.743-9.447 18.54-4.336 8.455-9.156 15.945-13.301 21.129-1.156 1.442-2.068 2.424-2.925 2.993-.572.371-1.123.56-1.7.56-1.637 0-2.83-1.38-3.23-4.594a20.76 20.76 0 01-.143-2.607c0-6.63 2.505-17.384 6.84-33.232C37.95 42.502 36.6 34.63 29.66 34.63h-.078l-.008.003c-1.57.018-2.873.588-4.13 1.575-1.23.97-2.47 3.071-3.625 5.901-1.3 3.183-9.216 19.056-21.81 27.235-.151 3.108 1.612 6.219 5.179 6.552 3.245.308 5.549-1.058 8.519-3.054a591.59 591.59 0 00-.616 2.765c-.223 1.003-.41 1.867-.564 2.564-.224 1.04-.367 1.704-.41 1.89a53.196 53.196 0 00-.897 5.395c-1.779 15.874 5.579 23.708 14.198 23.708 1.442 0 2.864-.17 4.285-.532 9.494-2.409 18.634-13.296 29.451-38.368a70.413 70.413 0 00-.064 7.639c.715 14.368 6.4 18.68 14.43 18.68 6.067 0 11.757-3.172 14.648-7.109 2.12-2.784 2.99-5.86 2.99-8.26 0-1.863-.591-3.354-1.532-4.11" fill="#ED5252"/>
    <path d="M110.283 75.712V57.367h7.882V75.57c0 6.536 2.932 7.885 6.972 7.885 4.372 0 6.63-1.926 6.63-7.885V57.367h7.929v18.345c0 10.815-4.708 15.335-14.948 15.335-9.515 0-14.465-3.893-14.465-15.335zm51.307 12.835c-1.972 1.49-4.232 2.403-7.45 2.403-6.778 0-11.681-4.18-11.681-12.788 0-8.553 5.624-13.167 12.837-13.167 1.68 0 3.312.24 4.803.818v-10.51h7.597v35.068h-4.81l-1.296-1.824zm-5.865-4.086c1.731 0 3.026-.288 4.374-1.298V72.395c-1.202-.72-2.403-1.058-4.134-1.058-3.7 0-5.813 2.502-5.813 6.684 0 4.085 2.163 6.44 5.573 6.44zm28.279 6.391c-7.306 0-13.171-3.6-13.171-13.12 0-8.89 5.673-12.737 12.208-12.737 7.884 0 11.392 5.527 11.392 14.228h-15.91c.531 4.277 3.173 5.527 6.68 5.527 3.397 0 6.05-.836 8.1-2.22l-1.025 6.025c-1.964 1.514-4.315 2.297-8.274 2.297zm-5.433-15.282h9.756c-.526-3.222-2.257-4.758-4.852-4.758-2.212 0-4.326 1.296-4.904 4.758zm26.484-2.115V90.37h-7.593V65.619h5.337l1.586 2.164c2.063-1.733 4.278-2.739 6.824-2.739 3.41 0 6.008 1.006 7.596 3.505 2.305-2.111 4.757-3.505 7.882-3.505 5.862 0 9.277 3.026 9.277 11.249V90.37h-7.595V77.157c0-3.799-1.54-4.906-3.99-4.906-1.44 0-2.645.387-3.992 1.25.097.865.149 1.78.149 2.792V90.37h-7.596V77.157c0-3.799-1.54-4.906-4.037-4.906-1.393 0-2.546.338-3.848 1.204zm37.363 25.169h7.525l13.023-33.005h-7.45l-5.381 16.442-5.673-16.442h-8.313l9.898 23.84-3.629 9.165z" fill="#635954"/>
  </g>
</svg>