<?xml version="1.0" encoding="utf-8"?>
<svg xmlns="http://www.w3.org/2000/svg" height="144" viewBox="0 0 271 144" width="271">
  <g fill="#007AFF" fill-rule="nonzero">
    <path d="M245.142 68.907c-.226-1.468-.452-3.5-1.92-5.082-1.242-1.355-3.274-2.032-5.08-2.032-2.485 0-4.292 1.242-5.308 2.371-1.468 1.581-1.806 3.275-2.145 4.743h14.453zM255.53 82.23c-1.242 1.807-2.484 3.613-4.29 5.307-3.05 2.936-7.679 5.081-13.325 5.081-10.5 0-17.953-6.775-17.953-18.518 0-8.695 4.178-19.76 18.18-19.76 2.145 0 8.242.225 12.759 5.194 4.63 4.968 4.855 11.969 4.968 16.034h-25.293c-.113 4.516 2.484 8.92 8.017 8.92 5.759 0 7.678-3.726 8.92-6.323l8.017 4.065zm-60.41-23.487c1.016-1.129 1.694-1.92 3.5-2.823 1.581-.677 3.952-1.242 6.437-1.242 2.145 0 4.516.452 6.323 1.468 3.726 2.033 4.63 5.194 4.63 10.727v24.503H205.62V71.165c0-3.275-.113-4.404-.451-5.307-.79-1.92-2.597-2.71-4.63-2.71-5.533 0-5.533 4.517-5.533 8.92v19.31h-10.501V55.581h10.501l.113 3.162zm-17.163-12.308c0 3.162-2.484 5.646-5.646 5.646-3.049 0-5.646-2.597-5.646-5.646 0-3.161 2.484-5.646 5.646-5.646 3.161 0 5.646 2.598 5.646 5.646m-10.84 9.034h10.275v35.907h-10.275V55.47zm-7.001 35.907h-10.501V40h10.5v51.377zm-25.858-22.47c-.226-1.468-.452-3.5-2.033-5.082-1.242-1.355-3.274-2.032-5.08-2.032-2.485 0-4.292 1.242-5.308 2.371-1.468 1.581-1.807 3.275-2.145 4.743h14.566zm10.501 13.324c-1.242 1.807-2.484 3.613-4.29 5.307-3.05 2.936-7.679 5.081-13.438 5.081-10.501 0-17.954-6.775-17.954-18.518 0-8.695 4.178-19.76 18.18-19.76 2.145 0 8.243.225 12.76 5.194 4.63 4.968 4.855 11.969 5.08 16.034h-25.405c-.113 4.516 2.484 8.92 8.13 8.92 5.758 0 7.678-3.726 9.033-6.323l7.904 4.065zm-40.876-1.807c0-.113-.225-.113-.225 0-.226.339-.452.79-.79 1.13-2.146 2.483-4.743 2.483-5.308 2.483-5.533 0-7.904-5.984-7.904-10.727 0-4.29 1.92-10.84 7.565-10.84 1.581 0 2.936.565 3.952 1.242 1.468 1.017 2.146 2.033 2.71 3.162.113.113.226.113.226.113.79-2.936 2.259-5.759 4.517-8.017-4.065-3.84-8.808-4.517-11.856-4.517-11.857 0-17.841 8.808-17.841 19.196 0 14.68 10.84 18.744 17.615 18.744 3.952 0 7.452-1.355 10.162-3.274.565-.452 1.13-.904 1.581-1.355-2.032-1.807-3.613-4.291-4.404-7.34zM74.751 46.436c0 3.162-2.484 5.646-5.646 5.646-3.049 0-5.646-2.597-5.646-5.646 0-3.161 2.484-5.646 5.646-5.646s5.646 2.598 5.646 5.646M63.91 55.47h10.275v35.907H63.911V55.47zm-14.68 3.726c2.259-2.033 4.856-3.614 10.276-4.065v9.372l-3.5.564c-4.969.904-6.55 1.694-6.55 6.21V91.49h-10.5V55.47h10.162v3.726h.113zm-31.616 2.936c-1.92 0-3.84.79-5.42 2.935-1.468 2.033-2.145 5.082-2.145 8.47 0 4.516 1.129 7.339 2.484 8.807a6.256 6.256 0 004.63 2.032c5.08 0 7.339-5.533 7.339-11.179 0-4.742-1.242-9.71-5.533-10.84-.452-.112-.903-.225-1.355-.225zM9.259 58.97c.339-.452.678-.79 1.016-1.13 1.807-1.693 4.969-3.16 8.92-3.16 8.695 0 15.47 6.661 15.47 18.63 0 7.34-3.161 18.745-15.356 18.745-3.952 0-5.985-1.355-8.808-3.05v14.793H0V55.582h9.26v3.388zM263.209 43.84c1.468 0 2.71.338 3.952 1.015 1.242.678 2.145 1.694 2.823 2.823.677 1.242 1.016 2.484 1.016 3.84 0 1.354-.339 2.71-1.016 3.839a6.803 6.803 0 01-2.823 2.823c-1.242.677-2.484 1.016-3.952 1.016s-2.71-.339-3.952-1.016c-1.242-.678-2.146-1.694-2.823-2.823-.678-1.242-1.017-2.485-1.017-3.84s.34-2.71 1.017-3.839a6.803 6.803 0 012.823-2.823c1.242-.677 2.484-1.016 3.952-1.016m0 13.663c1.129 0 2.145-.226 3.048-.79a6.495 6.495 0 002.146-2.146c.564-.903.79-1.92.79-2.936s-.226-2.032-.79-2.935a6.495 6.495 0 00-2.146-2.146c-.903-.564-1.92-.79-2.935-.79-1.13 0-2.146.226-3.05.79a6.495 6.495 0 00-2.144 2.146c-.565.903-.79 1.92-.79 2.935 0 1.017.225 2.033.79 2.936a6.495 6.495 0 002.145 2.146c.79.564 1.807.79 2.936.79m3.274-7.227c0 .565-.113 1.017-.338 1.468-.226.452-.565.678-1.017.904l1.581 2.37h-2.145l-1.13-2.032h-1.354v2.033h-1.92V47.79h3.162c1.016 0 1.693.226 2.258.678.678.338.903 1.016.903 1.806m-4.403 1.243h1.355c.451 0 .677-.113.903-.34.226-.225.339-.45.339-.903 0-.338-.113-.677-.34-.903-.225-.226-.564-.339-.902-.339h-1.355v2.485z"/>
  </g>
</svg>