<?xml version="1.0" encoding="utf-8"?>
<svg xmlns="http://www.w3.org/2000/svg" height="900" viewBox="0 0 1720 900" width="1720">
  <defs>
    <path d="m0 0h1720v900h-1720z" id="a"/>
    <mask fill="#fff" id="b">
      <use fill="#fff" fill-rule="evenodd" href="#a"/>
    </mask>
  </defs>
  <g fill="none" fill-rule="evenodd">
    <use fill="#091e61" fill-rule="nonzero" href="#a"/>
    <g mask="url(#b)" opacity=".6">
      <g transform="translate(-227 -29)">
        <path d="m227 29h1720v900h-1720z" fill="#091e61" fill-rule="nonzero"/>
        <g fill="none" fill-rule="evenodd">
          <g fill="#091854" fill-rule="nonzero" opacity=".6" transform="translate(214 18)">
            <path d="m1035.73 531.94 4 95.88-156.73-4z"/>
            <path d="m1096.41 676.59-64.68 45.05 8-93.82z"/>
            <path d="m895 6.12 50.81 72.41-54.81 17.59z"/>
            <path d="m386.84 785.97-95.69 90.01-47.1-107.6z"/>
            <path d="m175.73 721.64-37.23 127.15-86.01-8z"/>
            <path d="m134.5 623.82 41.23 97.82-74.19-37.05z"/>
            <path d="m1627.94 680.59 34.6 62.37-110.65 25.42z"/>
            <path d="m1631.94 443.8v146.88l-39.09 29.14z"/>
            <path d="m183.73 594.68 60.32 173.7-68.32-46.74z"/>
            <path d="m1031.73 721.64-363.5-8 214.77-89.82z"/>
            <path d="m1031.73 721.64 158.42 252.95-125.1 30.58z"/>
            <path d="m1829.65 164.36 32.95 283.44-141.95-31.84z"/>
            <path d="m240.05 500.58-56.32 94.1-105.18-58.74z"/>
            <path d="m109.54 164.36 32.96 283.44-141.96-31.84z"/>
            <path d="m293.66.9-16.85 134.88-105.08-61.25z"/>
          </g>
          <g stroke="#204ecf" transform="translate(35 82)">
            <path d="m247.55 461.94-78.01-119.98 109-251.6 167.27-28.58-105.08-61.25-62.19 89.83-140.93-64.24-26.18 190.74 58.11 125.1 141.96 31.84-63.95 88.14-55.55 16.76-111.16-108.9-39.1 176.02 39.1-29.14 84.7 41.14 50.83-16 87.13 8 41.23 97.82-74.19-37.05-140.93 33.05-18.18 25.32-34.59-62.37-76.06 87.79 132.83 68.41 87.88 4 86.01 8 105.55-80.41 47.1 107.6 107.33 102.61-11.64-192.62-146.79-285.39 36.76-364.8-134.31 312.02"/>
            <path d="m1889.65 341.96-88.71 27.84v146.88l111.17-37.98z"/>
            <path d="m1967.66 461.94-78.01-119.98 109-251.6 167.27-28.58-105.08-61.25-62.19 89.83-140.93-64.24-26.18 190.74 58.11 125.1 141.95 31.84-63.94 88.14-55.55 16.76-111.17-108.9-39.09 176.02 39.09-29.14 84.71 41.14 50.82-16 87.13 8 41.24 97.82-74.19-37.05-140.93 33.05-18.18 25.32-34.6-62.37-76.05 87.79 132.83 68.41 87.88 4 86 8 105.56-80.41 47.1 107.6 107.33 102.61-11.64-192.62-146.79-285.39 36.76-364.8-134.32 312.02"/>
          </g>
          <g stroke="#183a9e" transform="translate(4)">
            <path d="m491.15 883.98-90.01 197.34-62.64-224.53 37.23-127.15-123.24 119.15-91.88-123.15 35.93-85.82 105 52.77-49.05 156.2 4 156.38 82.01-148.38 152.65 27.19 95.69-90.01-142.79-17.59-68.32-46.74 8-126.96-105.18-58.74 55.95 87.88"/>
            <path d="m334.5 631.82-32.96 60.77-54.17-68.77 31.18-79.88 161.5-35.36-56.32 94.1z"/>
            <path d="m111.84 451.8-111.42 104.9 72.32 71.12 123.8 12 26.46-79.12 24.37 63.12"/>
            <path d="m196.54 639.82-88.7 48.77 52.77 37.05 4 119.15 91.88 160.38-120.06 4-108.65-101.64"/>
            <path d="m383.73 602.68 60.32 173.7-4-267.8-97.55-52.78-32.96-283.44-167.11 126.5"/>
            <path d="m371.73 82.53-105.25-69.07-97.87 94.66"/>
            <path d="m493.66 8.9-227.18 4.56 43.06 158.9"/>
            <path d="m168.61 108.12 4-105.73 93.87 11.07"/>
            <path d="m2211.26 883.98-90.01 197.34-62.65-224.53 37.24-127.15-123.24 119.15-91.88-123.15 35.93-85.82 105 52.77-49.05 156.2 4 156.38 82-148.38 152.66 27.19 95.69-90.01-142.79-17.59-68.32-46.74 8-126.96-105.18-58.74 55.94 87.88"/>
            <path d="m1831.94 451.8-111.42 104.9 72.33 71.12 123.8 12 26.46-79.12 24.36 63.12"/>
            <path d="m1916.65 639.82-88.71 48.77 52.78 37.05 4 119.15 91.88 160.38-120.06 4-108.65-101.64"/>
            <path d="m1792.85 627.82 35.09 60.77"/>
            <path d="m1862.54 750.96-110.65 25.42-4 131.15 136.83-62.74z"/>
            <path d="m1884.72 844.79-28.18 164.38"/>
            <path d="m2103.84 602.68 60.32 173.7-4-267.8-97.56-52.78-32.95-283.44-167.11 126.5"/>
            <path d="m2091.84 82.53-105.25-69.07-97.87 94.66"/>
            <path d="m1888.72 108.12 4-105.73 93.87 11.07"/>
            <path d="m1751.89 776.38-303.01-152.56-152.47 60.77-27.36-89.91-29.32 41.14-8 93.82-148.73-97.82 152.73-91.88-121.02-400.16 31.1-53.25-54.81 17.59-82.59-104.12-136.18 104.12-395.42 39.66 16.85-134.88-121.93 73.63"/>
            <path d="m872.23 104.12h218.77l23.71 35.66-31.71 492.04 156.73 4-4-95.88 33.32 54.74 179.83 29.14 379.06 64.77"/>
            <path d="m1239.73 635.82 56.68 48.77-64.68 45.05-140.73 158.34 64.67 102.61-159.28-4 94.61-98.61-222.77-166.34 214.77-89.82"/>
            <path d="m1155.67 990.59 109.38 22.58-174.05-125.19"/>
            <path d="m586.84 793.97 281.39-72.33 363.5 8 158.42 252.95-125.1 30.58-33.32-283.53"/>
            <path d="m440.05 508.58 428.18 213.06"/>
            <path d="m1145.81 86.53 146.6-76.41 70.46 4-23.36 90-193.7-17.59-50.81-72.41-4 90"/>
            <path d="m1114.71 139.78 224.8-35.66-47.1-94-197.41 4-86.59-14.12"/>
            <path d="m1339.51 104.12 549.21 4-525.85-94"/>
          </g>
          <g fill-rule="nonzero">
            <circle cx="227" cy="560.7" fill="#0f256e" r="4" stroke="#204ecf"/>
            <circle cx="282.55" cy="543.94" fill="#204ecf" r="4"/>
            <circle cx="346.5" cy="455.8" fill="#204ecf" r="4"/>
            <circle cx="480.81" cy="143.78" fill="#204ecf" r="4"/>
            <circle cx="876.23" cy="104.12" fill="#183a9e" r="4"/>
            <circle cx="305.54" cy="692.59" fill="#204ecf" r="4"/>
            <circle cx="444.05" cy="508.58" fill="#0f256e" r="4" stroke="#204ecf"/>
            <circle cx="590.84" cy="793.97" fill="#204ecf" r="4"/>
            <circle cx="1243.73" cy="635.82" fill="#0f256e" r="4" stroke="#183a9e"/>
            <circle cx="1087" cy="631.82" fill="#0f256e" r="4" stroke="#183a9e"/>
            <circle cx="1235.73" cy="729.64" fill="#183a9e" r="4"/>
            <circle cx="1300.41" cy="684.59" fill="#183a9e" r="4"/>
            <circle cx="1452.88" cy="623.82" fill="#183a9e" r="4"/>
            <circle cx="313.54" cy="172.36" fill="#0f256e" r="4" stroke="#204ecf"/>
            <circle cx="375.73" cy="82.53" fill="#204ecf" r="4"/>
            <circle cx="872.23" cy="721.64" fill="#183a9e" r="4"/>
            <circle cx="1095" cy="887.98" fill="#0f256e" r="4" stroke="#183a9e"/>
            <circle cx="1239.73" cy="539.94" fill="#183a9e" r="4"/>
            <circle cx="1095" cy="104.12" fill="#183a9e" r="4"/>
            <circle cx="1149.81" cy="86.53" fill="#0f256e" r="4" stroke="#183a9e"/>
            <circle cx="1343.51" cy="104.12" fill="#183a9e" r="4"/>
            <circle cx="1118.71" cy="139.78" fill="#0f256e" r="4" stroke="#183a9e"/>
            <circle cx="1273.05" cy="594.68" fill="#183a9e" r="4"/>
            <circle cx="342.5" cy="856.79" fill="#204ecf" r="4"/>
            <circle cx="379.73" cy="729.64" fill="#204ecf" r="4"/>
            <circle cx="387.73" cy="602.68" fill="#204ecf" r="4"/>
            <circle cx="448.05" cy="776.38" fill="#204ecf" r="4"/>
            <circle cx="338.5" cy="631.82" fill="#204ecf" r="4"/>
            <circle cx="251.37" cy="623.82" fill="#0f256e" r="4" stroke="#204ecf"/>
            <circle cx="495.15" cy="883.98" fill="#0f256e" r="4" stroke="#204ecf"/>
            <circle cx="256.49" cy="848.79" fill="#0f256e" r="4" stroke="#204ecf"/>
            <circle cx="1947.11" cy="560.7" fill="#0f256e" r="4" stroke="#204ecf"/>
            <circle cx="1866.54" cy="298.86" fill="#204ecf" r="4"/>
            <circle cx="1920.65" cy="639.82" fill="#0f256e" r="4" stroke="#204ecf"/>
            <circle cx="1884.72" cy="725.64" fill="#204ecf" r="4"/>
            <circle cx="1924.65" cy="423.96" fill="#204ecf" r="4"/>
            <circle cx="1835.94" cy="451.8" fill="#204ecf" r="4"/>
            <circle cx="1724.52" cy="556.7" fill="#0f256e" r="4" stroke="#183a9e"/>
            <circle cx="1866.54" cy="750.96" fill="#204ecf" r="4"/>
            <circle cx="1892.72" cy="108.12" fill="#204ecf" r="4"/>
            <circle cx="1796.85" cy="627.82" fill="#204ecf" r="4"/>
            <circle cx="1835.94" cy="598.68" fill="#204ecf" r="4"/>
            <circle cx="1831.94" cy="688.59" fill="#204ecf" r="4"/>
            <circle cx="1755.89" cy="776.38" fill="#183a9e" r="4"/>
            <circle cx="1888.72" cy="844.79" fill="#0f256e" r="4" stroke="#183a9e"/>
            <circle cx="1751.89" cy="907.53" fill="#0f256e" r="4" stroke="#183a9e"/>
          </g>
        </g>
      </g>
    </g>
  </g>
</svg>