<?xml version="1.0" encoding="utf-8"?>
<svg xmlns="http://www.w3.org/2000/svg" fill="none" height="48" viewBox="0 0 49 48" width="49">
<g clip-path="url(#clip0_2229_19985)">
<path d="M24.5 0.375V47.625C30.7657 47.625 36.7748 45.1359 41.2054 40.7054C45.6359 36.2748 48.125 30.2657 48.125 24C48.125 17.7342 45.6359 11.7251 41.2054 7.2946C36.7748 2.86405 30.7657 0.375 24.5 0.375Z" fill="#183A9E" opacity="0.15"/>
<path d="M16.8697 41.6788H15.4912L13.0799 39.2676L13.077 31.9311H12.2197L9.8287 29.5401V26.6249L8.31596 25.1114L6.78221 25.1106L1.10547 19.4339L1.63572 18.9036L7.09271 24.3606L8.62646 24.3614L10.5787 26.3136V29.2296L12.5302 31.1811H13.8262L13.8299 38.9571L15.8017 40.9288H16.1197V39.7273L20.0024 35.8476V34.3671L22.0304 32.3384V29.1351H20.0039L15.5992 24.7311H11.7277L11.7285 22.5404L14.9257 19.3596H17.1502L18.8947 17.6211V14.7734L16.4737 12.3531H14.5477L12.7815 14.1194L9.87521 11.2124L11.7315 9.35313V3.89014H12.4815V9.66363L10.9357 11.2124L12.7815 13.0589L14.2372 11.6031H16.7842L19.6447 14.4629V17.9324L17.4599 20.1096H15.2354L12.4785 22.8524L12.4777 23.9811H15.9104L20.3152 28.3851H22.7804V32.6489L20.7524 34.6776V36.1581L16.8697 40.0378V41.6788Z" fill="#204ECF"/>
<path d="M36.9735 37.3676H35.5317L31.6499 33.4854V29.0125H27.0246L24.125 26.1154V21.7955L26.2281 19.6938H32.8456L38.7533 25.6173V30.8581L36.9735 32.6383L36.9735 37.3676ZM35.8423 36.6176H36.2235V32.3278L38.0032 30.5476V25.9271L32.5342 20.4439H26.5387L24.875 22.1061V25.8048L27.3352 28.2625H32.3999V33.1748L35.8423 36.6176Z" fill="#204ECF"/>
<path d="M42.653 18.6894H38.8903L35.8161 15.6174H34.3086L32.3106 13.7567H26.9766V8.20292L33.1648 1.88867L33.7003 2.41367L27.7266 8.50891V13.0067H32.6061L34.6033 14.8674H36.1273L39.2008 17.9394H42.3425L43.4435 16.8399H47.1365V17.5899H43.754L42.653 18.6894Z" fill="#204ECF"/>
<path d="M24.5 48C19.7532 48 15.1131 46.5924 11.1663 43.9552C7.21953 41.3181 4.1434 37.5698 2.3269 33.1844C0.510399 28.799 0.0351195 23.9734 0.961163 19.3178C1.88721 14.6623 4.17298 10.3859 7.52944 7.02944C10.8859 3.67298 15.1623 1.38721 19.8178 0.461164C24.4733 -0.464881 29.2989 0.0103987 33.6844 1.8269C38.0698 3.6434 41.8181 6.71954 44.4552 10.6663C47.0924 14.6131 48.4999 19.2532 48.4999 24C48.4928 30.363 45.9619 36.4633 41.4626 40.9626C36.9633 45.462 30.863 47.9928 24.5 48ZM24.5 0.75001C19.9016 0.75001 15.4064 2.1136 11.583 4.66834C7.75955 7.22308 4.77954 10.8542 3.01981 15.1026C1.26007 19.351 0.799646 24.0258 1.69675 28.5358C2.59386 33.0459 4.8082 37.1886 8.05977 40.4402C11.3113 43.6918 15.4541 45.9061 19.9641 46.8032C24.4742 47.7003 29.149 47.2399 33.3974 45.4802C37.6457 43.7204 41.2769 40.7404 43.8316 36.917C46.3863 33.0935 47.7499 28.5984 47.7499 24C47.7429 17.8359 45.2911 11.9262 40.9324 7.56752C36.5737 3.20883 30.6641 0.757029 24.5 0.75001Z" fill="#204ECF"/>
</g>
<defs>
<clipPath id="clip0_2229_19985">
<rect fill="white" height="48" transform="translate(0.5)" width="48"/>
</clipPath>
</defs>
</svg>