<?xml version="1.0" encoding="utf-8"?>
<svg xmlns="http://www.w3.org/2000/svg" height="27" width="120">
  <g fill="#FFF" fill-rule="evenodd">
    <path d="M106.633 8.804c-.016-2.83 1.924-5.302 4.695-5.982 2.77-.68 5.651.609 6.97 3.119l-2.271.731a3.865 3.865 0 0 0-4.216-1.545 3.822 3.822 0 0 0-2.818 3.471 3.813 3.813 0 0 0 2.425 3.751 3.87 3.87 0 0 0 4.36-1.086l-1.352.219-1.64-1.626 3.53-.562 3.536-.563-.567 3.5-.568 3.498-1.686-1.665.16-.962a6.222 6.222 0 0 1-6.736 1.336 6.126 6.126 0 0 1-3.822-5.656v.022zm-71.432 1.823c-.03.659.11 1.315.403 1.907a3.8 3.8 0 0 0 1.135 1.322c.498.359 1.06.62 1.657.77a7.532 7.532 0 0 0 1.941.254 7.395 7.395 0 0 0 2.163-.281 4.613 4.613 0 0 0 1.572-.788c.412-.327.74-.745.96-1.22.216-.48.326-1 .323-1.525a2.839 2.839 0 0 0-.443-1.643 3.429 3.429 0 0 0-1.01-1.035 4.251 4.251 0 0 0-1.198-.563 9.363 9.363 0 0 0-.93-.253l-1.845-.467a7.306 7.306 0 0 1-1.096-.354 1.208 1.208 0 0 1-.522-.4 1.061 1.061 0 0 1-.136-.562c-.009-.224.05-.446.17-.636.112-.164.254-.306.42-.416.175-.11.366-.19.568-.236.21-.045.426-.068.641-.068.308-.01.616.013.92.068.263.048.516.146.743.286.218.138.392.333.505.563a2 2 0 0 1 .239.838h2.565a3.54 3.54 0 0 0-.403-1.76 3.334 3.334 0 0 0-1.061-1.204 4.402 4.402 0 0 0-1.555-.67 7.31 7.31 0 0 0-1.805-.22c-.549.002-1.095.075-1.624.22a4.56 4.56 0 0 0-1.453.67c-.426.296-.784.68-1.05 1.125a3.111 3.111 0 0 0-.386 1.592 3.01 3.01 0 0 0 .307 1.406c.206.373.488.699.829.956.346.264.728.478 1.135.636.43.16.87.295 1.317.405.437.124.874.237 1.3.332.386.092.765.21 1.135.355.3.112.577.282.811.5.217.205.335.492.324.788.009.27-.075.537-.239.754a1.7 1.7 0 0 1-.567.45c-.241.114-.497.194-.76.236-.253.033-.507.05-.761.05a4.414 4.414 0 0 1-1.04-.09 2.965 2.965 0 0 1-.862-.382 2.001 2.001 0 0 1-.567-.686 2.167 2.167 0 0 1-.222-1.018l-2.548-.006zm29.447-5.063l1.52 4.388h-3.12l1.6-4.388zm-5.858 8.888V2.644h-3.735l-2.702 8.22-2.838-8.22h-3.712v11.949h2.48l.035-8.405 2.957 8.388h2.043l2.992-8.472v8.489h5.108l.948-2.66h4.507l.908 2.66h2.753L66.016 2.644h-2.72L58.79 14.452zm10.898-3.82c-.027.66.113 1.316.409 1.908.27.521.659.973 1.135 1.322a4.884 4.884 0 0 0 1.657.765 7.527 7.527 0 0 0 1.941.253 7.44 7.44 0 0 0 2.163-.281 4.613 4.613 0 0 0 1.572-.788c.415-.326.745-.744.965-1.22.216-.48.324-1 .318-1.525a2.827 2.827 0 0 0-.437-1.643 3.44 3.44 0 0 0-1.016-1.035 4.245 4.245 0 0 0-1.198-.563 9.146 9.146 0 0 0-.93-.253l-1.84-.467a7.373 7.373 0 0 1-1.1-.371 1.213 1.213 0 0 1-.523-.4 1.061 1.061 0 0 1-.136-.562c-.009-.224.05-.445.17-.636a1.52 1.52 0 0 1 .42-.416c.174-.11.366-.19.568-.236.21-.045.426-.067.641-.068.301-.002.602.026.897.085.264.048.516.146.744.286.217.139.391.333.505.563.143.258.228.544.25.838h2.565a3.535 3.535 0 0 0-.409-1.76 3.317 3.317 0 0 0-1.061-1.204 4.39 4.39 0 0 0-1.555-.67 7.305 7.305 0 0 0-1.811-.197c-.549.001-1.095.075-1.623.22a4.56 4.56 0 0 0-1.453.669 3.63 3.63 0 0 0-1.045 1.125 3.111 3.111 0 0 0-.386 1.592c-.013.487.092.97.307 1.407.206.372.488.698.828.956.347.263.73.477 1.136.636.43.159.87.294 1.317.405.437.124.874.236 1.3.332.386.091.765.21 1.135.354.301.112.577.282.811.5.214.207.33.493.318.788.008.271-.076.537-.238.754a1.7 1.7 0 0 1-.568.45c-.24.115-.497.194-.76.237-.253.032-.507.049-.761.05-.34 0-.68-.04-1.01-.118a2.953 2.953 0 0 1-.863-.383 2.024 2.024 0 0 1-.568-.686 2.172 2.172 0 0 1-.221-1.018l-2.56.006zm10.603 3.939h2.65V9.44h4.882v5.153h2.662V2.644h-2.65V7.23h-4.882V2.644h-2.685l.023 11.927zm11.391 0h2.651V2.644h-2.65v11.927zm3.866 0h2.48l.034-8 5.018 8h2.65V2.644h-2.486l-.028 8.045-5.029-8.045h-2.634l-.005 11.927z" fill-rule="nonzero"/>
    <path d="M16.453 16.939a15.682 15.682 0 0 0-3.973-2.127c-1.07-.428-2.09-.97-3.043-1.614-2.27-1.568-3.405-3.512-3.405-5.834a5.944 5.944 0 0 1 1.243-3.882c.151-.186.314-.363.488-.529L2.91 4.08A2.598 2.598 0 0 0 .946 7.195l4.019 17.21c.326 1.394 1.73 2.265 3.138 1.946l1.987-.473-.153-.04a19.252 19.252 0 0 1-3.849-1.648l2.095-4.59a9.304 9.304 0 0 0 5.903 2.059c2.27 0 3.406-.805 3.406-2.402a2.948 2.948 0 0 0-1.04-2.318zM27.43 19.251L23.412 2.042c-.327-1.395-1.73-2.265-3.14-1.946l-2.922.67a16.06 16.06 0 0 1 4.774 1.53l-1.704 4.5c-1.271-1.08-3.048-1.62-5.318-1.62-2.036 0-3.056.802-3.06 2.407a2.168 2.168 0 0 0 1.005 1.688 20.98 20.98 0 0 0 4.291 2.06c1.306.474 2.53 1.148 3.627 1.996.42.332.8.71 1.135 1.125a6.907 6.907 0 0 1 1.448 4.417 6.627 6.627 0 0 1-1.39 4.264l3.308-.76a2.616 2.616 0 0 0 1.638-1.156 2.574 2.574 0 0 0 .326-1.966z"/>
    <g>
      <path d="M36.847 18.565h.976l2.407 6.154 2.395-6.154h.976v7.01h-.664V19.51l-2.4 6.064h-.625l-2.384-6.064v6.064h-.681z"/>
      <path d="M48.965 18.565h.738l2.753 7.01h-.733l-.845-2.183H47.71l-.84 2.182h-.71l2.804-7.01zm-1.05 4.258h2.736l-1.346-3.6-1.39 3.6z" fill-rule="nonzero"/>
      <path d="M60.97 25.574h-.477l-.09-1.277a2.512 2.512 0 0 1-2.408 1.424c-2.19 0-3.28-1.739-3.28-3.657s1.09-3.657 3.28-3.657a2.73 2.73 0 0 1 2.907 2.33h-.665a2.176 2.176 0 0 0-2.242-1.762c-1.839 0-2.622 1.553-2.622 3.089s.778 3.088 2.622 3.088c1.539 0 2.435-1.091 2.407-2.576h-2.367v-.563h2.935v3.561z"/>
      <path d="M66.22 18.565h.738l2.73 7.015h-.71l-.845-2.183h-3.19l-.84 2.183h-.71l2.827-7.015zm-1.05 4.264h2.736l-1.345-3.6-1.391 3.6z" fill-rule="nonzero"/>
      <path d="M71.93 18.565h5.006v.562l-4.58 5.857h4.677v.562h-5.415v-.562l4.58-5.857H71.93zM79.86 18.565h.663v7.01h-.664zM83.912 18.565h.738l4.053 5.935v-5.935h.664v7.01h-.738l-4.053-5.936v5.935h-.664zM92.755 18.565h4.802v.562h-4.143v2.537h3.882v.563h-3.877v2.774h4.19v.562h-4.854z"/>
    </g>
  </g>
</svg>